<?xml version="1.0" encoding="utf-8"?>
<!-- Generator: Adobe Illustrator 24.0.2, SVG Export Plug-In . SVG Version: 6.00 Build 0)  -->
<svg version="1.1"
	 id="svg10" xmlns:cc="http://creativecommons.org/ns#" xmlns:dc="http://purl.org/dc/elements/1.1/" xmlns:inkscape="http://www.inkscape.org/namespaces/inkscape" xmlns:rdf="http://www.w3.org/1999/02/22-rdf-syntax-ns#" xmlns:sodipodi="http://sodipodi.sourceforge.net/DTD/sodipodi-0.dtd" xmlns:svg="http://www.w3.org/2000/svg"
	 xmlns="http://www.w3.org/2000/svg" xmlns:xlink="http://www.w3.org/1999/xlink" x="0px" y="0px" viewBox="0 0 648 180.3"
	 style="enable-background:new 0 0 648 180.3;" xml:space="preserve">
<style type="text/css">
	.st0{fill:#FFCC00;}
</style>
<sodipodi:namedview  bordercolor="#666666" borderopacity="1" gridtolerance="10" guidetolerance="10" id="namedview12" inkscape:current-layer="g18" inkscape:cx="287.61497" inkscape:cy="210.17704" inkscape:pageopacity="0" inkscape:pageshadow="2" inkscape:window-height="1043" inkscape:window-maximized="0" inkscape:window-width="1747" inkscape:window-x="0" inkscape:window-y="23" inkscape:zoom="1.154321" objecttolerance="10" pagecolor="#ffffff" showgrid="false">
	</sodipodi:namedview>
<g id="g18" inkscape:groupmode="layer" inkscape:label="Image">
	<g id="text24" transform="matrix(0.92407939,0,0,1.0821581,-16,10)">
		<path id="path33" d="M366.3,142.8c-5.3,0-10.2-0.8-14.7-2.3c-4.5-1.6-8.3-3.9-11.5-7c-3.2-3.1-5.7-6.9-7.5-11.6
			c-1.8-4.6-2.6-10-2.6-16c0-5.6,0.8-10.8,2.5-15.3c1.7-4.6,4.1-8.5,7.4-11.8c3.1-3.2,6.9-5.6,11.5-7.3c4.6-1.7,9.6-2.6,15-2.6
			c3,0,5.7,0.2,8.1,0.5c2.4,0.3,4.7,0.7,6.7,1.3c2.1,0.6,4.1,1.3,5.8,2.1c1.8,0.7,3.3,1.4,4.6,2.1V92h-2.1c-0.9-0.8-2-1.7-3.4-2.7
			c-1.3-1.1-2.9-2.1-4.6-3.1c-1.8-1-3.7-1.9-5.7-2.6s-4.2-1.1-6.6-1.1c-2.6,0-5,0.4-7.4,1.2c-2.3,0.8-4.5,2.1-6.5,4
			c-1.9,1.8-3.4,4.2-4.6,7.2c-1.1,3-1.7,6.6-1.7,10.9c0,4.5,0.6,8.2,1.9,11.2s2.9,5.4,4.8,7.1c1.9,1.8,4.1,3,6.5,3.8
			c2.4,0.7,4.7,1.1,7.1,1.1c2.2,0,4.4-0.3,6.6-1c2.2-0.7,4.2-1.6,6.1-2.7c1.6-0.9,3-1.9,4.4-3c1.3-1.1,2.4-2,3.3-2.7h1.9v17
			c-1.8,0.8-3.5,1.5-5.1,2.2s-3.3,1.3-5.1,1.8c-2.3,0.7-4.5,1.2-6.6,1.5S369.8,142.8,366.3,142.8L366.3,142.8z"/>
	</g>
	<g id="text28" transform="translate(-16,10)">
		<path id="path30" d="M398,100.5h-28.7v-6c2.2-1.6,4.4-3.3,6.6-5.1c2.2-1.8,4-3.3,5.3-4.6c2-1.9,3.4-3.6,4.2-5
			c0.8-1.4,1.3-2.8,1.3-4.2c0-1.7-0.5-3-1.6-3.9s-2.6-1.4-4.6-1.4c-1.5,0-3.1,0.3-4.8,0.9c-1.7,0.6-3.2,1.4-4.6,2.4h-0.8v-8.2
			c1.2-0.5,2.9-1,5.1-1.5c2.3-0.5,4.6-0.8,6.8-0.8c4.6,0,8.1,1,10.5,2.9s3.6,4.6,3.6,8.2c0,2.3-0.6,4.5-1.7,6.6s-2.9,4.2-5.3,6.4
			c-1.5,1.4-3,2.6-4.5,3.8c-1.5,1.1-2.6,2-3.2,2.4H398V100.5z"/>
	</g>
	<g id="g50" transform="matrix(0.92407939,0,0,1.0821581,-28,-6)">
		<path id="path48" class="st0" d="M376.8,154.8c-5.3,0-10.2-0.8-14.7-2.3c-4.5-1.6-8.3-3.9-11.5-7c-3.2-3.1-5.7-6.9-7.5-11.6
			c-1.8-4.6-2.6-10-2.6-16c0-5.6,0.8-10.8,2.5-15.3s4.1-8.5,7.4-11.8c3.1-3.2,6.9-5.6,11.5-7.3c4.6-1.7,9.6-2.6,15-2.6
			c3,0,5.7,0.2,8.1,0.5c2.4,0.3,4.7,0.7,6.7,1.3c2.1,0.6,4.1,1.3,5.8,2.1c1.8,0.7,3.3,1.4,4.6,2.1V104H400c-0.9-0.8-2-1.7-3.4-2.7
			c-1.3-1.1-2.9-2.1-4.6-3.1c-1.8-1-3.7-1.9-5.7-2.6s-4.2-1.1-6.6-1.1c-2.6,0-5,0.4-7.4,1.2c-2.3,0.8-4.5,2.1-6.5,4
			c-1.9,1.8-3.4,4.2-4.6,7.2c-1.1,3-1.7,6.6-1.7,10.9c0,4.5,0.6,8.2,1.9,11.2c1.3,3,2.9,5.4,4.8,7.1c1.9,1.8,4.1,3,6.5,3.8
			c2.4,0.7,4.7,1.1,7.1,1.1c2.2,0,4.4-0.3,6.6-1s4.2-1.6,6.1-2.7c1.6-0.9,3-1.9,4.4-3c1.3-1.1,2.4-2,3.3-2.7h1.9v17
			c-1.8,0.8-3.5,1.5-5.1,2.2s-3.3,1.3-5.1,1.8c-2.3,0.7-4.5,1.2-6.6,1.5C383.2,154.6,380.4,154.8,376.8,154.8L376.8,154.8z"/>
	</g>
	<g id="g54" transform="translate(-28,-6)">
		<path id="path52" class="st0" d="M407.7,113.4H379v-6c2.2-1.6,4.4-3.3,6.6-5.1c2.2-1.8,4-3.3,5.3-4.6c2-1.9,3.4-3.6,4.2-5
			c0.8-1.4,1.3-2.8,1.3-4.2c0-1.7-0.5-3-1.6-3.9s-2.6-1.4-4.6-1.4c-1.5,0-3.1,0.3-4.8,0.9c-1.7,0.6-3.2,1.4-4.6,2.4H380v-8.1
			c1.2-0.5,2.9-1,5.1-1.5c2.3-0.5,4.6-0.8,6.8-0.8c4.6,0,8.1,1,10.5,2.9s3.6,4.6,3.6,8.2c0,2.3-0.6,4.5-1.7,6.6s-2.9,4.2-5.3,6.4
			c-1.5,1.4-3,2.6-4.5,3.8c-1.5,1.1-2.6,2-3.2,2.4h16.5L407.7,113.4z"/>
	</g>
</g>
</svg>
