<?xml version="1.0" encoding="utf-8"?>
<!-- Generator: Adobe Illustrator 24.0.2, SVG Export Plug-In . SVG Version: 6.00 Build 0)  -->
<svg version="1.1" id="Layer_1" xmlns="http://www.w3.org/2000/svg" xmlns:xlink="http://www.w3.org/1999/xlink" x="0px" y="0px"
	 viewBox="0 0 512 512" style="enable-background:new 0 0 512 512;" xml:space="preserve">
<g>
	<path d="M36.4,509c-4.8-2.1-9.8-3.8-14.3-6.4C11,496,4.6,485.9,1.4,473.6c-0.2-0.7-0.2-1.5-0.2-2.2c0-109.1,0-218.2,0-327.3
		c0-0.7,0-1.3,0-2.7c2.5,0,5,0,7.4,0c77.4,0,154.8,0,232.2,0c30,0,59.9,0,89.9,0c1.5,0,3,0,4.5,0.1c3,0.2,3.6,0.9,3.8,3.9
		c0.1,1.3,0.1,2.6,0.1,3.8c0,104.6-0.1,209.2,0.1,313.8c0,19.1-10,37.9-33.1,45.1c-0.8,0.2-1.5,0.6-2.2,0.9
		C214.7,509,125.6,509,36.4,509z M40.5,359.4C39.4,430,95.5,487.2,165,488.6c70.9,1.5,128.2-54.6,129.9-123.8
		c1.7-70.8-54.5-128.7-124.5-130.1C99.7,233.3,41.9,289.3,40.5,359.4z M169.8,191.7c0,0,0-0.1,0-0.1c-29.4,0-58.7,0-88.1,0
		c-1.7,0-3.3-0.1-5,0.2c-2.6,0.5-5.2,1-7.6,2c-5.2,2.3-7.8,6.5-7.9,12.1c0,5.7,2.4,10.2,7.8,12.4c3.4,1.4,7.3,2.2,10.9,2.3
		c59.9,0.1,119.8,0.1,179.8,0.1c2.6,0,5.3-0.4,7.8-1c6.4-1.5,10.8-7.1,10.8-13.6c0-6.4-4.4-12-10.9-13.4c-3.2-0.7-6.6-0.9-9.8-0.9
		C228.4,191.7,199.1,191.7,169.8,191.7z"/>
	<path d="M415,509c-0.8-0.5-1.7-1-2.5-1.5c-5.6-3.5-8.3-8.7-7.7-15.3c0.7-7.6-0.9-14.6-4.5-21.3c-5.8-10.6-10.3-21.8-12.5-33.7
		c-1.4-7.5-2-15.2-2.7-22.8c-0.4-4.4,0.5-5.2,4.9-5.2c6.2-0.1,12.5,0,18.7,0c13.5,0,26.9,0,40.4,0c5.5,0,6.1,0.7,5.9,6.2
		c-0.7,18.9-5.2,36.9-14.3,53.6c-4,7.4-6.3,15-5.6,23.5c0.6,7-2.6,12.2-8.7,15.6c-0.4,0.2-0.8,0.6-1.2,0.9
		C422,509,418.5,509,415,509z"/>
	<path d="M384.8,255.9c0-39,0-78,0-117c0-0.8,0-1.5,0-2.3c0.3-3.6,1.8-5.1,5.4-5.3c1-0.1,2,0,2.9,0c26.1,0.1,52.1,0.1,78.2,0.2
		c0.8,0,1.7,0,2.5-0.1c4.2-0.3,5.6-1.6,5.6-5.7c0-6.2,3.2-10.2,8.5-12.7c5.5-2.6,10.9-2,15.8,1.6c3.7,2.8,5.8,6.3,5.8,11.3
		c-0.1,60.2-0.2,120.5,0.1,180.7c0,7.1-7.8,13.9-13.5,14.1c-9.8,0.4-16.7-5.8-16.8-15.6c-0.1-9.3,0-18.7,0-28c0-5.1-1.2-6.2-6.2-6.1
		c-4.1,0.1-8.1,0-12.2,0c-4.5-0.1-5.8,1.2-5.8,5.7c0,9.2,0.1,18.4,0.1,27.6c0,23,0,46.1,0.1,69.1c0,0.8,0,1.5,0,2.3
		c-0.3,3.1-1.7,4.5-4.7,4.7c-0.7,0.1-1.4,0-2,0c-19,0-38,0-56.9,0c-5.3,0-6.7-1.3-6.7-6.7C384.8,334.3,384.8,295.1,384.8,255.9
		C384.8,255.9,384.8,255.9,384.8,255.9z M455,201.5C455,201.5,455,201.5,455,201.5c0,11.3,0,22.6,0,33.9c0,4.4,1,5.3,5.3,5.3
		c4.5,0,9,0.1,13.5,0.2c3.7,0.1,5.3-1.4,5.4-5.1c0.1-23,0.1-46.1,0.1-69.1c0-3.5-1.3-4.7-4.8-4.7c-4.6,0-9.2,0-13.8,0
		c-4.7,0-5.6,0.9-5.6,5.7C455,178.9,455,190.2,455,201.5z"/>
	<path d="M222,32.6c14.2,0,28.4,0,42.7,0c0-4.6,0.2-9.2,0-13.7c-0.4-7.2,1.7-13.1,8.2-16.9c1.3-0.8,2.9-1,4.4-1.2c0.9-0.2,2,0,2.9,0
		c8.7,0,14.9,6.1,15.1,14.9c0.1,5.5,0,11,0,16.4c3.4,0.4,6.7,0.6,9.9,1.3c16.5,3.4,30.3,17.7,33.2,34.2c0.5,2.8,0.6,5.7,0.6,8.6
		c0.1,10.4,0.1,20.8,0.1,31.2c0,3.7-1.4,5.1-5,5.1c-32.7,0-65.4,0-98,0c-75.3,0-150.6,0-225.9,0c-2.9,0-5.8,0-8.9,0c0-1.4,0-2.2,0-3
		c0-13.1,0-26.2,0-39.3c0-4.4,1.6-8.3,3.5-12c7.9-15.9,20.5-25,38.6-25.6c0.3,0,0.6-0.1,1.1-0.2c0-4.6,0.1-9.2,0-13.7
		c-0.1-4.2,0.4-8.1,2.9-11.6c3.2-4.5,7.4-6.5,13.1-6.2c6.8,0.4,12.2,4.2,13.9,10.8c0.6,2.4,0.6,4.9,0.7,7.4c0.1,4.4,0,8.9,0,13.4
		c14.3,0,28.4,0,42.8,0c0-4.4,0.1-8.6,0-12.9c-0.2-4.5,0.2-8.7,2.8-12.5c3.2-4.6,7.6-6.4,13.3-6.2c6.6,0.1,10.6,3.5,13,8.9
		c1.1,2.5,1.3,5.5,1.4,8.3c0.2,4.8,0.1,9.6,0.1,14.6c14.3,0,28.4,0,42.8,0c0-4.7-0.1-9.3,0-14c0.1-2.8,0.3-5.6,1-8.2
		c1.3-4.3,4.5-7.3,8.6-9.1c1.4-0.6,3.2-0.3,4.9-0.5c4.7-0.6,8.6,0.7,11.8,4.2c3.3,3.6,4.4,7.9,4.4,12.7C222,22.5,222,27.5,222,32.6z
		 M265.9,33c0,11.6,0,23,0,34.5c0,1.6,0.5,3.3,1,4.8c3.1,9.2,14.1,12.4,21.7,6.3c3.9-3.1,5.5-7.4,5.6-12.1
		c0.2-11.2,0.1-22.3,0.1-33.5C285,33,275.5,33,265.9,33z M220.8,33.2c-9.3,0-18.8,0-28.3,0c-0.1,0.4-0.2,0.8-0.2,1.2
		c0,10.4-0.1,20.8,0.1,31.2c0,2.3,0.6,4.7,1.3,6.8c2.4,7.1,10.3,11,17.1,8.6c6.1-2.2,9.7-6.7,9.9-13C221,56.4,220.8,44.9,220.8,33.2
		z M119,33.2c-0.1,0.5-0.2,1-0.2,1.4c0,10-0.1,20,0.1,30c0,2.4,0.5,4.8,1.2,7.1c2.1,7.1,9.8,11.3,16.7,9.3
		c6.3-1.8,10.5-7.3,10.7-15.1c0.3-10.8,0.1-21.5,0.1-32.3c0-0.1-0.1-0.3-0.3-0.5C137.9,33.2,128.5,33.2,119,33.2z M45.5,33.2
		c-0.1,0.5-0.1,1-0.1,1.4c0,10.2-0.1,20.5,0.1,30.7c0,2.2,0.5,4.5,1.2,6.6c2.2,6.7,9.2,10.7,15.9,9.2c6.2-1.3,10.9-6.4,11.3-13.6
		c0.5-11.3,0.3-22.6,0.4-33.9c0-0.1-0.1-0.3-0.3-0.5C64.6,33.2,55.1,33.2,45.5,33.2z"/>
	<path d="M419.9,102.4c-9.7,0-19.4,0-29.1,0c-4.6,0-5.9-1.4-5.9-5.9c0.1-6.7,0.2-13.4,0.1-20.1c-0.5-20.5,17.5-35,36.6-34.3
		c16.3,0.6,29.9,11.8,33,27.3c0.6,3.1,0.6,6.3,0.6,9.4c0.1,5.9,0,11.9,0,17.8c0,4.2-1.3,5.6-5.5,5.6
		C439.8,102.3,429.9,102.3,419.9,102.4C419.9,102.3,419.9,102.3,419.9,102.4z"/>
	<path d="M270.6,330.6c-2.1,2.3-3.9,4.3-5.7,6.1c-13.1,12.8-26.2,25.6-39.4,38.2c-4.6,4.4-6,9.2-4.9,15.4
		c3.7,20.1,7.1,40.3,10.6,60.4c0.1,0.6,0.1,1.2,0.2,2c-0.8-0.4-1.4-0.6-2-0.9c-18.6-9.8-37.2-19.5-55.6-29.4
		c-4.7-2.5-8.9-2.5-13.6,0c-18,9.6-36.2,19.1-54.3,28.6c-0.9,0.4-1.8,0.8-3.1,1.4c0.5-3,0.9-5.6,1.3-8.2c3.2-18.8,6.4-37.7,9.7-56.5
		c0.8-4.3-0.4-7.8-3.4-10.9c-6.2-6.5-12.4-13-18.5-19.5c-8-8.5-15.9-17.1-23.9-25.6c-0.4-0.5-0.8-1-1.5-1.8
		c4.2-0.6,8.2-1.2,12.1-1.8c12.3-1.9,24.7-3.9,37-5.8c2.2-0.3,4.5-0.3,6.8-0.3c6.3-0.1,11.4-2.6,14.9-7.8c1.7-2.5,3.1-5.3,4.4-8.1
		c8.1-16.5,16.1-33,24.2-49.4c0.2-0.4,0.4-0.7,0.9-1.4c1.4,2.4,2.7,4.4,3.8,6.6c8.2,16.7,16.5,33.4,24.6,50.2
		c2.5,5.3,6.5,8.2,12.3,9.1c18.8,2.6,37.5,5.3,56.3,8C265.8,329.5,267.9,330,270.6,330.6z"/>
</g>
</svg>
