<?xml version="1.0" encoding="utf-8"?>
<!-- Generator: Adobe Illustrator 24.0.2, SVG Export Plug-In . SVG Version: 6.00 Build 0)  -->
<svg version="1.1" id="Layer_1" xmlns="http://www.w3.org/2000/svg" xmlns:xlink="http://www.w3.org/1999/xlink" x="0px" y="0px"
	 viewBox="0 0 512 512" style="enable-background:new 0 0 512 512;" xml:space="preserve">
<path d="M101.5,260.4c39.8,0,72.2-32.4,72.2-72.2S141.3,116,101.5,116s-72.2,32.4-72.2,72.2S61.7,260.4,101.5,260.4z"/>
<path d="M188.9,286.2c-7.3-10.7-16.5-20-27.2-27.3c-15.8,13-36.1,20.9-58.2,20.9s-42.4-7.8-58.2-20.9C18,277.6,0,309,0,344.4v36.4
	c0,19.7,16,35.8,35.8,35.8h135.3c8.7,0,16.7-3.1,22.9-8.3"/>
<g>
	<path d="M340.4,365.9c-4.7,0-8.9-1.8-12.2-5l-67.1-67.1c-2.4-2.4-3.8-5.6-3.8-9c0-3.3,1.4-6.6,3.8-9c2.4-2.4,5.6-3.8,9-3.8
		s6.6,1.4,9,3.8l61.4,61.4L471,206.8c2.4-2.4,5.6-3.8,9-3.8c3.3,0,6.6,1.4,9,3.8c5,5,5,12.9,0,17.9L352.8,360.9
		C349.5,364.1,345.1,365.9,340.4,365.9z"/>
	<path d="M227.8,447.1c-5.6,0-10.7-2.1-14.6-6c-3.9-3.9-6-9-6-14.6V217.6c0-5.6,2.1-10.7,6-14.6c3.9-3.9,9-6,14.6-6h144.8
		c7.1,0,12.6,5.7,12.6,12.6s-5.7,12.6-12.6,12.6h-140v199.3h190.5v-91.9c0-7.1,5.7-12.8,12.8-12.8c7.1,0,12.8,5.7,12.8,12.8v96.7
		c0,5.6-2.1,10.7-6,14.6c-3.9,3.9-9,6-14.6,6H227.8V447.1z"/>
	<path d="M291.9,495.2c-7.1,0-12.6-5.7-12.6-12.6c0-7.1,5.7-12.6,12.6-12.6l188.1-0.2V305.7c0-7.1,5.7-12.6,12.6-12.6
		c3.5,0,6.6,1.4,9,3.8s3.8,5.6,3.8,9l-0.2,171c0,10.1-8.1,18.2-18.2,18.2C487.1,495,291.9,495.2,291.9,495.2z"/>
</g>
</svg>
