<?xml version="1.0" encoding="iso-8859-1"?>
<!-- Generator: Adobe Illustrator 18.0.0, SVG Export Plug-In . SVG Version: 6.00 Build 0)  -->
<!DOCTYPE svg PUBLIC "-//W3C//DTD SVG 1.1//EN" "http://www.w3.org/Graphics/SVG/1.1/DTD/svg11.dtd">
<svg version="1.1" id="Capa_1" xmlns="http://www.w3.org/2000/svg" xmlns:xlink="http://www.w3.org/1999/xlink" x="0px" y="0px"
	 viewBox="0 0 492.102 492.102" style="enable-background:new 0 0 492.102 492.102;" xml:space="preserve">
<path d="M485.232,193.406c-63.788-63.788-148.731-98.916-239.18-98.916c-90.449,0-175.392,35.127-239.18,98.916
	c-9.162,9.154-9.162,24.003,0,33.165l164.138,164.169c4.398,4.398,10.361,6.871,16.584,6.871c6.222,0,12.185-2.473,16.582-6.871
	c22.339-22.317,61.451-22.301,83.761,0c4.397,4.405,10.367,6.871,16.582,6.871c6.222,0,12.185-2.473,16.583-6.871l164.131-164.169
	C494.392,217.409,494.392,202.56,485.232,193.406z M302.677,342.824c-8.786-5.558-18.338-9.68-28.346-12.421
	c0.168-1.26,0.381-2.504,0.381-3.81c0-6.139-1.97-11.796-5.252-16.461c0-0.16,0.045-0.306,0.045-0.466v-113.36
	c0-12.956-10.498-23.454-23.454-23.454c-12.956,0-23.454,10.498-23.454,23.454v113.36c0,0.16,0.045,0.306,0.045,0.458
	c-3.289,4.665-5.26,10.329-5.26,16.468c0,1.306,0.214,2.55,0.382,3.81c-10.001,2.748-19.553,6.863-28.34,12.421l-132.15-132.18
	c2.986-2.542,6.162-4.779,9.23-7.191c2.924,1.893,6.215,3.267,9.956,3.267c10.345,0,18.744-8.39,18.744-18.743
	c0-1.428-0.512-2.68-0.81-4.016c13.262-8.108,27.127-15.025,41.464-20.873c2.467,7.474,9.276,12.963,17.575,12.963
	c10.353,0,18.743-8.391,18.743-18.743c0-2.183-0.557-4.206-1.245-6.153c18.622-4.917,37.86-7.826,57.445-8.986
	c2.319,7.712,9.199,13.437,17.673,13.437c8.466,0,15.345-5.726,17.666-13.437c19.583,1.16,38.822,4.062,57.443,8.986
	c-0.687,1.947-1.245,3.97-1.245,6.153c0,10.352,8.391,18.743,18.744,18.743c8.307,0,15.116-5.489,17.574-12.963
	c14.339,5.84,28.203,12.765,41.465,20.866c-0.298,1.336-0.81,2.595-0.81,4.023c0,10.353,8.391,18.743,18.751,18.743
	c3.741,0,7.032-1.374,9.956-3.267c3.068,2.412,6.245,4.649,9.23,7.191L302.677,342.824z"/>
<g>
</g>
<g>
</g>
<g>
</g>
<g>
</g>
<g>
</g>
<g>
</g>
<g>
</g>
<g>
</g>
<g>
</g>
<g>
</g>
<g>
</g>
<g>
</g>
<g>
</g>
<g>
</g>
<g>
</g>
</svg>
