<?xml version="1.0" encoding="utf-8"?>
<!-- Generator: Adobe Illustrator 24.0.2, SVG Export Plug-In . SVG Version: 6.00 Build 0)  -->
<svg version="1.1" id="Capa_1" xmlns="http://www.w3.org/2000/svg" xmlns:xlink="http://www.w3.org/1999/xlink" x="0px" y="0px"
	 viewBox="0 0 512 512" style="enable-background:new 0 0 512 512;" xml:space="preserve">
<style type="text/css">
	.st0{fill:#FFFFFF;}
</style>
<g id="uVNfgc.tif">
	<g>
		<path d="M382,512c-111.3,0-222.7,0-334,0c-0.9-0.3-1.8-0.8-2.7-0.9C29.4,508,16.7,499.9,8.6,486c-3.9-6.7-5.8-14.6-8.6-22
			c0-111.3,0-222.7,0-334c0.2-0.4,0.6-0.8,0.7-1.3c3-24.1,25.3-47,57.2-46.9c86.6,0.4,173.3,0.1,260,0.1c1.6,0,3.2,0,5.8,0
			c-2.1,2.3-3.5,3.7-4.8,5c-43.5,43.5-86.9,87-130.5,130.4c-5.8,5.7-10.3,12.1-12.9,19.9c-6.9,20.8-14,41.6-20.7,62.5
			c-1.4,4.4-2.5,9.1-2.6,13.7c-1,31.4,29.1,53.6,59.5,43.9c20.1-6.5,40-13.5,60.1-20c9.1-2.9,16.7-7.8,23.5-14.6
			c43.3-43.4,86.7-86.8,130-130.1c1.3-1.3,2.7-2.5,4.7-4.4c0,3.2,0,5,0,6.8c0,52.3,0,104.6,0,157c0,34.8,0.1,69.7-0.1,104.5
			c-0.1,24.7-15.5,45.6-38.4,52.8C388.4,510.4,385.2,511.1,382,512z"/>
		<path d="M512,58c-2.2,7.4-7,13-12.5,18.2c-6.5,6.2-12.7,12.7-18.7,18.8c-21.2-21.3-42.2-42.4-62.1-62.4c8.3-9,17.1-18.9,26.4-28.4
			C447.3,2,451,1.4,454,0c3.3,0,6.7,0,10,0c7.6,2.6,13.3,7.8,18.7,13.5c5,5.3,10.2,10.5,15.5,15.5c5.8,5.5,11.1,11.3,13.8,19
			C512,51.3,512,54.7,512,58z"/>
		<path class="st0" d="M512,48c-2.7-7.7-8-13.5-13.8-19c-5.3-5-10.5-10.2-15.5-15.5C477.3,7.8,471.6,2.6,464,0c16,0,32,0,48,0
			C512,16,512,32,512,48z"/>
		<path class="st0" d="M0,464c2.8,7.4,4.7,15.3,8.6,22c8.1,13.9,20.8,22,36.6,25.1c0.9,0.2,1.8,0.6,2.7,0.9c-16,0-32,0-48,0
			C0,496,0,480,0,464z"/>
		<path d="M394.7,53.8c21.2,21.2,42.2,42.2,63.5,63.5c-1,1-2.2,2.3-3.5,3.6c-60.3,60.3-120.6,120.7-181,180.8
			c-3.2,3.1-7.4,5.7-11.6,7.2c-19.3,6.8-38.8,13-58.2,19.6c-6.6,2.2-12.5,1.9-17.5-3.2c-4.8-4.9-5.1-10.8-2.9-17.1
			c6.7-19.8,13.2-39.8,20-59.6c1.1-3.2,2.9-6.5,5.3-8.8C270,178.3,331.4,117,392.8,55.6C393.4,55,394,54.5,394.7,53.8z"/>
	</g>
</g>
</svg>
