<?xml version="1.0" encoding="utf-8"?>
<!-- Generator: Adobe Illustrator 24.0.2, SVG Export Plug-In . SVG Version: 6.00 Build 0)  -->
<svg version="1.1"
	 id="svg10" xmlns:cc="http://creativecommons.org/ns#" xmlns:dc="http://purl.org/dc/elements/1.1/" xmlns:inkscape="http://www.inkscape.org/namespaces/inkscape" xmlns:rdf="http://www.w3.org/1999/02/22-rdf-syntax-ns#" xmlns:sodipodi="http://sodipodi.sourceforge.net/DTD/sodipodi-0.dtd" xmlns:svg="http://www.w3.org/2000/svg"
	 xmlns="http://www.w3.org/2000/svg" xmlns:xlink="http://www.w3.org/1999/xlink" x="0px" y="0px" viewBox="0 0 900 828.3"
	 style="enable-background:new 0 0 900 828.3;" xml:space="preserve">
<style type="text/css">
	.st0{fill:#FFCC00;}
	.st1{font-family:'Tahoma';}
	.st2{font-size:50px;}
	.st3{fill:#FFFFFF;}
</style>
<sodipodi:namedview  bordercolor="#666666" borderopacity="1" gridtolerance="10" guidetolerance="10" id="namedview12" inkscape:current-layer="g18" inkscape:cx="287.61497" inkscape:cy="210.17704" inkscape:pageopacity="0" inkscape:pageshadow="2" inkscape:window-height="1043" inkscape:window-maximized="0" inkscape:window-width="1747" inkscape:window-x="0" inkscape:window-y="23" inkscape:zoom="1.154321" objecttolerance="10" pagecolor="#ffffff" showgrid="false">
	</sodipodi:namedview>
<g id="g18" inkscape:groupmode="layer" inkscape:label="Image">
	<g id="text24" transform="matrix(0.92407939,0,0,1.0821581,-16,10)">
		<path id="path33" d="M454.1,511.4c-22.3,0-42.8-3.3-61.8-9.9c-18.8-6.6-34.9-16.4-48.5-29.4c-13.5-13-24.1-29.2-31.6-48.7
			c-7.4-19.4-11.1-41.9-11.1-67.4c0-23.7,3.6-45.3,10.7-64.6s17.4-35.9,31-49.7c13-13.3,29.1-23.5,48.3-30.8
			c19.3-7.2,40.4-10.9,63.2-10.9c12.6,0,23.9,0.7,34,2.2c10.2,1.3,19.6,3.2,28.2,5.4c9,2.5,17.1,5.4,24.3,8.7
			c7.4,3.1,13.8,6,19.3,8.7v72.6h-8.9c-3.8-3.2-8.5-7-14.3-11.5c-5.6-4.4-12.1-8.8-19.3-13.1c-7.4-4.3-15.4-7.9-23.9-10.9
			s-17.8-4.4-27.6-4.4c-10.9,0-21.2,1.7-31,5.2c-9.8,3.4-18.8,9-27.2,16.9c-7.9,7.6-14.4,17.8-19.3,30.4
			c-4.8,12.6-7.2,27.9-7.2,45.9c0,18.8,2.6,34.5,7.8,47.1c5.4,12.6,12.1,22.5,20.1,29.8c8.2,7.4,17.3,12.7,27.4,15.9
			c10.1,3.1,20,4.6,29.8,4.6c9.4,0,18.6-1.4,27.8-4.2c9.3-2.8,17.8-6.6,25.5-11.5c6.6-3.9,12.7-8,18.3-12.5
			c5.6-4.4,10.3-8.2,13.9-11.5h8v71.6c-7.5,3.4-14.7,6.5-21.5,9.5s-14,5.5-21.5,7.6c-9.8,2.8-19,5-27.6,6.4
			C480.9,510.6,469.1,511.4,454.1,511.4L454.1,511.4z"/>
	</g>
	<g id="text28" transform="translate(-16,10)">
		<path id="path30" d="M670.1,326.3H549.2v-25.4c9.2-6.7,18.5-13.8,27.7-21.3c9.3-7.5,16.8-14,22.3-19.4
			c8.3-8.1,14.3-15.1,17.8-21.1c3.5-6,5.3-11.9,5.3-17.8c0-7-2.3-12.4-6.8-16.2c-4.5-3.9-11-5.8-19.4-5.8c-6.3,0-13,1.3-20.1,3.9
			c-7,2.6-13.4,6-19.4,10h-3.3v-34.2c4.9-2.1,12.1-4.3,21.6-6.4c9.6-2.1,19.2-3.2,28.8-3.2c19.3,0,34,4.1,44.2,12.2
			c10.1,8.1,15.2,19.5,15.2,34.3c0,9.7-2.4,19-7.3,27.7c-4.8,8.8-12.2,17.8-22.2,27.1c-6.3,5.8-12.6,11.1-18.9,16
			c-6.3,4.8-10.9,8.2-13.6,10.1h69.2L670.1,326.3z"/>
	</g>
	<g id="g50" transform="matrix(0.92407939,0,0,1.0821581,-28,-6)">
		<path id="path48" class="st0" d="M456.8,514.4c-22.3,0-42.8-3.3-61.8-9.9c-18.8-6.6-34.9-16.4-48.5-29.4s-24.1-29.2-31.6-48.7
			c-7.4-19.4-11.1-41.9-11.1-67.4c0-23.7,3.6-45.3,10.7-64.6s17.4-35.9,31-49.7c13-13.3,29.1-23.5,48.3-30.8
			c19.3-7.2,40.4-10.9,63.2-10.9c12.6,0,23.9,0.7,34,2.2c10.2,1.3,19.6,3.2,28.2,5.4c9,2.5,17.1,5.4,24.3,8.7
			c7.4,3.1,13.8,6,19.3,8.7v72.6h-8.9c-3.8-3.2-8.5-7-14.3-11.5c-5.6-4.4-12.1-8.8-19.3-13.1c-7.4-4.3-15.4-7.9-23.9-10.9
			s-17.8-4.4-27.6-4.4c-10.9,0-21.2,1.7-31,5.2c-9.8,3.4-18.8,9-27.2,16.9c-7.9,7.6-14.4,17.8-19.3,30.4
			c-4.8,12.6-7.2,27.9-7.2,45.9c0,18.8,2.6,34.5,7.8,47.1c5.4,12.6,12.1,22.5,20.1,29.8c8.2,7.4,17.3,12.7,27.4,15.9
			c10.1,3.1,20,4.6,29.8,4.6c9.4,0,18.6-1.4,27.8-4.2c9.3-2.8,17.8-6.6,25.5-11.5c6.6-3.9,12.7-8,18.3-12.5
			c5.6-4.4,10.3-8.2,13.9-11.5h8v71.6c-7.5,3.4-14.7,6.5-21.5,9.5s-14,5.5-21.5,7.6c-9.8,2.8-19,5-27.6,6.4
			C483.6,513.7,471.8,514.4,456.8,514.4L456.8,514.4z"/>
	</g>
	<g id="g54" transform="translate(-28,-6)">
		<path id="path52" class="st0" d="M672.6,329.6H551.6v-25.4c9.2-6.7,18.5-13.8,27.7-21.3c9.3-7.5,16.8-14,22.3-19.4
			c8.3-8.1,14.3-15.1,17.8-21.1c3.5-6,5.3-11.9,5.3-17.8c0-7-2.3-12.4-6.8-16.2c-4.5-3.9-11-5.8-19.4-5.8c-6.3,0-13,1.3-20.1,3.9
			c-7,2.6-13.4,6-19.4,10h-3.3v-34.2c4.9-2.1,12.1-4.3,21.6-6.4c9.6-2.1,19.2-3.2,28.8-3.2c19.3,0,34,4.1,44.2,12.2
			c10.1,8.1,15.2,19.5,15.2,34.3c0,9.7-2.4,19-7.3,27.7c-4.8,8.8-12.2,17.8-22.2,27.1c-6.3,5.8-12.6,11.1-18.9,16
			c-6.3,4.8-10.9,8.2-13.6,10.1h69.2L672.6,329.6z"/>
	</g>
</g>
<text transform="matrix(1 0 0 1 58.8891 663)" class="st1 st2">Bring Equality In Diverse Workforce </text>
<text transform="matrix(1 0 0 1 56.239 661)" class="st3 st1 st2">Bring Equality In Diverse Workforce </text>
</svg>
