<?xml version="1.0" encoding="UTF-8" standalone="no"?>
<svg
   xmlns:dc="http://purl.org/dc/elements/1.1/"
   xmlns:cc="http://creativecommons.org/ns#"
   xmlns:rdf="http://www.w3.org/1999/02/22-rdf-syntax-ns#"
   xmlns:svg="http://www.w3.org/2000/svg"
   xmlns="http://www.w3.org/2000/svg"
   xmlns:sodipodi="http://sodipodi.sourceforge.net/DTD/sodipodi-0.dtd"
   xmlns:inkscape="http://www.inkscape.org/namespaces/inkscape"
   inkscape:version="1.0 (4035a4f, 2020-05-01)"
   sodipodi:docname="app_icon.svg.png.svg"
   viewBox="0 0 648 518"
   height="518"
   width="648"
   id="svg10"
   version="1.1">
  <metadata
     id="metadata16">
    <rdf:RDF>
      <cc:Work
         rdf:about="">
        <dc:format>image/svg+xml</dc:format>
        <dc:type
           rdf:resource="http://purl.org/dc/dcmitype/StillImage" />
        <dc:title></dc:title>
      </cc:Work>
    </rdf:RDF>
  </metadata>
  <defs
     id="defs14" />
  <sodipodi:namedview
     inkscape:current-layer="g18"
     inkscape:window-maximized="0"
     inkscape:window-y="23"
     inkscape:window-x="0"
     inkscape:cy="210.17704"
     inkscape:cx="287.61497"
     inkscape:zoom="1.154321"
     showgrid="false"
     id="namedview12"
     inkscape:window-height="1043"
     inkscape:window-width="1747"
     inkscape:pageshadow="2"
     inkscape:pageopacity="0"
     guidetolerance="10"
     gridtolerance="10"
     objecttolerance="10"
     borderopacity="1"
     bordercolor="#666666"
     pagecolor="#ffffff" />
  <g
     id="g18"
     inkscape:label="Image"
     inkscape:groupmode="layer">
    <g
       style="font-style:normal;font-weight:normal;font-size:518.552px;line-height:1.25;font-family:sans-serif;fill:#000000;fill-opacity:1;stroke:none;stroke-width:0.777828"
       id="text24"
       transform="matrix(0.92407939,0,0,1.0821581,-16,10)"
       aria-label="C">
      <path
         id="path33"
         style="font-style:normal;font-variant:normal;font-weight:bold;font-stretch:normal;font-size:518.552px;font-family:sans-serif;-inkscape-font-specification:'sans-serif Bold';stroke-width:0.777828"
         d="m 311.21334,456.22486 q -42.03107,0 -77.73216,-12.40676 -35.44789,-12.40677 -61.02101,-36.96709 -25.57312,-24.56032 -39.75228,-61.27421 -13.92595,-36.71389 -13.92595,-84.82174 0,-44.81626 13.41955,-81.27695 13.41956,-36.46069 38.99268,-62.54021 24.56033,-25.06672 60.76782,-38.739478 36.46068,-13.672757 79.50455,-13.672757 23.80073,0 42.79067,2.785191 19.24314,2.531992 35.44789,6.836379 16.96435,4.810785 30.63711,10.887566 13.92595,5.823582 24.30712,10.887567 v 91.404922 h -11.14076 q -7.08958,-6.07679 -17.97715,-14.43236 -10.63437,-8.35557 -24.30712,-16.45795 -13.92596,-8.10237 -30.13071,-13.67276 -16.20475,-5.57038 -34.68829,-5.57038 -20.50914,0 -38.99268,6.58318 -18.48355,6.32998 -34.1819,21.26873 -14.93875,14.43236 -24.30712,38.23309 -9.11518,23.80072 -9.11518,57.72942 0,35.44789 9.87477,59.24862 10.12797,23.80072 25.31993,37.47348 15.44515,13.92596 34.43509,20.00274 18.98994,5.82358 37.47348,5.82358 17.72395,0 34.9415,-5.31718 17.47074,-5.31719 32.1563,-14.43236 12.40676,-7.34278 23.04113,-15.69835 10.63436,-8.35557 17.47074,-14.43235 h 10.12797 v 90.13892 q -14.17916,6.32998 -27.09232,11.90036 -12.91316,5.57038 -27.09231,9.62157 -18.48355,5.31718 -34.6883,8.10238 -16.20475,2.78519 -44.56306,2.78519 z" />
    </g>
    <g
       transform="translate(-16,10)"
       style="font-style:normal;font-weight:normal;font-size:266.667px;line-height:1.25;font-family:sans-serif;fill:#000000;fill-opacity:1;stroke:none"
       id="text28"
       aria-label="2">
      <path
         id="path30"
         style="font-style:normal;font-variant:normal;font-weight:bold;font-stretch:normal;font-size:266.667px;font-family:sans-serif;-inkscape-font-specification:'sans-serif Bold'"
         d="M 602.84774,207.91443 H 450.63401 v -32.03129 q 17.44794,-12.63022 34.89588,-26.82295 17.57814,-14.19273 28.12503,-24.4792 15.75523,-15.23439 22.39586,-26.562529 6.64064,-11.328139 6.64064,-22.39586 0,-13.281267 -8.59376,-20.442734 -8.46356,-7.291675 -24.4792,-7.291675 -11.97918,0 -25.26045,4.947922 -13.15106,4.947923 -24.4792,12.630224 h -4.16667 V 22.367327 q 9.24481,-4.036463 27.21358,-8.072926 18.09898,-4.036464 36.19796,-4.036464 36.45838,0 55.59902,15.364603 19.14065,15.234393 19.14065,43.229219 0,18.359397 -9.2448,34.895871 -9.11459,16.53648 -27.99483,34.11463 -11.84897,10.93751 -23.82815,20.18232 -11.97918,9.11459 -17.05731,12.76043 h 87.10948 z" />
    </g>
    <g
       aria-label="C"
       transform="matrix(0.92407939,0,0,1.0821581,-28,-6)"
       id="g50"
       style="font-style:normal;font-weight:normal;font-size:518.552px;line-height:1.25;font-family:sans-serif;fill:#ffcc00;fill-opacity:1;stroke:none;stroke-width:0.777828">
      <path
         d="m 311.21334,456.22486 q -42.03107,0 -77.73216,-12.40676 -35.44789,-12.40677 -61.02101,-36.96709 -25.57312,-24.56032 -39.75228,-61.27421 -13.92595,-36.71389 -13.92595,-84.82174 0,-44.81626 13.41955,-81.27695 13.41956,-36.46069 38.99268,-62.54021 24.56033,-25.06672 60.76782,-38.739478 36.46068,-13.672757 79.50455,-13.672757 23.80073,0 42.79067,2.785191 19.24314,2.531992 35.44789,6.836379 16.96435,4.810785 30.63711,10.887566 13.92595,5.823582 24.30712,10.887567 v 91.404922 h -11.14076 q -7.08958,-6.07679 -17.97715,-14.43236 -10.63437,-8.35557 -24.30712,-16.45795 -13.92596,-8.10237 -30.13071,-13.67276 -16.20475,-5.57038 -34.68829,-5.57038 -20.50914,0 -38.99268,6.58318 -18.48355,6.32998 -34.1819,21.26873 -14.93875,14.43236 -24.30712,38.23309 -9.11518,23.80072 -9.11518,57.72942 0,35.44789 9.87477,59.24862 10.12797,23.80072 25.31993,37.47348 15.44515,13.92596 34.43509,20.00274 18.98994,5.82358 37.47348,5.82358 17.72395,0 34.9415,-5.31718 17.47074,-5.31719 32.1563,-14.43236 12.40676,-7.34278 23.04113,-15.69835 10.63436,-8.35557 17.47074,-14.43235 h 10.12797 v 90.13892 q -14.17916,6.32998 -27.09232,11.90036 -12.91316,5.57038 -27.09231,9.62157 -18.48355,5.31718 -34.6883,8.10238 -16.20475,2.78519 -44.56306,2.78519 z"
         style="font-style:normal;font-variant:normal;font-weight:bold;font-stretch:normal;font-size:518.552px;font-family:sans-serif;-inkscape-font-specification:'sans-serif Bold';fill:#ffcc00;stroke-width:0.777828"
         id="path48" />
    </g>
    <g
       transform="translate(-28,-6)"
       aria-label="2"
       id="g54"
       style="font-style:normal;font-weight:normal;font-size:266.667px;line-height:1.25;font-family:sans-serif;fill:#ffcc00;fill-opacity:1;stroke:none">
      <path
         d="M 602.84774,207.91443 H 450.63401 v -32.03129 q 17.44794,-12.63022 34.89588,-26.82295 17.57814,-14.19273 28.12503,-24.4792 15.75523,-15.23439 22.39586,-26.562529 6.64064,-11.328139 6.64064,-22.39586 0,-13.281267 -8.59376,-20.442734 -8.46356,-7.291675 -24.4792,-7.291675 -11.97918,0 -25.26045,4.947922 -13.15106,4.947923 -24.4792,12.630224 h -4.16667 V 22.367327 q 9.24481,-4.036463 27.21358,-8.072926 18.09898,-4.036464 36.19796,-4.036464 36.45838,0 55.59902,15.364603 19.14065,15.234393 19.14065,43.229219 0,18.359397 -9.2448,34.895871 -9.11459,16.53648 -27.99483,34.11463 -11.84897,10.93751 -23.82815,20.18232 -11.97918,9.11459 -17.05731,12.76043 h 87.10948 z"
         style="font-style:normal;font-variant:normal;font-weight:bold;font-stretch:normal;font-size:266.667px;font-family:sans-serif;-inkscape-font-specification:'sans-serif Bold';fill:#ffcc00"
         id="path52" />
    </g>
  </g>
</svg>
