<?xml version="1.0" encoding="utf-8"?>
<!-- Generator: Adobe Illustrator 24.0.2, SVG Export Plug-In . SVG Version: 6.00 Build 0)  -->
<svg version="1.1"
	 id="svg833" xmlns:cc="http://creativecommons.org/ns#" xmlns:dc="http://purl.org/dc/elements/1.1/" xmlns:inkscape="http://www.inkscape.org/namespaces/inkscape" xmlns:rdf="http://www.w3.org/1999/02/22-rdf-syntax-ns#" xmlns:sodipodi="http://sodipodi.sourceforge.net/DTD/sodipodi-0.dtd" xmlns:svg="http://www.w3.org/2000/svg"
	 xmlns="http://www.w3.org/2000/svg" xmlns:xlink="http://www.w3.org/1999/xlink" x="0px" y="0px" viewBox="0 0 150 150"
	 style="enable-background:new 0 0 150 150;" xml:space="preserve">
<style type="text/css">
	.st0{fill:#F9BB49;}
	.st1{fill:#FF7966;}
	.st2{fill:#FDD258;}
	.st3{fill:#A8B2BE;}
	.st4{fill:#BB773B;}
	.st5{fill:#2FD8F8;}
	.st6{fill:#FFFFFF;}
	.st7{fill:#A8E071;}
</style>
<sodipodi:namedview  bordercolor="#666666" borderopacity="1" gridtolerance="10" guidetolerance="10" id="namedview835" inkscape:current-layer="layer1" inkscape:cx="117.10526" inkscape:cy="138.68421" inkscape:document-rotation="0" inkscape:guide-bbox="true" inkscape:pageopacity="0" inkscape:pageshadow="2" inkscape:window-height="706" inkscape:window-maximized="0" inkscape:window-width="1279" inkscape:window-x="0" inkscape:window-y="23" inkscape:zoom="1.6326744" objecttolerance="10" pagecolor="#ffffff" showgrid="false" showguides="true">
	<sodipodi:guide  id="guide1003" orientation="0,-1" position="216.33554,137.88079"></sodipodi:guide>
</sodipodi:namedview>
<g id="Ht5zjK.tif">
	<g>
		<path d="M0,74.8C0,51,0,27.1,0.1,3.3C0.1,0.5,0.5,0,3.3,0C29.1,0,55,0,80.9,0c2,0,3.4,0.6,4.7,2c12.1,13.2,24.4,26.4,36.5,39.6
			c0.6,0.6,0.8,1.7,0.8,2.6c0,13,0,26,0,39c0,20.8,0,41.6,0,62.5c0,3.6-0.3,3.9-3.8,3.9c-38.6,0-77.1,0-115.7,0
			c-2.8,0-3.3-0.5-3.3-3.3C0,122.5,0,98.6,0,74.8L0,74.8z M118.3,45.6c-0.7,0-1.3,0-1.9,0c-10.9,0-21.8,0-32.7,0
			c-2.6,0-3.2-0.6-3.2-3.2c0-11.8,0-23.7,0-35.5c0-0.7,0-1.5,0-2.2c-25.4,0-50.6,0-75.8,0c0,46.8,0,93.6,0,140.3
			c37.9,0,75.7,0,113.6,0C118.3,111.8,118.3,78.8,118.3,45.6z M115.4,41C105.2,30,95.3,19.3,85.2,8.3c0,11.1,0,21.9,0,32.7
			C95.2,41,105.1,41,115.4,41z"/>
		<path d="M149.6,87.3c0,10.4,0,20.8,0,31.2c0,1-0.1,2-0.4,2.9c-2.6,8.6-5.2,17.1-7.8,25.7c-0.4,1.2-0.9,2.3-2.3,2.5
			c-1.4,0.2-2.2-0.5-2.8-2.2c-2.4-7.9-4.8-15.7-7.2-23.5c-0.9-2.7-1.2-5.4-1.2-8.3c0.1-19.9,0-39.8,0-59.8c0-5.5,4.1-10.2,9.4-10.9
			c5.8-0.7,10.8,2.7,12.1,8.3c0.3,1.1,0.3,2.2,0.3,3.3C149.6,66.8,149.6,77,149.6,87.3L149.6,87.3z M132.7,116.9c4.2,0,8.2,0,12.3,0
			c0-12.9,0-25.8,0-38.6c-4.2,0-8.2,0-12.3,0C132.7,91.2,132.7,104,132.7,116.9z M145.1,63.6c0-2.8,0.1-5.5,0-8.1
			c-0.1-3.2-2.6-5.7-5.6-6c-3.3-0.2-6.2,1.8-6.6,5c-0.3,3-0.1,6-0.1,9.1C136.9,63.6,140.9,63.6,145.1,63.6z M133.3,121.6
			c1.8,6,3.6,11.8,5.4,18.1c2-6.3,3.8-12.2,5.6-18.1C140.7,121.6,137.1,121.6,133.3,121.6z M145,73.6c0-1.8,0-3.5,0-5.2
			c-4.2,0-8.2,0-12.3,0c0,1.8,0,3.5,0,5.2C136.8,73.6,140.8,73.6,145,73.6z"/>
		<path class="st0" d="M118.3,45.6c0,33.2,0,66.2,0,99.4c-37.8,0-75.6,0-113.6,0c0-46.7,0-93.4,0-140.3c25.2,0,50.4,0,75.8,0
			c0,0.8,0,1.5,0,2.2c0,11.8,0,23.7,0,35.5c0,2.6,0.6,3.2,3.2,3.2c10.9,0,21.8,0,32.7,0C117,45.6,117.6,45.6,118.3,45.6z
			 M28.9,117.2c-0.3,0-0.6,0.1-0.8,0.1c-7.2,0.4-12.9,5.2-14.1,12.3c-0.5,3.2-0.3,6.5-0.3,9.8c0,1.2,0.9,1.8,2,1.9
			c0.9,0.1,1.9,0,2.9,0c12.7,0,25.4,0,38.1,0c2.4,0,3-0.6,3-3c0-2,0-3.9,0-5.9c-0.2-7.3-4.8-13.1-11.7-14.9c-1-0.3-2.1-0.4-3.4-0.6
			c4.6-3.7,6.8-8.3,5.5-14.1c-1.3-5.8-5.3-9.1-10.9-10.6c0-1.6,0-3.1,0-4.6c15.1,0,30.1,0,45.2,0c0,1.6,0,3.1,0,4.6
			c-5.6,1.4-9.6,4.7-10.9,10.4c-1.3,5.8,0.9,10.5,5.5,14.3c-0.5,0-0.8,0.1-1.1,0.1c-7,0.6-12.8,5.6-14,12.5
			c-0.5,2.9-0.3,5.9-0.3,8.9c0,2.3,0.7,2.9,3,2.9c5.2,0,10.4,0,15.7,0c8.1,0,16.3,0,24.4,0c2.3,0,3-0.7,3-2.9c0-2.1,0-4.1,0-6.2
			c-0.1-7.1-4.9-13-11.8-14.7c-1-0.3-2.1-0.4-3.2-0.6c10.2-8.2,5.8-22.2-5.4-24.7c0-1.5,0-3,0-4.6c5.9,0,11.7,0,17.4,0
			c2.4,0,3-0.6,3-3c0-8.1,0-16.2,0-24.2c0-2.6-0.8-3.3-3.4-3.3c-6.4,0-12.8,0-19.3,0c-0.5,0-1.1,0-1.7,0c0.1-0.3,0.1-0.4,0.2-0.5
			c0.9-0.9,1.8-1.9,2.7-2.8c1.2-1.3,1.4-2.6,0.3-3.5c-1-0.9-2.2-0.8-3.4,0.3c-2.4,2.3-4.7,4.5-7,6.8c-1.4,1.4-1.5,2.5-0.1,3.9
			c2.4,2.3,4.7,4.6,7.1,6.9c1.2,1.1,2.5,1.2,3.4,0.2s0.8-2.2-0.3-3.4c-1-1-2-2-3.1-3.2c6.7,0,13.2,0,19.6,0c0,7.3,0,14.4,0,21.7
			c-0.7,0-1.3,0-1.9,0c-21.7,0-43.3,0-65,0c-2.7,0-3.2,0.5-3.2,3.3c0,2,0,4,0,5.9C23.7,94.5,18.2,108.8,28.9,117.2z M18.4,56.5
			c-1.1,1.4-2.3,2.9-3.5,4.6c-1,1.3-0.9,2.2,0.3,3.3c1.6,1.6,3.3,3.3,4.9,4.9c1,1,2.1,1.1,3.2,0.2c1.4-1,2.7-2.1,4.1-3.1
			c0.4-0.3,1.1-0.3,1.5-0.2c1.8,0.7,3.6,1.5,5.4,2.2c0.8,0.3,1.1,0.7,1.2,1.5c0.2,1.6,0.4,3.3,0.7,4.9c0.3,1.7,1.1,2.3,2.7,2.4
			c2.2,0,4.4,0,6.6,0c1.7,0,2.4-0.7,2.7-2.4c0.3-1.6,0.4-3.3,0.7-4.9c0.1-0.5,0.6-1.1,1.1-1.3c1.8-0.8,3.7-1.6,5.5-2.3
			c0.4-0.2,1.1-0.1,1.4,0.1c1.2,0.8,2.3,1.8,3.5,2.6c2,1.6,2.9,1.5,4.7-0.3c1.2-1.2,2.5-2.5,3.7-3.7c1.4-1.4,1.5-2.5,0.3-4.1
			c-1-1.3-2-2.5-2.9-3.8c-0.3-0.4-0.4-1.2-0.2-1.7c0.6-1.8,1.5-3.5,2.1-5.3c0.3-0.9,0.7-1.2,1.5-1.3c1.6-0.2,3.2-0.4,4.8-0.7
			c1.9-0.3,2.5-1,2.5-3s0-4,0-6c0-1.9-0.7-2.6-2.6-2.9c-1.6-0.3-3.3-0.4-4.9-0.8c-0.5-0.1-1-0.6-1.2-1c-0.8-1.8-1.6-3.7-2.3-5.5
			c-0.2-0.4-0.1-1.1,0.1-1.4c0.9-1.4,2-2.6,3-4c1-1.3,1-2.6-0.2-3.8c-1.6-1.6-3.2-3.2-4.8-4.8c-1-1-2.2-1.1-3.4-0.2
			c-1.3,1-2.6,2.1-3.9,3c-0.4,0.3-1.1,0.3-1.6,0.2c-1.9-0.7-3.7-1.4-5.6-2.2c-0.4-0.2-0.9-0.7-1-1.2c-0.3-1.7-0.5-3.4-0.8-5
			c-0.3-1.7-1-2.3-2.7-2.4c-2.2,0-4.3,0-6.5,0c-1.6,0-2.4,0.7-2.6,2.3c-0.3,1.7-0.4,3.4-0.8,5c-0.1,0.5-0.6,1.1-1.1,1.3
			c-1.8,0.8-3.6,1.5-5.4,2.2c-0.5,0.2-1.3,0.1-1.7-0.2c-1.3-0.9-2.5-1.9-3.8-2.9c-1.4-1-2.2-1-3.4,0.2c-1.6,1.5-3.2,3-4.8,4.6
			c-1.5,1.5-1.6,2.3-0.2,4c0.9,1.2,1.9,2.3,2.7,3.6c0.3,0.4,0.4,1.1,0.2,1.6c-0.7,1.9-1.4,3.7-2.2,5.6c-0.2,0.5-0.8,1-1.3,1.1
			c-1.6,0.4-3.2,0.6-4.9,1C7.8,36.8,7,37.6,7,39.1c0,2.3,0,4.5,0,6.8c0,1.7,0.7,2.4,2.4,2.7c1.6,0.3,3.3,0.4,4.9,0.7
			c0.4,0.1,1,0.5,1.2,0.8C16.7,52,17.5,54.2,18.4,56.5z"/>
		<path class="st1" d="M115.4,41c-10.3,0-20.2,0-30.2,0c0-10.8,0-21.6,0-32.7C95.3,19.3,105.2,30,115.4,41z"/>
		<path class="st2" d="M132.7,116.9c0-12.9,0-25.7,0-38.6c4.1,0,8.1,0,12.3,0c0,12.8,0,25.7,0,38.6
			C140.9,116.9,136.9,116.9,132.7,116.9z"/>
		<path class="st1" d="M145.1,63.6c-4.2,0-8.2,0-12.3,0c0-3-0.3-6.1,0.1-9.1c0.4-3.3,3.3-5.3,6.6-5c3.1,0.2,5.5,2.8,5.6,6
			C145.1,58.2,145.1,60.9,145.1,63.6z"/>
		<path class="st3" d="M133.3,121.6c3.8,0,7.3,0,11.1,0c-1.9,5.9-3.7,11.8-5.6,18.1C136.9,133.4,135.1,127.6,133.3,121.6z"/>
		<path class="st3" d="M145,73.6c-4.2,0-8.2,0-12.3,0c0-1.8,0-3.4,0-5.2c4.1,0,8.1,0,12.3,0C145,70.1,145,71.8,145,73.6z"/>
		<path d="M28.9,117.2c-10.6-8.4-5.2-22.7,5.6-24.7c0-2,0-4,0-5.9c0-2.8,0.5-3.3,3.2-3.3c21.7,0,43.3,0,65,0c0.6,0,1.2,0,1.9,0
			c0-7.3,0-14.4,0-21.7c-6.4,0-12.9,0-19.6,0c1.1,1.2,2.1,2.2,3.1,3.2c1.2,1.2,1.3,2.5,0.3,3.4c-0.9,1-2.3,0.9-3.4-0.2
			c-2.4-2.3-4.8-4.6-7.1-6.9c-1.4-1.4-1.4-2.5,0.1-3.9c2.3-2.3,4.7-4.5,7-6.8c1.2-1.2,2.5-1.3,3.4-0.3c1,1,0.9,2.3-0.3,3.5
			c-0.9,0.9-1.8,1.9-2.7,2.8c-0.1,0.1-0.1,0.2-0.2,0.5c0.6,0,1.1,0,1.7,0c6.4,0,12.8,0,19.3,0c2.7,0,3.4,0.7,3.4,3.3
			c0,8.1,0,16.2,0,24.2c0,2.4-0.6,3-3,3c-5.8,0-11.5,0-17.4,0c0,1.6,0,3.1,0,4.6c11.2,2.5,15.6,16.5,5.4,24.7
			c1.1,0.2,2.2,0.3,3.2,0.6c6.9,1.7,11.6,7.7,11.8,14.7c0,2.1,0,4.1,0,6.2c0,2.3-0.7,2.9-3,2.9c-8.1,0-16.3,0-24.4,0
			c-5.2,0-10.4,0-15.7,0c-2.3,0-3-0.7-3-2.9c0-3-0.1-6,0.3-8.9c1.2-6.9,7-11.9,14-12.5c0.3,0,0.6,0,1.1-0.1
			c-4.7-3.8-6.9-8.5-5.5-14.3c1.3-5.7,5.3-9,10.9-10.4c0-1.5,0-3,0-4.6c-15.1,0-30.1,0-45.2,0c0,1.5,0,3,0,4.6
			c5.6,1.4,9.6,4.8,10.9,10.6c1.3,5.8-0.9,10.4-5.5,14.1c1.2,0.2,2.3,0.3,3.4,0.6c6.9,1.8,11.6,7.6,11.7,14.9c0,2,0,3.9,0,5.9
			c0,2.4-0.6,3-3,3c-12.7,0-25.4,0-38.1,0c-1,0-1.9,0-2.9,0c-1.1-0.1-2-0.7-2-1.9c0-3.3-0.3-6.6,0.3-9.8c1.2-7.2,6.8-11.9,14.1-12.3
			C28.3,117.2,28.5,117.2,28.9,117.2z M104.7,136.7c0-1.7,0.1-3.2,0-4.8c-0.3-5.7-4.9-10.3-10.6-10.3c-5.2-0.1-10.4-0.1-15.6,0
			c-3.3,0-6.1,1.5-8.2,4.1c-2.7,3.3-2.5,7.1-2.3,11.1C80.2,136.7,92.3,136.7,104.7,136.7z M55.1,136.7c0-1.8,0.1-3.4,0-5
			c-0.4-5.6-5.1-10.1-10.8-10.1c-5.1,0-10.2-0.1-15.3,0c-3.8,0.1-6.7,1.7-8.9,4.8c-2.2,3.1-1.9,6.7-1.8,10.3
			C30.6,136.7,42.7,136.7,55.1,136.7z M86.2,114.9c5,0.1,9.1-3.9,9.2-8.9c0.1-4.9-3.9-9.1-8.8-9.2c-5.1-0.1-9.3,4-9.3,9
			C77.3,110.8,81.3,114.9,86.2,114.9z M36.7,114.9c5.1,0,9.1-3.9,9.2-9c0.1-4.9-4.1-9.1-9.1-9.1s-9.1,4.1-9.1,9.1
			C27.7,110.9,31.7,114.9,36.7,114.9z"/>
		<path d="M18.4,56.5c-0.9-2.3-1.7-4.5-2.6-6.6c-0.2-0.4-0.7-0.8-1.2-0.8c-1.6-0.3-3.3-0.5-4.9-0.7c-1.7-0.3-2.4-1-2.4-2.7
			c0-2.3,0-4.5,0-6.8c0-1.5,0.8-2.3,2.2-2.6c1.6-0.3,3.3-0.5,4.9-1c0.5-0.1,1.1-0.6,1.3-1.1c0.8-1.8,1.6-3.7,2.2-5.6
			c0.2-0.4,0.1-1.2-0.2-1.6c-0.8-1.2-1.8-2.4-2.7-3.6c-1.3-1.7-1.3-2.5,0.2-4c1.6-1.5,3.2-3.1,4.8-4.6c1.2-1.2,2-1.2,3.4-0.2
			c1.3,1,2.5,2,3.8,2.9c0.4,0.3,1.2,0.4,1.7,0.2c1.8-0.6,3.6-1.4,5.4-2.2c0.5-0.2,1-0.8,1.1-1.3c0.4-1.7,0.5-3.4,0.8-5
			s1-2.3,2.6-2.3c2.2,0,4.3,0,6.5,0c1.7,0,2.4,0.6,2.7,2.4c0.3,1.7,0.5,3.4,0.8,5c0.1,0.5,0.6,1,1,1.2c1.8,0.8,3.7,1.6,5.6,2.2
			c0.5,0.2,1.2,0.1,1.6-0.2c1.4-0.9,2.6-2,3.9-3c1.2-0.9,2.3-0.8,3.4,0.2c1.6,1.6,3.2,3.2,4.8,4.8c1.1,1.2,1.2,2.5,0.2,3.8
			s-2.1,2.6-3,4c-0.2,0.3-0.3,1-0.1,1.4c0.7,1.9,1.5,3.7,2.3,5.5c0.2,0.4,0.7,0.9,1.2,1c1.6,0.3,3.3,0.5,4.9,0.8
			c1.9,0.3,2.5,1,2.6,2.9c0,2,0,4,0,6c0,1.9-0.6,2.6-2.5,3c-1.6,0.3-3.2,0.5-4.8,0.7c-0.9,0.1-1.2,0.4-1.5,1.3
			c-0.6,1.8-1.5,3.5-2.1,5.3c-0.2,0.5-0.1,1.2,0.2,1.7c0.9,1.3,2,2.5,2.9,3.8c1.2,1.6,1.1,2.7-0.3,4.1c-1.2,1.2-2.5,2.5-3.7,3.7
			c-1.8,1.8-2.7,1.8-4.7,0.3c-1.2-0.9-2.3-1.8-3.5-2.6c-0.4-0.2-1-0.3-1.4-0.1c-1.9,0.7-3.7,1.4-5.5,2.3c-0.5,0.2-1,0.8-1.1,1.3
			c-0.3,1.6-0.5,3.3-0.7,4.9c-0.3,1.7-1,2.4-2.7,2.4c-2.2,0-4.4,0-6.6,0c-1.7,0-2.5-0.7-2.7-2.4c-0.3-1.6-0.5-3.3-0.7-4.9
			c-0.1-0.8-0.4-1.2-1.2-1.5c-1.8-0.6-3.6-1.5-5.4-2.2c-0.4-0.2-1.2-0.1-1.5,0.2c-1.4,1-2.7,2.1-4.1,3.1c-1.1,0.9-2.2,0.8-3.2-0.2
			c-1.6-1.6-3.3-3.3-4.9-4.9c-1.1-1.2-1.2-2-0.3-3.3C16.1,59.5,17.4,57.9,18.4,56.5z M64.5,62.2c-1-1.3-2-2.7-3.1-4.1
			c-0.9-1.1-0.8-2.2-0.2-3.5c1.2-2.6,2.4-5.3,3.4-8c0.5-1.4,1.3-2.1,2.7-2.2c1.7-0.2,3.5-0.4,5.3-0.7c0-0.7-0.1-1.3,0-1.9
			c0.2-1.2-0.3-1.7-1.6-1.7c-1.2,0-2.4-0.3-3.6-0.4c-1.5-0.1-2.2-1-2.7-2.4c-1-2.7-2.1-5.4-3.4-8c-0.6-1.2-0.7-2.2,0.2-3.3
			c1.2-1.4,2.2-2.9,3.2-4.2c-0.9-1-1.6-1.8-2.3-2.7c-1.5,1.1-2.8,2.1-4.2,3.2c-1.2,1-2.4,0.9-3.7,0.2c-2.5-1.2-5.1-2.3-7.7-3.2
			c-1.4-0.5-2.2-1.3-2.3-2.8c-0.2-1.7-0.4-3.5-0.6-5.2c-1.2,0-2.2,0-3.4,0c-0.2,1.8-0.4,3.6-0.6,5.3c-0.2,1.6-1,2.2-2.5,2.8
			c-2.7,0.9-5.3,2.1-7.8,3.4c-1.3,0.6-2.2,0.7-3.3-0.2c-1.3-1.1-2.7-2.2-4.1-3.3c-0.8,0.8-1.6,1.6-2.5,2.5c1,1.4,2,2.7,3,4
			c1.1,1.5,1.1,2.4,0.2,4.1c-1.1,2.3-2.2,4.7-3,7.2c-0.7,2.2-1,2.5-3.3,2.8c-1.7,0.2-3.4,0.4-5.1,0.6c0,1.2,0,2.2,0,3.3
			c1.7,0.2,3.4,0.5,5.1,0.6s2.4,1,3,2.6c0.9,2.6,2,5.2,3.3,7.7c0.7,1.3,0.7,2.3-0.2,3.4c-1.1,1.3-2.2,2.7-3.2,4
			c0.9,0.9,1.6,1.7,2.5,2.5c1.3-1,2.6-1.9,3.8-2.9c1.7-1.3,2.4-1.3,4.4-0.2c1.6,0.9,3.3,2,5,2.3c3.7,0.6,5,2.6,5.1,6.1
			c0.1,2.9,0.3,2.9,3.3,2.6c0.1,0,0.2-0.1,0.3-0.2c0.3-1.7,0.6-3.4,0.9-5.1c0.2-1.3,0.8-2.1,2.1-2.4c3-0.7,5.8-1.8,8.4-3.6
			c1-0.7,1.9-0.6,2.9,0.2c1.3,1.2,2.7,2.3,4.1,3.4C62.9,64,63.6,63.1,64.5,62.2z"/>
		<path class="st4" d="M104.7,136.7c-12.4,0-24.5,0-36.8,0c-0.2-3.9-0.4-7.8,2.3-11.1c2.1-2.6,4.9-4,8.2-4.1
			c5.2-0.1,10.4-0.1,15.6,0c5.8,0.1,10.4,4.6,10.6,10.3C104.8,133.4,104.7,135,104.7,136.7z"/>
		<path class="st5" d="M55.1,136.7c-12.3,0-24.5,0-36.8,0c-0.1-3.6-0.5-7.2,1.8-10.3c2.2-3.1,5.1-4.7,8.9-4.8
			c5.1-0.1,10.2-0.1,15.3,0c5.7,0.1,10.4,4.5,10.8,10.1C55.2,133.3,55.1,134.9,55.1,136.7z"/>
		<path class="st6" d="M86.2,114.9c-5-0.1-9-4.2-8.9-9.1c0.1-5.1,4.3-9.1,9.3-9c4.9,0.1,8.9,4.3,8.8,9.2
			C95.4,111,91.3,115,86.2,114.9z"/>
		<path class="st6" d="M36.7,114.9c-4.9,0-8.9-4-9-9c0-5,4.1-9.1,9.1-9.1s9.1,4.2,9.1,9.1C45.8,111,41.7,114.9,36.7,114.9z"/>
		<path class="st7" d="M64.5,62.2c-0.9,1-1.6,1.8-2.4,2.6c-1.4-1.2-2.8-2.3-4.1-3.4c-0.9-0.8-1.9-0.9-2.9-0.2
			c-2.5,1.8-5.4,2.9-8.4,3.6c-1.3,0.3-1.9,1.1-2.1,2.4c-0.3,1.7-0.6,3.4-0.9,5.1c-0.2,0.1-0.2,0.2-0.3,0.2c-3,0.3-3.2,0.3-3.3-2.6
			c-0.1-3.5-1.4-5.5-5.1-6.1c-1.7-0.3-3.4-1.4-5-2.3c-1.9-1.1-2.6-1.1-4.4,0.2c-1.3,1-2.5,1.9-3.8,2.9c-0.8-0.8-1.6-1.6-2.5-2.5
			c1-1.3,2.1-2.7,3.2-4c1-1.1,0.9-2.1,0.2-3.4c-1.3-2.5-2.4-5-3.3-7.7c-0.5-1.6-1.3-2.5-3-2.6S13,44,11.3,43.8c0-1.1,0-2.2,0-3.3
			c1.7-0.2,3.4-0.4,5.1-0.6c2.3-0.3,2.5-0.6,3.3-2.8c0.8-2.4,1.9-4.8,3-7.2c0.8-1.7,0.9-2.6-0.2-4.1c-1-1.3-2-2.6-3-4
			c0.9-0.9,1.6-1.6,2.5-2.5c1.4,1.1,2.8,2.2,4.1,3.3c1.1,0.9,2,0.9,3.3,0.2c2.5-1.3,5.1-2.4,7.8-3.4c1.5-0.5,2.3-1.2,2.5-2.8
			c0.2-1.7,0.4-3.5,0.6-5.3c1.2,0,2.2,0,3.4,0c0.2,1.8,0.5,3.5,0.6,5.2c0.2,1.5,1,2.2,2.3,2.8c2.6,1,5.2,2,7.7,3.2
			c1.4,0.7,2.5,0.8,3.7-0.2c1.3-1.1,2.7-2.1,4.2-3.2c0.7,0.9,1.5,1.7,2.3,2.7c-1,1.3-2,2.8-3.2,4.2c-0.9,1.1-0.8,2-0.2,3.3
			c1.3,2.6,2.4,5.3,3.4,8c0.5,1.4,1.2,2.2,2.7,2.4c1.2,0.1,2.4,0.4,3.6,0.4s1.7,0.5,1.6,1.7c-0.1,0.6,0,1.2,0,1.9
			c-1.9,0.2-3.6,0.5-5.3,0.7c-1.4,0.2-2.2,0.9-2.7,2.2c-1,2.7-2.2,5.4-3.4,8c-0.6,1.3-0.7,2.4,0.2,3.5
			C62.4,59.5,63.5,60.9,64.5,62.2z M42.1,59.2c9.4,0,17.1-7.6,17.1-17c0-9.3-7.7-17-16.9-17c-9.3,0-17.1,7.7-17.1,17.1
			C25.2,51.5,32.8,59.2,42.1,59.2z"/>
		<path d="M42.1,59.2c-9.3,0-17-7.7-17-17s7.7-17,17.1-17.1c9.2,0,16.9,7.8,16.9,17C59.2,51.6,51.6,59.2,42.1,59.2z M42.1,54.7
			c6.9,0,12.5-5.7,12.5-12.6c0-6.8-5.6-12.4-12.5-12.4c-6.8,0-12.4,5.6-12.4,12.5C29.7,49.1,35.3,54.7,42.1,54.7z"/>
		<path class="st6" d="M42.1,54.7c-6.8,0-12.4-5.6-12.4-12.5c0-6.8,5.6-12.5,12.4-12.5c6.9,0,12.5,5.6,12.5,12.4
			C54.7,49,49,54.7,42.1,54.7z"/>
	</g>
</g>
</svg>
