<?xml version="1.0" encoding="utf-8"?>
<!-- Generator: Adobe Illustrator 24.0.2, SVG Export Plug-In . SVG Version: 6.00 Build 0)  -->
<svg version="1.1"
	 id="svg833" xmlns:cc="http://creativecommons.org/ns#" xmlns:dc="http://purl.org/dc/elements/1.1/" xmlns:inkscape="http://www.inkscape.org/namespaces/inkscape" xmlns:rdf="http://www.w3.org/1999/02/22-rdf-syntax-ns#" xmlns:sodipodi="http://sodipodi.sourceforge.net/DTD/sodipodi-0.dtd" xmlns:svg="http://www.w3.org/2000/svg"
	 xmlns="http://www.w3.org/2000/svg" xmlns:xlink="http://www.w3.org/1999/xlink" x="0px" y="0px" viewBox="0 0 150 150"
	 style="enable-background:new 0 0 150 150;" xml:space="preserve">
<style type="text/css">
	.st0{fill:#FFDF6F;}
	.st1{fill:#D4ECFF;}
	.st2{fill:#FFFFFF;}
	.st3{fill:#5B7982;}
	.st4{fill:#9ECCCC;}
</style>
<sodipodi:namedview  bordercolor="#666666" borderopacity="1" gridtolerance="10" guidetolerance="10" id="namedview835" inkscape:current-layer="layer1" inkscape:cx="117.10526" inkscape:cy="138.68421" inkscape:document-rotation="0" inkscape:guide-bbox="true" inkscape:pageopacity="0" inkscape:pageshadow="2" inkscape:window-height="706" inkscape:window-maximized="0" inkscape:window-width="1279" inkscape:window-x="0" inkscape:window-y="23" inkscape:zoom="1.6326744" objecttolerance="10" pagecolor="#ffffff" showgrid="false" showguides="true">
	<sodipodi:guide  id="guide1003" orientation="0,-1" position="216.33554,137.88079"></sodipodi:guide>
</sodipodi:namedview>
<g id="qZJaSm.tif">
	<g>
		<path d="M144.6,26.3c0,0.7,0,1.4,0,2.1c-2,2.4-3.9,4.8-6,7.4c0.9,1.6,1.8,3.4,2.8,5.3c0.5,1,1.2,2,1.6,3.1
			c0.6,1.9,1.1,3.8,1.6,5.7c0,19.7,0,39.5,0,59.2c-0.2,1-0.4,2-0.7,3c-2.4,9.2-10.5,15.4-20.4,15.4c-17.4,0-34.8,0-52.2,0
			c-0.8,0-1.7,0.3-2.3,0.8c-7.6,6.4-15.2,12.8-22.8,19.2c-1.1,1-2.5,1.7-3.7,2.5c-0.5,0-1.1,0-1.6,0c-2.9-1-3.9-3.1-3.8-6.1
			c0.2-5,0-10,0-15c0-0.5,0-0.9,0-1.5c-3.1,0-6.1,0-9,0c-9.6-0.1-17.6-6.2-20-15.3c-0.3-0.9-0.5-1.9-0.7-2.8c0-19.9,0-39.8,0-59.7
			c0.1-0.1,0.2-0.2,0.2-0.3c1-8.8,8.9-18,21.6-17.9c24.2,0.2,48.4,0,72.5,0.1c3.8,0,6.7-0.8,8.9-3.9c0,0,0.1-0.1,0.1-0.1
			c0.2-0.4,0.4-0.9,0.4-1.3c-0.1-1.4,0.3-2.6,1.3-3.7c0.8-0.8,1.6-1.6,2.5-2.5c2.6-2.6,4.1-2.8,7.5-0.8c0.6-0.7,1.2-1.4,1.9-2
			c1.6-1.4,3.3-2.8,5-4.1c0.7,0,1.4,0,2.1,0c1.1,0.9,2.4,1.7,3.4,2.7c2.4,2.3,4.8,4.7,7,7.1C143,23.9,143.8,25.2,144.6,26.3z
			 M41.8,145.3c0.5-0.4,0.9-0.7,1.2-0.9c7.6-6.4,15.2-12.8,22.8-19.3c1.8-1.6,3.7-2.2,6-2.2c17.3,0.1,34.5,0.1,51.8,0
			c8.7,0,15.5-5.9,16.4-14.5c0.3-3.4,0.1-6.9,0.1-10.3c0-15.2,0-30.4,0-45.5c0-3.4-0.8-6.5-2.9-9.6c-0.7,0.8-1.2,1.7-1.9,2.2
			c-1,0.6-2.2,1.2-3.4,1.3c-0.9,0.1-1.5,0.3-2,0.9c-13.6,13.6-27.1,27.2-40.7,40.7c-0.6,0.6-1.2,1.1-1.9,1.4
			c-7.1,2.8-14.2,5.6-21.3,8.4c-0.7,0.3-1.6,0.4-2.3,0.4c-3.2-0.4-4.8-3.3-3.6-6.5c2.7-7,5.5-14,8.3-21c0.3-0.7,0.8-1.4,1.4-1.9
			c10.5-10.5,21-21,31.5-31.5c0.3-0.3,0.6-0.7,1.2-1.2c-0.8,0-1.2,0-1.5,0c-24.1,0-48.2,0-72.3,0c-9,0-16.4,6.8-16.4,15.5
			c-0.1,18.7-0.1,37.3,0,56c0,7.9,6.5,14.7,14.3,15.3c3.4,0.3,6.8,0.1,10.2,0.2c3.5,0,5.2,1.8,5.2,5.2c0,1.4,0,2.8,0,4.2
			C41.8,136.5,41.8,140.8,41.8,145.3z M79,75.9c0.3-0.4,0.7-1,1.2-1.5C88,66.6,95.8,58.8,103.6,51c0.3-0.3,0.6-0.6,1-0.9
			c1-0.8,2.3-0.8,3.1,0.1c0.9,0.9,0.9,2.1,0,3.1c-0.3,0.3-0.6,0.6-0.9,1c-8,8-15.9,15.9-23.9,23.9c-0.3,0.3-0.8,0.5-1.1,0.7
			c1.8,1.9,3.4,3.5,4.9,4.9c13.3-13.3,26.8-26.7,40.1-40.1c-1.5-1.5-3.1-3.1-4.7-4.7c-2.4,2.4-4.8,4.8-7.2,7.2
			c-1.5,1.5-2.8,1.8-3.9,0.8c-1.1-1.1-0.9-2.4,0.7-4c2.4-2.4,4.9-4.8,7.2-7.1c-1.7-1.7-3.3-3.3-4.7-4.7
			c-13.3,13.3-26.7,26.7-40.1,40.1C75.6,72.6,77.2,74.2,79,75.9z M132.1,41.8c1-1,2-2,2.8-2.9c-5.3-5.3-10.7-10.7-15.8-15.8
			c-1,0.9-2,1.9-2.9,2.8C121.4,31.1,126.7,36.4,132.1,41.8z M135.2,32.1c1.6-1.6,3.1-3.2,4.5-4.6c-3.1-3.1-6.3-6.3-9.3-9.3
			c-1.5,1.5-3,3-4.6,4.5C128.9,25.8,132,28.9,135.2,32.1z M68.4,82.9c2.9,1.5,5.1,3.6,6.5,6.5c2.6-1,5.1-2,7.5-2.9
			c-3.7-3.7-7.3-7.4-11-11C70.4,77.9,69.4,80.4,68.4,82.9z M64.1,93.7c2.3-0.9,4.4-1.7,6.8-2.7c-1.5-1.4-2.7-2.6-4.1-4
			C65.8,89.4,65,91.4,64.1,93.7z"/>
		<path class="st0" d="M41.8,145.3c0-4.6,0-8.8,0-13.1c0-1.4,0-2.8,0-4.2c0-3.4-1.8-5.1-5.2-5.2c-3.4,0-6.8,0.1-10.2-0.2
			c-7.8-0.6-14.3-7.4-14.3-15.3c-0.1-18.7-0.1-37.3,0-56C12.2,42.8,19.5,36,28.5,36c24.1,0,48.2,0,72.3,0c0.4,0,0.8,0,1.5,0
			c-0.6,0.6-0.9,0.9-1.2,1.2c-10.5,10.5-21,21-31.5,31.5c-0.6,0.6-1.1,1.2-1.4,1.9c-2.8,7-5.6,14-8.3,21c-1.2,3.1,0.4,6.1,3.6,6.5
			c0.8,0.1,1.6-0.1,2.3-0.4c7.1-2.8,14.2-5.5,21.3-8.4c0.7-0.3,1.4-0.9,1.9-1.4c13.6-13.6,27.2-27.1,40.7-40.7
			c0.6-0.6,1.1-0.8,2-0.9c1.2-0.1,2.3-0.7,3.4-1.3c0.8-0.5,1.2-1.4,1.9-2.2c2.1,3.1,2.9,6.2,2.9,9.6c0,15.2,0,30.4,0,45.5
			c0,3.4,0.2,6.9-0.1,10.3c-0.9,8.6-7.6,14.5-16.4,14.5c-17.3,0-34.5,0-51.8,0c-2.4,0-4.2,0.7-6,2.2c-7.5,6.5-15.2,12.9-22.8,19.3
			C42.6,144.7,42.3,144.9,41.8,145.3z M16.6,51.5c0,1.6,0.8,2.6,2.1,2.7c1.2,0.1,2.2-0.8,2.4-2c0.7-4.8,2.3-6.4,7-7.1
			c1.5-0.2,2.3-1.2,2.1-2.5c-0.1-1.2-1.1-2-2.6-2C21.8,40.7,16.8,45.7,16.6,51.5z M124.6,118.3c6-0.3,10.8-5.1,10.9-11
			c0-1.5-0.8-2.6-2.2-2.7c-1.3-0.1-2.2,0.9-2.4,2.4c-0.4,4.1-2.5,6.2-6.8,6.8c-1.6,0.2-2.5,1.1-2.4,2.5
			C121.9,117.6,123,118.3,124.6,118.3z"/>
		<path class="st1" d="M79,75.9c-1.8-1.8-3.4-3.3-4.9-4.8c13.3-13.4,26.7-26.8,40.1-40.1c1.5,1.5,3,3,4.7,4.7
			c-2.3,2.3-4.7,4.7-7.2,7.1c-1.6,1.6-1.8,2.9-0.7,4c1.1,1,2.4,0.8,3.9-0.8c2.4-2.4,4.8-4.9,7.2-7.2c1.6,1.7,3.2,3.2,4.7,4.7
			c-13.4,13.3-26.8,26.7-40.1,40.1c-1.5-1.5-3-3.1-4.9-4.9c0.2-0.1,0.7-0.3,1.1-0.7c8-7.9,15.9-15.9,23.9-23.9
			c0.3-0.3,0.6-0.6,0.9-1c0.9-1,0.8-2.3,0-3.1c-0.9-0.9-2.1-0.9-3.1-0.1c-0.3,0.3-0.6,0.6-1,0.9C95.8,58.8,88,66.6,80.1,74.5
			C79.7,74.9,79.3,75.5,79,75.9z"/>
		<path class="st2" d="M132.1,41.8c-5.3-5.4-10.7-10.7-15.9-16c0.9-0.9,2-1.9,2.9-2.8c5.2,5.2,10.5,10.5,15.8,15.8
			C134.1,39.8,133,40.8,132.1,41.8z"/>
		<path class="st3" d="M135.2,32.1c-3.2-3.2-6.3-6.3-9.4-9.4c1.5-1.5,3.1-3.1,4.6-4.5c3,3,6.2,6.2,9.3,9.3
			C138.3,28.9,136.7,30.5,135.2,32.1z"/>
		<path class="st2" d="M68.4,82.9c1-2.6,2-5.1,2.9-7.5c3.7,3.7,7.3,7.3,11,11c-2.4,0.9-4.9,1.9-7.5,2.9
			C73.4,86.5,71.3,84.4,68.4,82.9z"/>
		<path class="st2" d="M64.1,93.7c0.9-2.3,1.7-4.3,2.6-6.7c1.4,1.4,2.7,2.6,4.1,4C68.5,91.9,66.5,92.7,64.1,93.7z"/>
		<path d="M16.6,51.5c0.2-5.9,5.2-10.8,11.1-10.9c1.4,0,2.4,0.7,2.6,2c0.2,1.4-0.6,2.3-2.1,2.5c-4.7,0.7-6.3,2.3-7,7.1
			c-0.2,1.3-1.2,2.1-2.4,2C17.4,54.2,16.6,53.1,16.6,51.5z"/>
		<path d="M124.6,118.3c-1.6,0.1-2.7-0.7-2.8-2c-0.1-1.4,0.7-2.3,2.4-2.5c4.2-0.6,6.4-2.7,6.8-6.8c0.1-1.5,1.1-2.4,2.4-2.4
			c1.3,0.1,2.2,1.1,2.2,2.7C135.4,113.1,130.6,118,124.6,118.3z"/>
	</g>
</g>
<path d="M33.5,72.6c-4,0-8,0-12,0c-1.6,0-2.6-0.8-2.6-2.1c0-1.3,0.9-2,2.6-2c8.1,0,16.1,0,24.2,0c1.6,0,2.6,0.8,2.6,2
	c0,1.3-0.9,2-2.6,2.1C41.6,72.6,37.6,72.6,33.5,72.6z"/>
<path d="M38.5,84.6c-4,0-8,0-12,0c-1.6,0-2.6-0.8-2.6-2.1c0-1.3,0.9-2,2.6-2c8.1,0,16.1,0,24.2,0c1.6,0,2.6,0.8,2.6,2
	c0,1.3-0.9,2-2.6,2.1C46.6,84.6,42.6,84.6,38.5,84.6z"/>
<path d="M58.6,68.5c1.9,0,3.7,0,5.6,0c1.4,0,2.3,0.8,2.3,2c0,1.2-0.9,2-2.3,2c-3.8,0-7.6,0-11.4,0c-1.4,0-2.3-0.8-2.3-2
	c0-1.2,0.9-2,2.3-2C54.7,68.5,56.6,68.5,58.6,68.5z"/>
<path d="M41.4,98.2c-4,0-8,0-12,0c-1.6,0-2.6-0.8-2.6-2.1c0-1.3,0.9-2,2.6-2c8.1,0,16.1,0,24.2,0c1.6,0,2.6,0.8,2.6,2
	c0,1.3-0.9,2-2.6,2.1C49.5,98.2,45.5,98.2,41.4,98.2z"/>
<path d="M119.4,83.5c-4,0-8,0-12,0c-1.6,0-2.6-0.8-2.6-2.1c0-1.3,0.9-2,2.6-2c8.1,0,16.1,0,24.2,0c1.6,0,2.6,0.8,2.6,2
	c0,1.3-0.9,2-2.6,2.1C127.5,83.5,123.5,83.5,119.4,83.5z"/>
<path d="M91.9,106.6c-4,0-8,0-12,0c-1.6,0-2.6-0.8-2.6-2.1c0-1.3,0.9-2,2.6-2c8.1,0,16.1,0,24.2,0c1.6,0,2.6,0.8,2.6,2
	c0,1.3-0.9,2-2.6,2.1C100,106.6,95.9,106.6,91.9,106.6z"/>
<circle cx="56.8" cy="26.3" r="24.9"/>
<circle class="st4" cx="56.6" cy="26.3" r="20.5"/>
<circle cx="56.9" cy="22.9" r="8.2"/>
<circle class="st2" cx="56.9" cy="23" r="4.9"/>
<path d="M74.2,42.5c0,2.7-7.4,5-16.6,5S41,45.2,41,42.5c0-2.7,8-7.9,17.1-7.9S74.2,39.8,74.2,42.5z"/>
</svg>
