<?xml version="1.0" encoding="utf-8"?>
<!-- Generator: Adobe Illustrator 24.0.2, SVG Export Plug-In . SVG Version: 6.00 Build 0)  -->
<svg version="1.1" id="e7d24159-a105-4c62-98a5-787fb4a09ca9"
	 xmlns="http://www.w3.org/2000/svg" xmlns:xlink="http://www.w3.org/1999/xlink" x="0px" y="0px" viewBox="0 0 900 500"
	 style="enable-background:new 0 0 900 500;" xml:space="preserve">
<style type="text/css">
	.st0{fill:#F4A28C;}
	.st1{fill:#E6E6E6;}
	.st2{fill:#F2BF8C;}
	.st3{fill:#FFD200;}
	.st4{fill:#9B6448;}
	.st5{fill:#EF5015;}
	.st6{opacity:0.46;fill:#FFFFFF;enable-background:new    ;}
	.st7{fill:#24285B;}
	.st8{fill:#FFFFFF;}
	.st9{opacity:8.000000e-02;enable-background:new    ;}
</style>
<title>personal_info</title>
<path class="st0" d="M309,441.1L265,203.5c0,0-38.3-82.7,8.5-126.6s35.5,84.4,65.2,83.3c29.8-1.1,39.7-49.1,53.9-22.2
	c14.2,26.9-45.4,65.6-45.4,65.6l70.9,240.6L309,441.1z"/>
<rect x="31.8" y="441.1" class="st1" width="841.4" height="34.9"/>
<path class="st2" d="M100.5,441.1l-44-237.6c0,0-38.2-82.7,8.6-126.6s35.4,84.4,65.2,83.3s39.7-49.1,53.9-22.2
	c14.2,26.9-45.4,65.6-45.4,65.6l70.9,240.6L100.5,441.1z"/>
<polygon class="st3" points="289.1,441.1 260.8,266.8 381.2,255.9 435.1,441.1 "/>
<path class="st4" d="M515,441.1l-38.9-276.4c0,0-28.1-21.5-32.1-46.8c-1.2-8.1,4.3-15.6,12.4-16.9c3.7-0.6,7.5,0.3,10.6,2.4
	c11.1,7.5,25,12.4,31.8-4c12.3-29.3-10.5-69,25.5-73.7s71.9,78.4,9.5,131.3l70.9,283.9H515z"/>
<polygon class="st5" points="493.2,441.1 477.2,320.7 590.6,315 621.8,441.1 "/>
<polygon class="st5" points="485.5,320.3 477.2,264.9 558.5,255.9 573.5,315.9 "/>
<polygon class="st6" points="485.5,320.3 477.2,264.9 558.5,255.9 573.5,315.9 "/>
<rect x="52.3" y="215.3" transform="matrix(0.9883 -0.1526 0.1526 0.9883 -34.4142 18.4681)" class="st7" width="101.6" height="36.1"/>
<circle class="st8" cx="86.4" cy="233.6" r="24.5"/>
<path class="st0" d="M674.7,441.1L647.3,177c0,0-34-13.2-33.1-37.8c0.9-24.6,20.8-56.7,48.2-53.9c27.4,2.8,40.5,7.6,43.4-26.4
	s47.8-27.5,35.1,8.7c-4.8,13.6-14.7,61.3-20.3,89.6c-2.8,14.1-2.7,28.7,0.5,42.8l53.9,241H674.7z"/>
<path class="st9" d="M697.8,110.3c0,0,19.4,24.7-3.4,51.7c-22.8,27,11.1,279.2,11.1,279.2h-30.9L647.3,177L697.8,110.3z"/>
<path class="st0" d="M664.9,169.4c-8.4,8.3-21.3,10-31.4,4c-11.8-6.9-25-18-24.5-32.7c0.9-26.5,26.8-62.7,53.4-56.7
	c26.7,6,42.5,18.9,33.1,43.9C689.9,142.6,675.6,158.7,664.9,169.4z"/>
<polygon class="st3" points="665.2,441.1 653.6,367 769.2,362.3 787.1,441.1 "/>
</svg>
