<?xml version="1.0" encoding="utf-8"?>
<!-- Generator: Adobe Illustrator 24.0.2, SVG Export Plug-In . SVG Version: 6.00 Build 0)  -->
<svg version="1.1"
	 id="svg833" xmlns:cc="http://creativecommons.org/ns#" xmlns:dc="http://purl.org/dc/elements/1.1/" xmlns:inkscape="http://www.inkscape.org/namespaces/inkscape" xmlns:rdf="http://www.w3.org/1999/02/22-rdf-syntax-ns#" xmlns:sodipodi="http://sodipodi.sourceforge.net/DTD/sodipodi-0.dtd" xmlns:svg="http://www.w3.org/2000/svg"
	 xmlns="http://www.w3.org/2000/svg" xmlns:xlink="http://www.w3.org/1999/xlink" x="0px" y="0px" viewBox="0 0 150 150"
	 style="enable-background:new 0 0 150 150;" xml:space="preserve">
<style type="text/css">
	.st0{fill:#7E0D3E;}
	.st1{fill:#FFFFFF;stroke:#000000;stroke-width:1.3125;stroke-linecap:round;}
	.st2{opacity:0.77;fill:#7E0D3E;enable-background:new    ;}
	.st3{fill:none;stroke:#000000;stroke-width:1.3125;stroke-linecap:round;}
	.st4{fill:none;stroke:#000000;stroke-width:1.2637;stroke-linecap:round;}
	.st5{fill:#FFFFFF;}
	.st6{fill:#FFAAAA;stroke:#FFAAAA;stroke-width:1.3125;stroke-linecap:round;}
	.st7{fill:#FFAAAA;stroke:#FFAAAA;stroke-width:0.8617;stroke-linecap:round;}
	.st8{fill:#FFAAAA;stroke:#FFAAAA;stroke-width:0.9048;stroke-linecap:round;}
	.st9{fill:none;stroke:#0071A7;stroke-width:1.3126;stroke-linecap:round;}
	.st10{stroke:#000000;stroke-linecap:round;}
	.st11{fill:none;stroke:#000000;}
	.st12{fill:#FFAAAA;stroke:#000000;stroke-width:1.3125;stroke-linecap:round;}
</style>
<sodipodi:namedview  bordercolor="#666666" borderopacity="1" gridtolerance="10" guidetolerance="10" id="namedview835" inkscape:current-layer="layer1" inkscape:cx="117.10526" inkscape:cy="138.68421" inkscape:document-rotation="0" inkscape:guide-bbox="true" inkscape:pageopacity="0" inkscape:pageshadow="2" inkscape:window-height="706" inkscape:window-maximized="0" inkscape:window-width="1279" inkscape:window-x="0" inkscape:window-y="23" inkscape:zoom="1.6326744" objecttolerance="10" pagecolor="#ffffff" showgrid="false" showguides="true">
	<sodipodi:guide  id="guide1003" orientation="0,-1" position="216.33554,137.88079"></sodipodi:guide>
</sodipodi:namedview>
<g id="layer3" inkscape:groupmode="layer" inkscape:label="Image 3">
	<ellipse id="path1007" class="st0" cx="77.8" cy="101.8" rx="31.5" ry="32"/>
</g>
<g id="layer2" inkscape:groupmode="layer" inkscape:label="Image 2">
	<path id="path991" inkscape:connector-curvature="0" sodipodi:nodetypes="ccccccc" class="st1" d="M52,119.3l-0.2-49.8
		c0.2-1.5,0.1-5.2,5.1-5.1h37.8c5.3-0.1,8.4,2.2,8,8l0.1,48.1C86.8,139.3,64.4,136.2,52,119.3z"/>
	<ellipse id="path995" class="st2" cx="67" cy="89.3" rx="2.5" ry="2.9"/>
	<ellipse id="ellipse997" class="st2" cx="88.3" cy="89.3" rx="2.5" ry="2.9"/>
	<path id="path999" inkscape:connector-curvature="0" sodipodi:nodetypes="cc" class="st3" d="M64.1,84.7c2.7,1,3.3-0.4,4-1.6"/>
	<path id="path1001" inkscape:connector-curvature="0" sodipodi:nodetypes="cc" class="st4" d="M91.3,84.9c-2.4,1-3-0.4-3.7-1.7"/>
	<path id="path1005" inkscape:connector-curvature="0" sodipodi:nodetypes="cc" class="st4" d="M81.6,93.6c-2.9,3.3-7.6,1.3-8.5,0.2
		"/>
	<rect id="rect1011" x="60.2" y="104.4" class="st5" width="32.5" height="4.4"/>
	<rect id="rect1013" x="115.8" y="100.4" class="st5" width="15.9" height="5.5"/>
	<path id="path1017" inkscape:connector-curvature="0" sodipodi:nodetypes="ccccc" class="st6" d="M60.2,105.3h32.5
		c4,0.1,2.7,4.4,0,4.4H60.3C57.1,109.7,57.1,105.3,60.2,105.3z"/>
	<path id="path1019" inkscape:connector-curvature="0" sodipodi:nodetypes="ccccc" class="st7" d="M62.3,113.6h14
		c1.7,0.1,1.2,4.4,0,4.4h-14C61,118,61,113.7,62.3,113.6z"/>
	<path id="path1021" inkscape:connector-curvature="0" sodipodi:nodetypes="ccccc" class="st8" d="M75.1,121.9h15.5
		c1.9,0.1,1.3,4.4,0,4.4H75.2C73.6,126.3,73.6,122,75.1,121.9L75.1,121.9z"/>
</g>
<g id="layer1" inkscape:groupmode="layer" inkscape:label="Image 1">
	<path id="path848" inkscape:connector-curvature="0" sodipodi:nodetypes="cccc" class="st3" d="M39.2,32.2L28.7,32
		c-4.5,0.6-7.1-9.8,1.3-9.7c0.6-6.5,12.1-9.4,13.1,2.3"/>
	<path id="path850" inkscape:connector-curvature="0" sodipodi:nodetypes="ccc" class="st3" d="M41.6,27.4c-1.2-3,5.7-5.9,6.4,0
		l9.3,0.2"/>
	<path id="path852" inkscape:connector-curvature="0" sodipodi:nodetypes="cc" class="st3" d="M33.6,28.2c1.8-2.3,3.6-2.5,5.4,0.2"
		/>
	<path id="path854" inkscape:connector-curvature="0" sodipodi:nodetypes="cc" class="st3" d="M32.1,22c0.9,1.3,1.8,1.3,2.7,0"/>
	<path id="path856" inkscape:connector-curvature="0" sodipodi:nodetypes="cc" class="st3" d="M37.7,22.1c0.9,1.3,1.8,1.3,2.7,0"/>
	<path id="path858" inkscape:connector-curvature="0" class="st3" d="M37,45h5.9"/>
	<path id="path860" inkscape:connector-curvature="0" sodipodi:nodetypes="cc" class="st3" d="M32.8,45H35"/>
	<path id="path862" inkscape:connector-curvature="0" sodipodi:nodetypes="cc" class="st3" d="M48.8,17.5H51"/>
	<path id="path864" inkscape:connector-curvature="0" sodipodi:nodetypes="cc" class="st3" d="M59.9,27.3h2.1"/>
	<path id="path866" inkscape:connector-curvature="0" sodipodi:nodetypes="cc" class="st3" d="M53.7,39.8h2.1"/>
	<path id="path868" inkscape:connector-curvature="0" sodipodi:nodetypes="cc" class="st3" d="M66.9,32.2H69"/>
	<path id="path870" inkscape:connector-curvature="0" sodipodi:nodetypes="cc" class="st3" d="M41.9,32.2l5.8,0.1"/>
	<path id="path872" inkscape:connector-curvature="0" sodipodi:nodetypes="cc" class="st3" d="M49.9,16.4l0.1,2.1"/>
	<path id="path874" inkscape:connector-curvature="0" sodipodi:nodetypes="cc" class="st3" d="M67.9,30.8l0.1,2.1"/>
	<path id="path876" inkscape:connector-curvature="0" sodipodi:nodetypes="cc" class="st3" d="M54.8,38.7l0.1,2.1"/>
	<path id="path878" inkscape:connector-curvature="0" sodipodi:nodetypes="ccccc" class="st9" d="M103.6,23.5h11
		c16.8,1.1,13.5-14.1,1.5-11.4c0.7-7.1-16-8.5-12.5,4.1C95.9,15.6,95.8,24.2,103.6,23.5L103.6,23.5z"/>
	<path id="path880" inkscape:connector-curvature="0" sodipodi:nodetypes="cc" class="st9" d="M107.4,19.3c1.8-2.3,3.6-2.5,5.4,0.2"
		/>
	<path id="path882" inkscape:connector-curvature="0" sodipodi:nodetypes="cc" class="st9" d="M105.9,13.1c0.9,1.3,1.8,1.3,2.7,0"/>
	<path id="path884" inkscape:connector-curvature="0" sodipodi:nodetypes="cc" class="st9" d="M111.5,13.3c0.9,1.3,1.8,1.3,2.7,0"/>
	<path id="path886" inkscape:connector-curvature="0" sodipodi:nodetypes="cc" class="st9" d="M90.5,10.6h2.1"/>
	<path id="path888" inkscape:connector-curvature="0" sodipodi:nodetypes="cc" class="st9" d="M91.5,9.5l0.1,2.1"/>
	<path id="path890" inkscape:connector-curvature="0" sodipodi:nodetypes="cc" class="st9" d="M118.3,38.4h2.1"/>
	<path id="path892" inkscape:connector-curvature="0" sodipodi:nodetypes="cc" class="st9" d="M119.3,37.3l0.1,2.1"/>
	<path id="path894" inkscape:connector-curvature="0" sodipodi:nodetypes="cc" class="st9" d="M125.2,59.2h2.1"/>
	<path id="path896" inkscape:connector-curvature="0" sodipodi:nodetypes="cc" class="st9" d="M126.2,58.1l0.1,2.1"/>
	<path id="path916" inkscape:connector-curvature="0" sodipodi:nodetypes="cccc" class="st9" d="M114.5,51.2H127
		c4.6-0.2,3.4-6.7-1.1-4.3c-0.2-4.6-7.3-3-5.3,1.4"/>
	<path id="path918" inkscape:connector-curvature="0" sodipodi:nodetypes="cc" class="st9" d="M124.4,43.6
		c-1.8-10.6,14.2-10.6,11.4,0"/>
	<path id="path920" inkscape:connector-curvature="0" sodipodi:nodetypes="cc" class="st9" d="M131.9,46.1c7.9-7.2,16.6,6.2,6.2,9.6
		"/>
	<path id="path922" inkscape:connector-curvature="0" sodipodi:nodetypes="cc" class="st9" d="M129.7,44c-3-1-1.2-7,2.5-5"/>
	<path id="path924" inkscape:connector-curvature="0" sodipodi:nodetypes="cc" class="st9" d="M109.2,51.3h2.1"/>
	<path id="path1023" inkscape:connector-curvature="0" class="st3" d="M37,45h5.9"/>
	<path id="path1025" inkscape:connector-curvature="0" sodipodi:nodetypes="cc" class="st3" d="M34.2,116h21.7"/>
	<path id="path1029" inkscape:connector-curvature="0" sodipodi:nodetypes="cc" class="st3" d="M32.1,116h-5.9"/>
	<path id="path1031" inkscape:connector-curvature="0" sodipodi:nodetypes="cc" class="st3" d="M23.8,116H11.1"/>
	<path id="path1033" inkscape:connector-curvature="0" sodipodi:nodetypes="cc" class="st3" d="M137.1,116.7h-29.6"/>
	<path id="path1037" inkscape:connector-curvature="0" sodipodi:nodetypes="cc" class="st3" d="M54.6,59.3l-3.9-4.3"/>
	<path id="path1039" inkscape:connector-curvature="0" sodipodi:nodetypes="cc" class="st3" d="M57.4,57.7l-0.3-5.5"/>
	<path id="path1041" inkscape:connector-curvature="0" sodipodi:nodetypes="cc" class="st3" d="M52.4,62.2l-5.5-0.1"/>
	<path id="path1043" inkscape:connector-curvature="0" sodipodi:nodetypes="cc" class="st3" d="M146.1,116.7h-6"/>
	<path id="path1045" inkscape:connector-curvature="0" sodipodi:nodetypes="cccc" class="st10" d="M102,122.7l23.4,18.8
		c5,4.3,10.8,0.2,7.1-4.9l-25-19.9"/>
	<path id="path1047" inkscape:connector-curvature="0" class="st11" d="M107.5,116.7"/>
</g>
<circle class="st12" cx="101.9" cy="66.1" r="13.6"/>
<g id="R8Ks36_1_">
	<g>
		<path d="M99.8,68.1c-1.8,0-3.6,0-5.3,0c-0.9,0-1.7-0.5-1.9-1.3c-0.4-1.3,0.5-2.6,1.9-2.6c1.6,0,3.2,0,4.7,0c0.2,0,0.4,0,0.6,0
			c0-0.2,0-0.4,0-0.6c0-1.5,0-3,0-4.5c0-1.2,0.9-2.1,2-2.1c1.2,0,2,0.9,2,2.1c0,1.5,0,3,0,4.5c0,0.2,0,0.4,0,0.6c0.2,0,0.4,0,0.6,0
			c1.5,0,3.1,0,4.6,0c1.3,0,2.1,0.8,2.1,2c0,1.1-0.9,2-2.2,2c-1.5,0-3.1,0-4.6,0c-0.2,0-0.4,0-0.6,0c0,0.2,0,0.4,0,0.6
			c0,1.5,0,3,0,4.5c0,1.2-0.9,2.1-2,2.1c-1.2,0-2-0.9-2-2.1c0-1.5,0-3,0-4.5C99.8,68.5,99.8,68.3,99.8,68.1z"/>
	</g>
</g>
</svg>
