<?xml version="1.0" encoding="utf-8"?>
<!-- Generator: Adobe Illustrator 24.0.2, SVG Export Plug-In . SVG Version: 6.00 Build 0)  -->
<svg version="1.1"
	 id="svg833" xmlns:cc="http://creativecommons.org/ns#" xmlns:dc="http://purl.org/dc/elements/1.1/" xmlns:inkscape="http://www.inkscape.org/namespaces/inkscape" xmlns:rdf="http://www.w3.org/1999/02/22-rdf-syntax-ns#" xmlns:sodipodi="http://sodipodi.sourceforge.net/DTD/sodipodi-0.dtd" xmlns:svg="http://www.w3.org/2000/svg"
	 xmlns="http://www.w3.org/2000/svg" xmlns:xlink="http://www.w3.org/1999/xlink" x="0px" y="0px" viewBox="0 0 150 150"
	 style="enable-background:new 0 0 150 150;" xml:space="preserve">
<style type="text/css">
	.st0{fill:#FFDD00;}
	.st1{fill:#EE4F15;}
	.st2{fill:#FFCA00;}
	.st3{fill:#FDEE00;}
	.st4{fill:#FFFFFF;}
</style>
<sodipodi:namedview  bordercolor="#666666" borderopacity="1" gridtolerance="10" guidetolerance="10" id="namedview835" inkscape:current-layer="layer1" inkscape:cx="117.10526" inkscape:cy="138.68421" inkscape:document-rotation="0" inkscape:guide-bbox="true" inkscape:pageopacity="0" inkscape:pageshadow="2" inkscape:window-height="706" inkscape:window-maximized="0" inkscape:window-width="1279" inkscape:window-x="0" inkscape:window-y="23" inkscape:zoom="1.6326744" objecttolerance="10" pagecolor="#ffffff" showgrid="false" showguides="true">
	<sodipodi:guide  id="guide1003" orientation="0,-1" position="216.33554,137.88079"></sodipodi:guide>
</sodipodi:namedview>
<g id="uo8tta.tif">
	<g>
		<path d="M145.3,55c0,23.9,0,47.8,0,71.6c-0.3,0.9-0.8,1.7-1.3,2.5c-1.5,2-3.3,3-4.4,3.5c-10.1,4.9-15.2,7.3-19.8,6.6
			c-8.6-1.2-8.4-9-15.9-9.8c-8.5-1-10.1,8.8-21.7,9.8c0,0-9.9,0.9-21.5-8.2c-0.6-0.4-1.9-1.5-2.6-3.2c-0.4-1-0.6-2.1-0.6-3.3
			c0.1-5.3,0-10.6,0-15.9c0-0.5,0-1,0-1.6c-0.8,0-1.4,0-1.9,0c-13.8,0-27.6,0-41.4,0c-4.6,0-7.5-2.9-7.5-7.5c0-5.8,0-11.6,0-17.3
			c0-4.6,2.9-7.5,7.4-7.5c0.6,0,1.1,0,1.7,0c0-1.6,0-3.1,0-4.6c-0.9,0-1.6,0-2.4,0c-3.7-0.1-6.7-3.1-6.7-6.8
			c-0.1-6.3-0.1-12.5,0-18.8c0-3.8,3-6.7,6.8-6.8c0.8,0,1.5,0,2.3,0c0-1.6,0-3.1,0-4.6c-0.5,0-1,0-1.4,0c-5,0-7.8-2.8-7.8-7.8
			c0-5.7,0-11.4,0-17c0-0.7,0-1.4,0.2-2c0.6-3,2.7-4.5,5.3-5.5c28.7,0,57.4,0,86.1,0c0.3,0.2,0.7,0.3,1,0.5c2.8,1.2,4.4,3.3,4.4,6.3
			c0.1,6.3,0.1,12.5,0,18.8c0,3.7-3,6.6-6.7,6.8c-0.8,0-1.6,0-2.4,0c0,1.7,0,3.1,0,4.6c0.9,0,1.6,0,2.4,0c2.5,0.1,4.6,1.3,5.7,3.5
			c0.5,1,1.1,1.1,2,1.1c6.2,0.5,12.5,0.9,18.7,1.7c5.4,0.7,10.7,2.1,15.6,4.5C141.8,50,144.2,51.9,145.3,55z M140.6,63
			c-1.4,0.7-2.6,1.3-3.9,1.8c-8.2,3.2-16.7,4.5-25.4,4.9c-6.6,0.3-13.3,0.3-19.9,0c-7.2-0.3-14.4-1.4-21.3-3.5c-2.7-0.8-5.3-2-7.9-3
			c0,4.9,0.1,9.8,0,14.7c0,1.8,0.6,2.9,2.1,3.8c3.5,2.2,7.5,3.3,11.4,4.2c6.6,1.5,13.4,2.2,20.2,2.5c11,0.4,21.9-0.2,32.7-2.8
			c3.7-0.9,7.2-2.1,10.4-4.2c1.2-0.8,1.8-1.7,1.8-3.2c-0.1-1.9,0-3.8,0-5.6C140.6,69.4,140.6,66.3,140.6,63z M140.6,86.2
			c-1.7,0.8-3.3,1.6-4.9,2.1c-7.6,2.8-15.5,3.9-23.6,4.5c-10.4,0.8-20.8,0.5-31.1-1.1c-5.9-0.9-11.6-2.2-17-4.8
			c-0.6-0.3-1.2-0.6-1.9-0.9c0,4.9,0.1,9.6-0.1,14.3c-0.1,2.4,0.8,4,2.9,4.8c3.5,1.4,7.1,2.8,10.7,3.7c6.6,1.7,13.4,2.2,20.1,2.5
			c11,0.4,21.9-0.2,32.7-2.8c3.7-0.9,7.2-2,10.4-4.2c0.8-0.5,1.6-1.6,1.7-2.5C140.7,96.7,140.6,91.5,140.6,86.2z M62.2,109.5
			c0,0.2,0,0.7,0,1.2c0,4.3,0.1,8.6-0.1,12.9c-0.1,2.3,0.8,3.9,2.8,4.7c3.6,1.4,7.1,2.8,10.8,3.8c6.5,1.7,13.3,2.2,20,2.5
			c11.4,0.4,22.7-0.1,33.8-3.1c3.2-0.9,6.3-2.5,9.4-3.9c1-0.5,1.7-1.4,1.7-2.6c0-5,0-10,0-15c0-0.2-0.1-0.3-0.1-0.5
			c-1.9,0.8-3.7,1.7-5.5,2.3c-7.7,2.7-15.7,3.9-23.8,4.2c-6.5,0.3-13,0.2-19.5,0c-6.3-0.2-12.7-1.1-18.8-2.8
			C69.4,112.2,65.8,110.8,62.2,109.5z M55.2,5.4C55.2,5.4,55.2,5.4,55.2,5.4c-13.6,0-27.2,0-40.9,0c-2.2,0-3,0.8-3,3
			c0,5.6,0,11.3,0,16.9c0,2.4,0.8,3.1,3.1,3.1c27.1,0,54.3,0,81.4,0c2.3,0,3.1-0.8,3.1-3.1c0-5.5,0-11,0-16.5c0-2.5-0.8-3.3-3.3-3.3
			C82.2,5.4,68.7,5.4,55.2,5.4z M101.6,47C93.8,47.1,86,47.5,78.2,49c-4.6,0.9-9.1,2-13.2,4.4c-1.1,0.6-2.6,1.8-2.6,2.8
			c0,0.9,1.5,2.2,2.6,2.7c3.2,1.4,6.4,2.6,9.7,3.5c7.4,2,14.9,2.6,22.6,2.8c10.4,0.3,20.7-0.2,30.8-2.8c3.1-0.8,6.1-2,9.1-3.2
			c1.4-0.6,3.2-1.3,3.2-3c0-1.8-1.9-2.4-3.3-3.1c-1.6-0.8-3.2-1.5-4.9-2C122.3,47.8,112,47.2,101.6,47z M92.3,42.3
			c-0.5,0-1.1,0-1.6,0c-25.5,0-50.9,0-76.4,0c-2.2,0-3,0.8-3,2.9c0,5.6,0,11.2,0,16.7c0,2.6,0.7,3.3,3.2,3.3c13.8,0,27.5,0,41.3,0
			c0.5,0,1,0,1.6,0c0-2.9,0.1-5.6,0-8.3c-0.1-2.6,0.8-4.7,2.9-6.1c2.3-1.6,4.8-3,7.4-4C75.7,43.9,84,43.1,92.3,42.3z M57.4,102.3
			c0-7.8,0-15.3,0-22.9c-0.4,0-0.6-0.1-0.9-0.1c-14.1,0-28.2,0-42.3,0c-1.9,0-2.7,0.9-2.7,2.7c0,5.6,0,11.3,0,16.9
			c0,2.6,0.7,3.3,3.3,3.3c13.7,0,27.3,0,41,0C56.2,102.3,56.8,102.3,57.4,102.3z M34.4,37.5c13.8,0,27.6,0,41.5,0c0-1.5,0-3,0-4.4
			c-13.9,0-27.7,0-41.5,0C34.4,34.6,34.4,36,34.4,37.5z M57.4,74.6c0-1.6,0-3,0-4.5c-7.7,0-15.3,0-22.9,0c0,1.5,0,3,0,4.5
			C42.2,74.6,49.8,74.6,57.4,74.6z M20.7,37.5c2.8,0,5.4,0,7.9,0c0.3,0,0.9-0.4,1-0.7c0.1-1,0.1-2,0-3c0-0.2-0.4-0.6-0.6-0.6
			c-2.8,0-5.5,0-8.3,0C20.7,34.7,20.7,36,20.7,37.5z M80.7,37.5c2.8,0,5.5,0,8.2,0c0.3,0,0.8-0.4,0.8-0.6c0.1-1,0.1-2.1,0-3.2
			c0-0.2-0.4-0.6-0.7-0.6c-2.8,0-5.5,0-8.3,0C80.7,34.7,80.7,36,80.7,37.5z M20.7,74.5c2.8,0,5.5,0,8.2,0c0.3,0,0.8-0.3,0.8-0.6
			c0.1-1,0.1-2.1,0-3.2c0-0.2-0.4-0.6-0.6-0.6c-2.8,0-5.5,0-8.3,0C20.7,71.6,20.7,73,20.7,74.5z"/>
		<path class="st0" d="M140.6,63c0,3.3,0,6.4,0,9.5c0,1.9-0.1,3.8,0,5.6c0.1,1.5-0.6,2.5-1.8,3.2c-3.2,2.1-6.7,3.3-10.4,4.2
			c-10.7,2.6-21.7,3.2-32.7,2.8C89,88,82.3,87.4,75.7,85.8c-4-0.9-7.9-2-11.4-4.2c-1.4-0.9-2.1-2-2.1-3.8c0.1-4.9,0-9.8,0-14.7
			c2.7,1,5.3,2.2,7.9,3c6.9,2.2,14.1,3.2,21.3,3.5c6.6,0.3,13.3,0.3,19.9,0c8.7-0.4,17.2-1.7,25.4-4.9C138,64.3,139.2,63.7,140.6,63
			z M99.2,76.9c0,1.5,0,3.1,0,4.6c1.5,0,3,0,4.5,0c0-1.6,0-3.1,0-4.6C102.2,76.9,100.7,76.9,99.2,76.9z"/>
		<path class="st0" d="M140.6,86.2c0,5.4,0.1,10.6-0.1,15.8c0,0.9-0.9,1.9-1.7,2.5c-3.1,2.2-6.7,3.3-10.4,4.2
			c-10.7,2.6-21.7,3.2-32.7,2.8c-6.8-0.3-13.6-0.8-20.1-2.5c-3.6-0.9-7.2-2.4-10.7-3.7c-2-0.8-3-2.4-2.9-4.8
			c0.2-4.7,0.1-9.4,0.1-14.3c0.7,0.3,1.3,0.6,1.9,0.9c5.4,2.6,11.1,3.9,17,4.8c10.3,1.6,20.7,1.9,31.1,1.1c8-0.6,16-1.7,23.6-4.5
			C137.3,87.7,138.9,86.9,140.6,86.2z M103.7,107c0-1.6,0-3.1,0-4.6c-1.6,0-3.1,0-4.6,0c0,1.6,0,3,0,4.6
			C100.7,107,102.2,107,103.7,107z"/>
		<path class="st0" d="M62.2,109.5c3.6,1.2,7.1,2.6,10.8,3.6c6.1,1.7,12.4,2.6,18.8,2.8c6.5,0.2,13,0.3,19.5,0
			c8.1-0.3,16.1-1.6,23.8-4.2c1.8-0.6,3.6-1.5,5.5-2.3c0,0.2,0.1,0.3,0.1,0.5c0,5,0,10,0,15c0,1.3-0.7,2.2-1.7,2.6
			c-3.1,1.4-6.2,3-9.4,3.9c-11,3-22.4,3.6-33.8,3.1c-6.7-0.3-13.5-0.8-20-2.5c-3.7-1-7.3-2.4-10.8-3.8c-2-0.8-2.9-2.3-2.8-4.7
			c0.2-4.3,0.1-8.6,0.1-12.9C62.2,110.2,62.2,109.8,62.2,109.5z M99.2,123.2c0,1.6,0,3.1,0,4.5c1.6,0,3.1,0,4.5,0c0-1.6,0-3.1,0-4.5
			C102.1,123.2,100.7,123.2,99.2,123.2z"/>
		<path class="st1" d="M55.2,5.4c13.5,0,27,0,40.6,0c2.5,0,3.3,0.8,3.3,3.3c0,5.5,0,11,0,16.5c0,2.3-0.8,3.1-3.1,3.1
			c-27.1,0-54.3,0-81.4,0c-2.3,0-3.1-0.8-3.1-3.1c0-5.6,0-11.3,0-16.9c0-2.2,0.8-3,3-3C28,5.4,41.6,5.4,55.2,5.4
			C55.2,5.4,55.2,5.4,55.2,5.4z M29.9,17c0-1.5,0-3.1,0-4.6c0-1.6-0.9-2.5-2.5-2.5c-3,0-6,0-9,0c-1.6,0-2.5,0.9-2.5,2.5c0,3,0,6,0,9
			c0,1.6,0.9,2.5,2.5,2.5c3,0,6,0,9,0c1.6,0,2.5-0.9,2.5-2.5C29.9,19.9,29.9,18.4,29.9,17z M41.3,23.8c1.5,0,3,0,4.5,0
			c1.6,0,2.5-0.9,2.5-2.5c0-3,0-6,0-9c0-1.6-0.9-2.5-2.5-2.5c-3,0-6,0-9,0c-1.6,0-2.5,0.9-2.5,2.5c0,3,0,6,0,9
			c0,1.6,0.9,2.5,2.5,2.5C38.4,23.9,39.9,23.8,41.3,23.8z M85.3,10c-10.8,0-21.5,0-32.4,0c0,1.5,0,3,0,4.5c10.8,0,21.6,0,32.4,0
			C85.3,13,85.3,11.5,85.3,10z M52.9,23.8c10.9,0,21.6,0,32.3,0c0-1.6,0-3.1,0-4.6c-10.8,0-21.5,0-32.3,0
			C52.9,20.7,52.9,22.2,52.9,23.8z M94.5,14.6c0-1.7,0-3.2,0-4.6c-1.6,0-3.1,0-4.6,0c0,1.6,0,3.1,0,4.6C91.5,14.6,93,14.6,94.5,14.6
			z M94.5,23.8c0-1.6,0-3.1,0-4.6c-1.6,0-3.1,0-4.6,0c0,1.6,0,3.1,0,4.6C91.5,23.8,93,23.8,94.5,23.8z"/>
		<path class="st2" d="M101.6,47c10.4,0.2,20.7,0.8,30.6,4.1c1.7,0.5,3.3,1.2,4.9,2c1.4,0.7,3.3,1.4,3.3,3.1c0,1.7-1.8,2.4-3.2,3
			c-3,1.2-6,2.4-9.1,3.2c-10.1,2.6-20.4,3.1-30.8,2.8c-7.6-0.2-15.2-0.8-22.6-2.8c-3.3-0.9-6.6-2.2-9.7-3.5
			c-1.1-0.5-2.6-1.8-2.6-2.7c0-0.9,1.5-2.1,2.6-2.8c4.1-2.4,8.6-3.5,13.2-4.4C86,47.5,93.8,47.1,101.6,47z"/>
		<path class="st1" d="M92.3,42.3c-8.3,0.7-16.7,1.6-24.6,4.6c-2.6,1-5.1,2.4-7.4,4c-2.1,1.4-3,3.5-2.9,6.1c0.1,2.7,0,5.4,0,8.3
			c-0.6,0-1.1,0-1.6,0c-13.8,0-27.5,0-41.3,0c-2.5,0-3.2-0.7-3.2-3.3c0-5.6,0-11.2,0-16.7c0-2.1,0.8-2.9,3-2.9c25.5,0,50.9,0,76.4,0
			C91.3,42.3,91.8,42.3,92.3,42.3z M29.9,53.8c0-1.5,0-3,0-4.5c0-1.6-0.9-2.5-2.5-2.5c-3,0-6,0-9,0c-1.6,0-2.5,0.9-2.5,2.5
			c0,3,0,6,0,9c0,1.6,0.9,2.5,2.5,2.5c3,0,6,0,9,0c1.6,0,2.5-0.9,2.5-2.5C29.9,56.8,29.9,55.3,29.9,53.8z M48.3,53.8
			c0-1.5,0-3,0-4.5c0-1.6-0.9-2.5-2.5-2.5c-3,0-6,0-9,0c-1.6,0-2.5,0.9-2.5,2.5c0,3,0,6,0,9c0,1.6,0.9,2.5,2.5,2.5c3,0,6,0,9,0
			c1.6,0,2.5-0.9,2.5-2.5C48.4,56.8,48.3,55.3,48.3,53.8z"/>
		<path class="st1" d="M57.4,102.3c-0.6,0-1.1,0-1.6,0c-13.7,0-27.3,0-41,0c-2.6,0-3.3-0.7-3.3-3.3c0-5.6,0-11.3,0-16.9
			c0-1.9,0.9-2.7,2.7-2.7c14.1,0,28.2,0,42.3,0c0.3,0,0.6,0,0.9,0.1C57.4,87,57.4,94.5,57.4,102.3z M23,83.8c-1.5,0-3.1,0-4.6,0
			c-1.6,0-2.5,0.9-2.5,2.5c0,3,0,6,0,9c0,1.6,0.9,2.5,2.5,2.5c3,0,6,0,9,0c1.6,0,2.5-0.9,2.5-2.5c0-3,0-6,0-9c0-1.6-0.9-2.5-2.5-2.5
			C25.9,83.8,24.4,83.8,23,83.8z M41.4,83.8c-1.5,0-3.1,0-4.6,0c-1.5,0-2.4,0.9-2.4,2.5c0,3,0,6.1,0,9.1c0,1.5,0.9,2.4,2.5,2.4
			c3,0,6.1,0,9.1,0c1.5,0,2.4-0.9,2.4-2.5c0-3,0-6.1,0-9.1c0-1.5-0.9-2.4-2.5-2.4C44.4,83.8,42.9,83.8,41.4,83.8z"/>
		<path d="M99.2,76.9c1.6,0,3,0,4.5,0c0,1.5,0,3,0,4.6c-1.5,0-3,0-4.5,0C99.2,80,99.2,78.5,99.2,76.9z"/>
		<path d="M103.7,107c-1.6,0-3,0-4.6,0c0-1.5,0-3,0-4.6c1.5,0,3,0,4.6,0C103.7,103.9,103.7,105.3,103.7,107z"/>
		<path d="M99.2,123.2c1.5,0,3,0,4.5,0c0,1.5,0,3,0,4.5c-1.4,0-2.9,0-4.5,0C99.2,126.2,99.2,124.7,99.2,123.2z"/>
		<path d="M29.9,17c0,1.4,0,2.9,0,4.3c0,1.6-0.9,2.5-2.5,2.5c-3,0-6,0-9,0c-1.6,0-2.5-0.9-2.5-2.5c0-3,0-6,0-9
			c0-1.6,0.9-2.5,2.5-2.5c3,0,6,0,9,0c1.6,0,2.5,0.9,2.5,2.5C29.9,13.9,29.9,15.4,29.9,17z"/>
		<path d="M41.3,23.8c-1.5,0-3,0-4.5,0c-1.6,0-2.5-0.9-2.5-2.5c0-3,0-6,0-9c0-1.6,0.9-2.5,2.5-2.5c3,0,6,0,9,0
			c1.6,0,2.5,0.9,2.5,2.5c0,3,0,6,0,9c0,1.6-0.9,2.5-2.5,2.5C44.3,23.9,42.8,23.8,41.3,23.8z M43.4,19c0-1.5,0-2.9,0-4.2
			c-1.5,0-2.8,0-4.2,0c0,1.5,0,2.8,0,4.2C40.7,19,42,19,43.4,19z"/>
		<path d="M85.3,10c0,1.6,0,3,0,4.5c-10.8,0-21.5,0-32.4,0c0-1.5,0-3,0-4.5C63.7,10,74.5,10,85.3,10z"/>
		<path d="M52.9,23.8c0-1.6,0-3,0-4.6c10.8,0,21.5,0,32.3,0c0,1.5,0,3,0,4.6C74.5,23.8,63.8,23.8,52.9,23.8z"/>
		<path d="M94.5,14.6c-1.5,0-3,0-4.6,0c0-1.5,0-3,0-4.6c1.5,0,2.9,0,4.6,0C94.5,11.4,94.5,12.9,94.5,14.6z"/>
		<path d="M94.5,23.8c-1.5,0-3,0-4.6,0c0-1.5,0-3,0-4.6c1.5,0,3,0,4.6,0C94.5,20.7,94.5,22.2,94.5,23.8z"/>
		<path d="M29.9,53.8c0,1.5,0,3,0,4.5c0,1.6-0.9,2.5-2.5,2.5c-3,0-6,0-9,0c-1.6,0-2.5-0.9-2.5-2.5c0-3,0-6,0-9
			c0-1.6,0.9-2.5,2.5-2.5c3,0,6,0,9,0c1.6,0,2.5,0.9,2.5,2.5C29.9,50.8,29.9,52.3,29.9,53.8z"/>
		<path d="M48.3,53.8c0,1.5,0,3,0,4.5c0,1.6-0.9,2.5-2.5,2.5c-3,0-6,0-9,0c-1.6,0-2.5-0.9-2.5-2.5c0-3,0-6,0-9
			c0-1.6,0.9-2.5,2.5-2.5c3,0,6,0,9,0c1.6,0,2.5,0.9,2.5,2.5C48.4,50.8,48.3,52.3,48.3,53.8z M39.2,55.9c1.5,0,2.8,0,4.2,0
			c0-1.5,0-2.8,0-4.2c-1.5,0-2.8,0-4.2,0C39.2,53.1,39.2,54.5,39.2,55.9z"/>
		<path d="M23,83.8c1.4,0,2.9,0,4.3,0c1.6,0,2.5,0.9,2.5,2.5c0,3,0,6,0,9c0,1.6-0.9,2.5-2.5,2.5c-3,0-6,0-9,0
			c-1.6,0-2.5-0.9-2.5-2.5c0-3,0-6,0-9c0-1.6,0.9-2.5,2.5-2.5C19.9,83.8,21.5,83.8,23,83.8z"/>
		<path d="M41.4,83.8c1.5,0,3,0,4.5,0c1.5,0,2.4,0.9,2.5,2.4c0,3,0,6.1,0,9.1c0,1.5-0.9,2.4-2.4,2.5c-3,0-6.1,0-9.1,0
			c-1.5,0-2.4-0.9-2.5-2.4c0-3,0-6.1,0-9.1c0-1.5,0.9-2.4,2.4-2.5C38.3,83.8,39.9,83.8,41.4,83.8z M39.3,88.7c0,1.5,0,2.9,0,4.2
			c1.5,0,2.9,0,4.2,0c0-1.5,0-2.9,0-4.2C42,88.7,40.6,88.7,39.3,88.7z"/>
		<path class="st3" d="M43.4,19c-1.4,0-2.7,0-4.2,0c0-1.4,0-2.7,0-4.2c1.3,0,2.7,0,4.2,0C43.4,16.1,43.4,17.4,43.4,19z"/>
		<path class="st3" d="M39.2,55.9c0-1.5,0-2.8,0-4.2c1.4,0,2.8,0,4.2,0c0,1.4,0,2.8,0,4.2C42.1,55.9,40.7,55.9,39.2,55.9z"/>
		<path class="st3" d="M39.3,88.7c1.4,0,2.7,0,4.2,0c0,1.3,0,2.7,0,4.2c-1.3,0-2.7,0-4.2,0C39.3,91.6,39.3,90.2,39.3,88.7z"/>
	</g>
</g>
<g id="rZhTNd.tif">
	<g>
		<path d="M120,139.3c-12.4,0-24.9,0-37.3,0c-0.1,0-0.3-0.1-0.4-0.1c-1.1-0.1-2.1-0.6-3-1.3c-2-1.8-2.6-4.5-1.4-6.9
			c2.4-4.8,4.8-9.6,7.2-14.5c3.7-7.3,7.3-14.7,11-22c0.9-1.7,2.2-2.8,4.1-3.2c0.3-0.1,0.6-0.1,1-0.2c0.1,0,0.1,0,0.2,0
			c0.3,0.1,0.6,0.1,1,0.2c1.9,0.4,3.2,1.4,4,3.1c1.4,2.8,2.8,5.6,4.2,8.5c4.7,9.4,9.4,18.7,14.1,28.1c1.7,3.4-0.2,7.3-3.9,8.1
			C120.6,139.2,120.3,139.2,120,139.3z M101.3,136c6,0,12.1,0,18.1,0c0.7,0,1.4-0.2,1.9-0.7c0.7-0.6,1.1-1.8,0.4-3.1
			c-6-12-12-24-18-35.9c-0.1-0.3-0.3-0.5-0.4-0.8c-0.5-0.8-1.5-1.2-2.5-1c-1,0.2-1.5,0.9-1.9,1.7c-4.5,9.1-9.1,18.2-13.6,27.2
			c-1.5,2.9-2.9,5.9-4.4,8.8c-0.3,0.5-0.5,1.1-0.4,1.7c0.2,1.3,1.2,2,2.6,2C89.2,136,95.3,136,101.3,136z"/>
		<path class="st4" d="M101.3,136c-9.6,0.1-16.7,0.1-18.2,0c-0.4,0-1.2-0.1-1.8-0.6c-0.4-0.3-0.6-0.8-0.8-1.4
			c-0.1-0.6,0.1-1.2,0.4-1.7c1.5-2.9,2.9-5.9,4.4-8.8c4.5-9.1,9.1-18.2,13.6-27.2c0.4-0.8,0.9-1.5,1.9-1.7c1-0.2,2,0.2,2.5,1
			c0.2,0.3,0.3,0.5,0.4,0.8c6,12,12,24,18,35.9c0.7,1.4,0.3,2.5-0.4,3.1c-0.1,0.1-0.3,0.2-0.4,0.3c-0.6,0.4-1.3,0.4-1.5,0.3
			C118.6,136,111.3,136,101.3,136z M101.3,106.1C101.3,106.1,101.3,106.1,101.3,106.1c-0.8,0-1.6,0-2.4,0c-0.6,0-0.9,0.4-0.9,1
			c0.1,1.3,0.2,2.6,0.4,3.9c0.2,2.5,0.5,5,0.7,7.4c0.1,1.4,0.3,2.8,0.4,4.3c0.1,0.6,0.4,0.9,1,0.9c0.5,0,1,0,1.5,0
			c0.8,0,1-0.3,1.1-1c0.1-0.8,0.1-1.6,0.2-2.4c0.4-4.3,0.8-8.6,1.2-13c0.1-0.7-0.2-1.1-1-1.1C102.9,106,102.1,106.1,101.3,106.1z
			 M101.4,126.8c-1.4,0-2.5,1.1-2.5,2.5c0,1.4,1.1,2.5,2.5,2.5c1.4,0,2.6-1.2,2.6-2.5C103.9,128,102.7,126.8,101.4,126.8z"/>
		<path d="M101.3,106.1c0.8,0,1.5,0,2.3,0c0.7,0,1.1,0.4,1,1.1c-0.4,4.3-0.8,8.6-1.2,13c-0.1,0.8-0.1,1.6-0.2,2.4
			c-0.1,0.8-0.4,1-1.1,1c-0.5,0-1,0-1.5,0c-0.6,0-0.9-0.3-1-0.9c-0.1-1.4-0.3-2.8-0.4-4.3c-0.2-2.5-0.5-5-0.7-7.4
			c-0.1-1.3-0.3-2.6-0.4-3.9c0-0.6,0.3-1,0.9-1C99.8,106,100.6,106.1,101.3,106.1C101.3,106.1,101.3,106.1,101.3,106.1z"/>
		<path d="M101.4,126.8c1.4,0,2.5,1.2,2.5,2.5c0,1.4-1.2,2.6-2.6,2.5c-1.4,0-2.5-1.2-2.5-2.5C98.8,127.9,100,126.8,101.4,126.8z"/>
	</g>
</g>
<path class="st4" d="M101.4,136.1"/>
<path class="st4" d="M101.1,137.5"/>
<path d="M93.8,151.4"/>
</svg>
