<?xml version="1.0" encoding="utf-8"?>
<!-- Generator: Adobe Illustrator 24.0.2, SVG Export Plug-In . SVG Version: 6.00 Build 0)  -->
<svg version="1.1"
	 id="svg833" xmlns:cc="http://creativecommons.org/ns#" xmlns:dc="http://purl.org/dc/elements/1.1/" xmlns:inkscape="http://www.inkscape.org/namespaces/inkscape" xmlns:rdf="http://www.w3.org/1999/02/22-rdf-syntax-ns#" xmlns:sodipodi="http://sodipodi.sourceforge.net/DTD/sodipodi-0.dtd" xmlns:svg="http://www.w3.org/2000/svg"
	 xmlns="http://www.w3.org/2000/svg" xmlns:xlink="http://www.w3.org/1999/xlink" x="0px" y="0px" viewBox="0 0 150 150"
	 style="enable-background:new 0 0 150 150;" xml:space="preserve">
<style type="text/css">
	.st0{fill:#FFFFFF;}
	.st1{fill:#E5E9ED;}
	.st2{fill:#A8E071;}
	.st3{fill:#FFFD00;}
	.st4{fill:#FFC600;}
	.st5{fill:#90D756;}
	.st6{fill:#FF7966;}
	.st7{fill:#FFD75B;}
	.st8{fill:#2FD8F8;}
</style>
<sodipodi:namedview  bordercolor="#666666" borderopacity="1" gridtolerance="10" guidetolerance="10" id="namedview835" inkscape:current-layer="layer1" inkscape:cx="117.10526" inkscape:cy="138.68421" inkscape:document-rotation="0" inkscape:guide-bbox="true" inkscape:pageopacity="0" inkscape:pageshadow="2" inkscape:window-height="706" inkscape:window-maximized="0" inkscape:window-width="1279" inkscape:window-x="0" inkscape:window-y="23" inkscape:zoom="1.6326744" objecttolerance="10" pagecolor="#ffffff" showgrid="false" showguides="true">
	<sodipodi:guide  id="guide1003" orientation="0,-1" position="216.33554,137.88079"></sodipodi:guide>
</sodipodi:namedview>
<g id="NNgbnE.tif">
	<g>
		<path d="M141.1,146.5c-44,0-88,0-132.1,0c-4.2-1.5-5.5-4.5-5.5-8.8c0.1-25.2,0.1-50.4,0.1-75.6c0-5.2,2.7-7.9,7.9-7.9
			c21,0,42.1,0,63.1,0c0.5,0,1.1,0,1.8,0c-0.8-1.4-1.5-2.5-2.1-3.6c-0.4-0.7-0.9-1-1.7-1c-2.6-0.1-4.4-2-4.5-4.7c0-1.3,0-2.6,0-3.9
			c0-3.4,1.8-5.2,5.2-5.2c6.9,0,13.8,0,20.8,0c0.5,0,1,0,1.7,0c0-1.3,0-2.4,0-3.6c0-2.7-0.7-3.4-3.3-3.4c-13.7,0-27.5,0-41.2,0
			c-0.5,0-1,0-1.6,0c0,1.4,0,2.7,0,3.9c-0.4,0.2-0.8,0.3-1.1,0.4c-3.6,1.2-3.4,0.8-1.7,4.2c0.4,0.8,0.4,1.2-0.3,1.8
			c-1.9,1.8-3.7,3.7-5.6,5.6c-0.8,0.8-1.6,2-2.5,2.2c-0.8,0.2-1.9-0.7-2.8-1.2c-0.9-0.4-1.4-0.2-1.7,0.7c-0.4,1-0.7,2.1-1,3
			c-4.3,0-8.4,0-12.5,0c-0.1-0.4-0.3-0.8-0.4-1.1c-1.2-3.4-0.8-3.4-4.1-1.6c-0.9,0.5-1.4,0.3-2.1-0.4c-1.7-1.8-3.5-3.5-5.3-5.3
			c-0.8-0.8-2.1-1.5-2.3-2.5c-0.2-0.9,0.7-2.1,1.1-3.1c0.4-0.8,0.2-1.3-0.6-1.6c-1-0.4-2.1-0.7-3.1-1.1c0-4.2,0-8.3,0-12.5
			c0.3-0.1,0.6-0.3,0.9-0.4c3.3-1.2,3.3-1.2,1.8-4.4C6,14.9,6,14.5,6.5,14c2.5-2.5,5-5,7.6-7.5c0.3-0.3,1-0.4,1.4-0.2
			c3.2,1.4,3.2,1.4,4.5-2c0.1-0.3,0.6-0.8,1-0.8c3.9-0.1,7.9,0,11.8,0c0.2,0.4,0.3,0.7,0.4,1c1.3,3.8,0.9,3.4,4.3,1.8
			c0.8-0.4,1.2-0.3,1.8,0.3c1.9,1.9,3.8,3.8,5.7,5.7c2.2,2.2,2.3,2.3,0.9,5.1c-0.5,1-0.2,1.5,0.8,1.8c1,0.3,1.9,0.6,3,1
			c0,1.3,0,2.6,0,3.9c0.7,0,1.3,0,1.8,0c13.9,0,27.8,0,41.7,0c4.2,0,7.1,2.9,7.2,7.2c0,1.4,0,2.8,0,4.3c1.6,0,3.1,0,4.6,0
			c0-0.5,0-0.9,0-1.3c0-5.6,0-11.2,0-16.7c0-0.4-0.5-1-0.9-1.2c-2.9-1.7-4.3-4.7-3.4-7.8c0.8-3.1,3.5-5.2,6.6-5.2
			c3.1,0,5.9,2.1,6.7,5.1c0.8,3.1-0.5,6.2-3.4,7.8c-0.8,0.4-1,0.9-1,1.7c0,5.5,0,11.1,0,16.6c0,0.4,0.1,0.7,0.1,1c1.5,0,3,0,4.5,0
			c0-0.5,0-0.9,0-1.3c0-5.1,2.7-7.8,7.9-7.8c4.2,0,8.4,0,12.5,0c1.3,0,2.2-0.5,2.6-1.8c0.5-1.7,0-3.1-1.1-3.8
			c-3-1.8-4.2-5.4-2.9-8.6c1.4-3.2,4.8-4.9,8.2-4c2.7,0.7,4.1,2.7,5.1,5.2c0,1,0,1.9,0,2.9c-0.7,1.7-1.4,3.4-3.2,4.3
			c-1.3,0.6-1.5,1.5-1.5,2.8c0,4.8-2.8,7.6-7.6,7.6c-4.2,0-8.4,0-12.7,0c-2,0-2.8,0.8-2.8,2.8c0,0.6,0,1.1,0,1.8c0.7,0,1.2,0,1.7,0
			c6.7,0,13.3,0.1,20,0c2.8-0.1,4.8,0.9,5.9,3.5c0,2.3,0,4.6,0,6.9c-1,2.2-2.5,3.6-5.1,3.5c-0.3,0-0.6,0.2-0.8,0.5
			c-0.8,1.3-1.5,2.6-2.4,4c1,0.1,1.8,0.1,2.6,0.2c3,0.6,4.6,2.7,5.6,5.3c0,27.1,0,54.2,0,81.3C145.6,143.8,143.8,145.6,141.1,146.5z
			 M8.1,77.3c0,0.6,0,1.1,0,1.6c0,19.9,0,39.8,0,59.7c0,2.6,0.7,3.3,3.3,3.3c42.4,0,84.8,0,127.1,0c2.6,0,3.3-0.7,3.3-3.3
			c0-19.9,0-39.8,0-59.7c0-0.5,0-1,0-1.6c-5.6,0-10.9,0-16.2,0c-0.5,0-1.1,0.6-1.3,1c-2.4,4.1-4.9,8.3-7.2,12.5
			c-0.4,0.6-0.5,1.4-0.6,2.2c-0.1,3.4-0.1,6.7,0,10.1c0,0.9-0.3,1.3-1.2,1.7c-3.6,1.4-7.2,2.8-10.8,4.3c-2.2,0.9-4.3,0.4-6.5,0.6
			c0-5.6,0-11,0-16.4c0-0.9-0.3-1.9-0.7-2.7c-2.2-4-4.6-8-6.9-12c-0.5-1-1.2-1.3-2.3-1.3c-26.1,0-52.3,0-78.4,0
			C9.3,77.3,8.9,77.3,8.1,77.3z M135.4,49.8c-18.9,0-37.4,0-56.1,0c0.1,0.3,0.1,0.5,0.2,0.6c7.3,12.6,14.5,25.1,21.8,37.6
			c0.2,0.4,1,0.7,1.5,0.8c2.8,0.1,5.7,0,8.5,0.1c1.1,0,1.7-0.3,2.3-1.3c6.5-11.4,13.1-22.7,19.7-34C134,52.3,134.7,51.1,135.4,49.8z
			 M8.2,72.6c26.2,0,52.3,0,78.6,0c-0.3-0.5-0.5-0.9-0.7-1.3c-2.1-3.7-4.3-7.3-6.3-11c-0.6-1-1.2-1.4-2.3-1.4c-22,0-43.9,0-65.9,0
			c-0.4,0-0.9,0-1.3,0c-1.2,0.2-2,0.9-2,2.1C8.2,64.8,8.2,68.7,8.2,72.6z M41.5,15.7c-0.1-0.1-0.2-0.3-0.3-0.5
			C40.1,14.2,39,13,37.9,12c-0.2-0.2-0.9-0.2-1.1,0c-1.3,1-2.6,0.7-3.8-0.1c-0.6-0.3-1.3-0.4-1.9-0.8c-0.3-0.2-0.8-0.5-0.9-0.8
			c-0.3-2.1-1.7-2.4-3.4-2.2c-0.7,0.1-1.4-0.1-2,0.1c-0.5,0.1-1.2,0.5-1.3,0.9c-0.4,1.4-1.2,2.2-2.6,2.5c-0.7,0.2-1.3,0.6-2,0.8
			c-0.4,0.1-0.9,0.2-1.2,0.1c-1.8-1.4-2.9-0.4-4,1c-0.4,0.5-0.8,0.9-1.3,1.3c-0.6,0.5-0.8,1-0.3,1.7c0.8,1.1,0.8,2.1,0,3.3
			c-0.4,0.6-0.5,1.4-0.9,2.1c-0.2,0.4-0.6,1-1,1.1c-1.9,0.3-2.2,1.5-2,3.1c0.1,0.7,0.1,1.4,0,2c-0.1,1,0.3,1.6,1.3,1.7
			c1.2,0.2,1.8,0.9,2.1,2.1c0.1,0.5,0.3,0.9,0.5,1.3c0.8,1.2,0.8,2.3,0,3.4c-0.4,0.6-0.2,1.1,0.3,1.6c0.9,0.8,1.7,1.7,2.5,2.5
			c0.5,0.6,1.1,0.8,1.7,0.3c1.1-0.8,2.2-0.7,3.3,0c0.6,0.4,1.4,0.5,2.1,0.9c0.4,0.2,0.9,0.6,1,0.9c0.3,2,1.6,2.3,3.3,2.1
			c0.7-0.1,1.3-0.1,2,0c0.8,0.1,1.3-0.2,1.4-1c0.2-1.3,1-2.1,2.3-2.4c0.7-0.2,1.4-0.6,2.1-0.9c0.4-0.1,1-0.3,1.3-0.1
			c1.6,1.2,2.8,0.5,3.8-0.8c0.5-0.6,1.1-1,1.6-1.7c0.2-0.3,0.4-1,0.3-1.3c-0.9-1.3-0.7-2.6,0.1-3.8c0.3-0.6,0.4-1.3,0.8-1.9
			c0.2-0.4,0.6-0.9,0.9-0.9c1.9-0.3,2.3-1.5,2.1-3.2c-0.1-0.7-0.1-1.4,0-2.2c0.1-0.8-0.3-1.2-1-1.4c-0.6-0.2-1.6-0.4-1.7-0.9
			c-0.6-2.1-2.8-3.9-0.9-6.3C41.4,16,41.4,15.9,41.5,15.7z M72.9,44.8c23.1,0,46,0,68.8,0c0-1.5,0-2.9,0-4.3c-23,0-45.9,0-68.8,0
			C72.9,42,72.9,43.4,72.9,44.8z M141.9,72.6c0-3,0-5.8,0-8.7c0-5-0.1-5-5.1-5c-0.9,0-1.3,0.3-1.8,1.1c-2.2,3.8-4.4,7.6-6.6,11.5
			c-0.2,0.3-0.3,0.7-0.5,1.1C132.6,72.6,137.1,72.6,141.9,72.6z M102.8,104.7c2.9-1.2,5.6-2.2,8.4-3.4c0.3-0.1,0.6-0.5,0.6-0.8
			c0.1-2.3,0-4.6,0-6.9c-3.1,0-6,0-9,0C102.8,97.3,102.8,100.9,102.8,104.7z M139.6,12.8c-1,0-2.1,1.1-2.2,2.1
			c0,1.1,1.2,2.3,2.2,2.2c1-0.1,2.1-1.2,2.1-2.2C141.7,14,140.6,12.8,139.6,12.8z M107.3,12.6c1,0,2.2-1,2.2-2.1c0.1-1-1-2.2-2-2.3
			c-1-0.1-2.3,1.1-2.3,2.1C105.1,11.4,106.2,12.5,107.3,12.6z"/>
		<path class="st0" d="M141.1,146.5"/>
		<path class="st1" d="M8.1,77.3c0.7,0,1.2,0,1.7,0c26.1,0,52.3,0,78.4,0c1.1,0,1.7,0.3,2.3,1.3c2.2,4,4.6,8,6.9,12
			c0.4,0.8,0.7,1.8,0.7,2.7c0.1,5.4,0,10.8,0,16.4c2.2-0.2,4.4,0.4,6.5-0.6c3.6-1.5,7.2-2.9,10.8-4.3c0.8-0.3,1.2-0.7,1.2-1.7
			c-0.1-3.4-0.1-6.7,0-10.1c0-0.7,0.2-1.5,0.6-2.2c2.4-4.2,4.8-8.3,7.2-12.5c0.3-0.5,0.9-1,1.3-1c5.3-0.1,10.7,0,16.2,0
			c0,0.6,0,1.1,0,1.6c0,19.9,0,39.8,0,59.7c0,2.7-0.7,3.3-3.3,3.3c-42.4,0-84.8,0-127.1,0c-2.6,0-3.3-0.7-3.3-3.3
			c0-19.9,0-39.8,0-59.7C8.1,78.4,8.1,77.9,8.1,77.3z M12.8,82c0,12.4,0,24.6,0,36.8c21.5,0,43,0,64.4,0c0-12.3,0-24.5,0-36.8
			C55.7,82,34.3,82,12.8,82z M82,137.2c18.5,0,36.9,0,55.2,0c0-1.6,0-3,0-4.4c-18.5,0-36.8,0-55.2,0C82,134.3,82,135.7,82,137.2z
			 M82.1,123.5c0,1.5,0,3,0,4.5c18.4,0,36.8,0,55.2,0c0-1.5,0-3,0-4.5C118.8,123.5,100.5,123.5,82.1,123.5z M58.9,123.5
			c0,4.6,0,9.1,0,13.7c6.1,0,12.2,0,18.3,0c0-4.6,0-9.1,0-13.7C71.1,123.5,65.1,123.5,58.9,123.5z M91.2,118.8c15.4,0,30.7,0,46,0
			c0-1.6,0-3,0-4.5c-15.4,0-30.7,0-46,0C91.2,115.8,91.2,117.2,91.2,118.8z M12.8,123.5c0,4.7,0,9.2,0,13.7c6.2,0,12.2,0,18.3,0
			c0-4.6,0-9.2,0-13.7C25,123.5,19,123.5,12.8,123.5z M54.2,137.3c0-4.7,0-9.2,0-13.7c-6.2,0-12.2,0-18.3,0c0,4.6,0,9.2,0,13.7
			C42,137.3,48.1,137.3,54.2,137.3z M86.5,118.8c0-1.6,0-3.1,0-4.5c-1.6,0-3,0-4.4,0c0,1.6,0,3,0,4.5
			C83.6,118.8,85,118.8,86.5,118.8z"/>
		<path class="st2" d="M135.4,49.8c-0.8,1.3-1.4,2.5-2.1,3.7c-6.6,11.3-13.1,22.7-19.7,34c-0.6,1-1.1,1.3-2.3,1.3
			c-2.8-0.1-5.7,0-8.5-0.1c-0.5,0-1.2-0.3-1.5-0.8c-7.3-12.5-14.6-25.1-21.8-37.6c-0.1-0.2-0.1-0.3-0.2-0.6
			C98,49.8,116.6,49.8,135.4,49.8z M122.9,53c-4.1,7-8,13.9-12.1,20.9c1.4,0.8,2.7,1.6,4.1,2.4c4.1-7.1,8.1-14,12.1-20.9
			C125.6,54.5,124.3,53.8,122.9,53z M109.7,85.4c1-1.6,1.8-3.2,2.8-4.8c-1.5-0.8-2.8-1.6-4.1-2.4c-1,1.7-1.8,3.1-2.7,4.7
			C106.9,83.8,108.2,84.6,109.7,85.4z"/>
		<path class="st3" d="M8.2,72.6c0-3.9,0-7.7,0-11.6c0-1.2,0.9-1.9,2-2.1c0.4-0.1,0.9,0,1.3,0c22,0,43.9,0,65.9,0
			c1.2,0,1.8,0.4,2.3,1.4c2.1,3.7,4.2,7.3,6.3,11c0.2,0.4,0.4,0.8,0.7,1.3C60.6,72.6,34.4,72.6,8.2,72.6z M35.8,63.5
			c-1.6,0-3.1,0-4.6,0c0,1.6,0,3,0,4.5c1.6,0,3.1,0,4.6,0C35.8,66.5,35.8,65,35.8,63.5z M26.6,63.5c-1.6,0-3.1,0-4.6,0
			c0,1.6,0,3,0,4.5c1.6,0,3.1,0,4.6,0C26.6,66.5,26.6,65,26.6,63.5z M17.3,68.1c0-1.6,0-3.1,0-4.6c-1.6,0-3,0-4.5,0
			c0,1.6,0,3.1,0,4.6C14.4,68.1,15.8,68.1,17.3,68.1z"/>
		<path class="st4" d="M41.5,15.7c-0.1,0.2-0.1,0.3-0.2,0.4c-1.9,2.4,0.4,4.3,0.9,6.3c0.1,0.4,1.1,0.7,1.7,0.9
			c0.8,0.2,1.1,0.6,1,1.4c-0.1,0.7-0.1,1.5,0,2.2c0.2,1.7-0.1,2.9-2.1,3.2c-0.4,0.1-0.7,0.6-0.9,0.9c-0.3,0.6-0.4,1.3-0.8,1.9
			c-0.8,1.3-0.9,2.5-0.1,3.8c0.2,0.3,0,1-0.3,1.3c-0.4,0.6-1.1,1.1-1.6,1.7c-1.1,1.4-2.2,2-3.8,0.8c-0.3-0.2-0.9-0.1-1.3,0.1
			c-0.7,0.2-1.4,0.7-2.1,0.9c-1.3,0.3-2.1,1.1-2.3,2.4c-0.1,0.8-0.6,1.1-1.4,1c-0.7-0.1-1.4-0.1-2,0c-1.7,0.2-3-0.1-3.3-2.1
			c-0.1-0.4-0.6-0.7-1-0.9c-0.7-0.4-1.5-0.5-2.1-0.9c-1.1-0.7-2.2-0.8-3.3,0c-0.7,0.5-1.2,0.3-1.7-0.3c-0.8-0.9-1.7-1.7-2.5-2.5
			c-0.5-0.5-0.7-1-0.3-1.6c0.8-1.1,0.9-2.3,0-3.4c-0.3-0.4-0.4-0.9-0.5-1.3c-0.2-1.2-0.9-1.9-2.1-2.1c-0.9-0.2-1.4-0.7-1.3-1.7
			c0.1-0.7,0.1-1.4,0-2c-0.2-1.6,0.1-2.8,2-3.1c0.4-0.1,0.8-0.6,1-1.1c0.4-0.7,0.5-1.5,0.9-2.1c0.7-1.2,0.8-2.2,0-3.3
			c-0.5-0.7-0.3-1.2,0.3-1.7c0.5-0.4,0.9-0.8,1.3-1.3c1.1-1.4,2.2-2.3,4-1c0.2,0.2,0.8,0.1,1.2-0.1c0.7-0.2,1.3-0.7,2-0.8
			c1.4-0.3,2.2-1.1,2.6-2.5c0.1-0.4,0.8-0.8,1.3-0.9c0.6-0.2,1.3,0,2-0.1c1.7-0.2,3.1,0,3.4,2.2c0,0.3,0.5,0.6,0.9,0.8
			c0.6,0.3,1.3,0.4,1.9,0.8c1.3,0.8,2.5,1,3.8,0.1c0.2-0.2,0.9-0.2,1.1,0c1.1,1,2.2,2.1,3.3,3.2C41.3,15.4,41.4,15.6,41.5,15.7z
			 M38.2,26.5c0-6.4-5.2-11.6-11.6-11.6c-6.5,0-11.7,5.1-11.6,11.7c0,6.4,5.2,11.6,11.6,11.6C33.1,38.2,38.2,33,38.2,26.5z"/>
		<path class="st5" d="M72.9,44.8c0-1.4,0-2.8,0-4.3c22.9,0,45.8,0,68.8,0c0,1.4,0,2.8,0,4.3C118.8,44.8,95.9,44.8,72.9,44.8z"/>
		<path class="st3" d="M141.9,72.6c-4.7,0-9.3,0-14,0c0.2-0.4,0.3-0.8,0.5-1.1c2.2-3.8,4.4-7.6,6.6-11.5c0.4-0.7,0.9-1.1,1.8-1.1
			c5,0,5.1,0.1,5.1,5C141.9,66.8,141.9,69.6,141.9,72.6z"/>
		<path class="st0" d="M102.8,104.7c0-3.8,0-7.4,0-11.1c3,0,5.9,0,9,0c0,2.3,0,4.6,0,6.9c0,0.3-0.4,0.7-0.6,0.8
			C108.5,102.4,105.7,103.5,102.8,104.7z"/>
		<path class="st6" d="M139.6,12.8c1,0,2.1,1.1,2.2,2.1c0,1-1.1,2.2-2.1,2.2c-1,0.1-2.3-1.1-2.2-2.2C137.5,14,138.6,12.9,139.6,12.8
			z"/>
		<path class="st6" d="M107.3,12.6c-1,0-2.1-1.2-2.1-2.2c0-1.1,1.3-2.2,2.3-2.1c1,0.1,2.1,1.3,2,2.3
			C109.4,11.5,108.3,12.6,107.3,12.6z"/>
		<path d="M12.8,82c21.5,0,42.9,0,64.4,0c0,12.3,0,24.5,0,36.8c-21.4,0-42.9,0-64.4,0C12.8,106.5,12.8,94.3,12.8,82z M45,86.7
			c-8.6,0-17.3,0-25.9,0c-1.2,0-1.7,0.2-1.7,1.6c0.1,8.1,0.1,16.2,0,24.4c0,1.2,0.3,1.6,1.5,1.6c17.4,0,34.8,0,52.2,0
			c1.2,0,1.5-0.4,1.5-1.6c0-8.1-0.1-16.1,0-24.2c0-1.5-0.5-1.7-1.8-1.7C62.2,86.7,53.6,86.7,45,86.7z"/>
		<path d="M82,137.2c0-1.5,0-2.9,0-4.4c18.4,0,36.7,0,55.2,0c0,1.4,0,2.9,0,4.4C118.9,137.2,100.5,137.2,82,137.2z"/>
		<path d="M82.1,123.5c18.4,0,36.8,0,55.2,0c0,1.5,0,3,0,4.5c-18.4,0-36.8,0-55.2,0C82.1,126.5,82.1,125,82.1,123.5z"/>
		<path d="M58.9,123.5c6.1,0,12.2,0,18.3,0c0,4.6,0,9.1,0,13.7c-6.1,0-12.2,0-18.3,0C58.9,132.6,58.9,128.1,58.9,123.5z M63.6,132.5
			c3.1,0,6,0,9,0c0-1.5,0-2.9,0-4.3c-3,0-6,0-9,0C63.6,129.7,63.6,131.1,63.6,132.5z"/>
		<path d="M91.2,118.8c0-1.5,0-2.9,0-4.5c15.3,0,30.6,0,46,0c0,1.4,0,2.9,0,4.5C121.9,118.8,106.7,118.8,91.2,118.8z"/>
		<path d="M12.8,123.5c6.1,0,12.2,0,18.3,0c0,4.6,0,9.1,0,13.7c-6.1,0-12.1,0-18.3,0C12.8,132.7,12.8,128.2,12.8,123.5z M17.5,132.6
			c3,0,6,0,9,0c0-1.5,0-2.9,0-4.4c-3,0-6,0-9,0C17.5,129.6,17.5,131,17.5,132.6z"/>
		<path d="M54.2,137.3c-6.1,0-12.2,0-18.3,0c0-4.6,0-9.1,0-13.7c6.1,0,12.1,0,18.3,0C54.2,128.1,54.2,132.6,54.2,137.3z M49.5,132.6
			c0-1.6,0-3,0-4.4c-3.1,0-6,0-9,0c0,1.5,0,2.9,0,4.4c0.5,0,0.9,0,1.3,0C44.4,132.6,46.9,132.6,49.5,132.6z"/>
		<path d="M86.5,118.8c-1.5,0-2.9,0-4.4,0c0-1.5,0-2.9,0-4.5c1.4,0,2.9,0,4.4,0C86.5,115.7,86.5,117.2,86.5,118.8z"/>
		<path d="M122.9,53c1.4,0.8,2.7,1.5,4.1,2.4c-4,7-8,13.9-12.1,20.9c-1.4-0.8-2.7-1.6-4.1-2.4C114.9,66.9,118.9,60,122.9,53z"/>
		<path d="M109.7,85.4c-1.5-0.9-2.7-1.6-4.1-2.4c0.9-1.6,1.8-3.1,2.7-4.7c1.4,0.8,2.7,1.5,4.1,2.4C111.5,82.3,110.6,83.8,109.7,85.4
			z"/>
		<path d="M35.8,63.5c0,1.5,0,2.9,0,4.5c-1.5,0-3,0-4.6,0c0-1.5,0-2.9,0-4.5C32.7,63.5,34.2,63.5,35.8,63.5z"/>
		<path d="M26.6,63.5c0,1.5,0,3,0,4.5c-1.5,0-3,0-4.6,0c0-1.5,0-2.9,0-4.5C23.5,63.5,25,63.5,26.6,63.5z"/>
		<path d="M17.3,68.1c-1.5,0-3,0-4.5,0c0-1.5,0-3,0-4.6c1.5,0,3,0,4.5,0C17.3,65,17.3,66.5,17.3,68.1z"/>
		<path d="M38.2,26.5c0,6.6-5.1,11.7-11.6,11.7C20.1,38.2,15,33,15,26.6c0-6.6,5.1-11.7,11.6-11.7C33.1,14.9,38.2,20,38.2,26.5z
			 M26.5,33.5c3.8,0,6.9-3.1,7-6.8c0.1-3.8-3.1-7-6.9-7c-3.8,0-6.9,3.1-7,6.8C19.6,30.3,22.7,33.4,26.5,33.5z"/>
		<path class="st6" d="M45,86.7c8.6,0,17.2,0,25.8,0c1.3,0,1.8,0.3,1.8,1.7c-0.1,8.1-0.1,16.1,0,24.2c0,1.1-0.3,1.6-1.5,1.6
			c-17.4,0-34.8,0-52.2,0c-1.2,0-1.5-0.4-1.5-1.6c0-8.1,0.1-16.2,0-24.4c0-1.3,0.4-1.6,1.7-1.6C27.7,86.7,36.4,86.7,45,86.7z"/>
		<path class="st7" d="M63.6,132.5c0-1.5,0-2.8,0-4.3c3,0,5.9,0,9,0c0,1.4,0,2.8,0,4.3C69.6,132.5,66.7,132.5,63.6,132.5z"/>
		<path class="st7" d="M17.5,132.6c0-1.5,0-2.9,0-4.4c3,0,6,0,9,0c0,1.5,0,2.9,0,4.4C23.4,132.6,20.5,132.6,17.5,132.6z"/>
		<path class="st8" d="M49.5,132.6c-2.6,0-5.1,0-7.7,0c-0.4,0-0.8,0-1.3,0c0-1.5,0-2.9,0-4.4c3,0,5.9,0,9,0
			C49.5,129.6,49.5,131,49.5,132.6z"/>
	</g>
</g>
</svg>
