<?xml version="1.0" encoding="utf-8"?>
<!-- Generator: Adobe Illustrator 24.0.2, SVG Export Plug-In . SVG Version: 6.00 Build 0)  -->
<svg version="1.1" xmlns="http://www.w3.org/2000/svg" xmlns:xlink="http://www.w3.org/1999/xlink" x="0px" y="0px"
	 viewBox="0 0 150 150" style="enable-background:new 0 0 150 150;" xml:space="preserve">
<style type="text/css">
	.st0{fill:#FFD345;}
	.st1{fill:#8ED7FF;}
	.st2{fill:#FF7966;}
	.st3{fill:#8ED75B;}
	.st4{fill:#FF9300;}
	.st5{fill:#FFFFFF;}
</style>
<g id="svg833" xmlns:cc="http://creativecommons.org/ns#" xmlns:dc="http://purl.org/dc/elements/1.1/" xmlns:inkscape="http://www.inkscape.org/namespaces/inkscape" xmlns:rdf="http://www.w3.org/1999/02/22-rdf-syntax-ns#" xmlns:sodipodi="http://sodipodi.sourceforge.net/DTD/sodipodi-0.dtd" xmlns:svg="http://www.w3.org/2000/svg">
	
		<sodipodi:namedview  bordercolor="#666666" borderopacity="1" gridtolerance="10" guidetolerance="10" id="namedview835" inkscape:current-layer="layer1" inkscape:cx="117.10526" inkscape:cy="138.68421" inkscape:document-rotation="0" inkscape:guide-bbox="true" inkscape:pageopacity="0" inkscape:pageshadow="2" inkscape:window-height="706" inkscape:window-maximized="0" inkscape:window-width="1279" inkscape:window-x="0" inkscape:window-y="23" inkscape:zoom="1.6326744" objecttolerance="10" pagecolor="#ffffff" showgrid="false" showguides="true">
		<sodipodi:guide  id="guide1003" orientation="0,-1" position="216.33554,137.88079"></sodipodi:guide>
	</sodipodi:namedview>
	<g id="YTjhDQ.tif">
		<g>
			<polygon class="st0" points="6.3,4.6 91,4.6 107.9,21.5 107.9,145.1 6.3,145.1 			"/>
			<path d="M90.5,2c6.7,6.7,13.4,13.3,20.1,20c0.5,0.5,0.8,1.4,0.8,2.2c0,14.3-0.1,35.9-0.1,50.2c0,0.1-0.1,0.3-0.1,0.5
				c-1.5,0-3,0-4.7,0c0-13.6,0.1-34.7,0.1-48.6c-2,0-3.9,0-5.7,0c-2.1,0-4.2,0-6.4,0c-4.3-0.1-7.4-3.2-7.4-7.4c0-3.9,0-7.9,0-12
				c-0.6,0-1.2,0-1.7,0c-25,0-50,0-75,0C7.7,6.9,7,7.6,7,10.4c0,43,0,86,0,129c0,2.7,0.7,3.5,3.4,3.5c21.1,0,42.2,0,63.3,0
				c0.4,0,0.9,0,1.8,0c-12-7.4-18.7-17.8-19.8-31.4c-0.7-9.9,2.2-18.9,8.3-26.7c12.7-16.2,38.2-20.6,56.4-4.8
				c0.3-0.9,0.7-1.6,0.7-2.4c0.1-5.7,0-11.3,0-17.1c1.6,0,3.1,0,4.8,0c0,4.3,0,8.7,0,13.5c1.8-1.8,3.3-3.3,4.8-4.8
				c0.2-0.3,0.2-0.9,0.2-1.3c0-4,0-8.1,0-12.2c1.6,0,3.2,0,4.8,0c0,4,0,7.9,0,12c4.1,0,8.2,0,12.2,0c0,1.6,0,3.2,0,4.9
				c-4.1,0-8.2,0-12.3,0c-0.4,0-1-0.1-1.3,0.1c-1.6,1.4-3,3-4.8,4.8c4.8,0,9.1,0,13.5,0c0,1.7,0,3.2,0,4.8c-5.8,0-11.4,0-17.1,0
				c-0.8,0-1.5,0.4-2.5,0.7c0.7,0.8,1.1,1.3,1.5,1.9c5.1,6.5,8,13.9,8.4,22.2c1.1,22.3-16.4,40.7-38.7,40.8c-28.2,0.1-56.4,0-84.5,0
				c-4.8,0-7.8-3-7.8-7.9c0-43.3,0-86.6,0-129.9c0-0.7,0-1.4,0.2-2.1C3,4.7,5.2,3,7.9,2C35.5,2,63,2,90.5,2z M107.8,91.7
				c-8.1-6.8-21.7-6.6-29.9,2.8c-7.9,9-7.1,22.9,1.9,30.8c9.1,8,22.9,7.2,30.9-1.8c8.3-9.3,6.2-22.2,0.7-27.9c-1.7,1.7-3.3,3.3-5,5
				c5.1,8.1,1.7,16.3-3.4,20.1c-5.8,4.2-13.9,3.7-19-1.4c-5.1-5.1-5.7-13.3-1.4-19c3.9-5.3,12.1-8.5,20.1-3.4
				C104.4,95.1,106.1,93.5,107.8,91.7z M92.1,10.6c0,2.9,0,5.7,0,8.6c0,1.2,0.8,2.1,2,2.2c2.9,0.1,5.8,0,8.7,0
				C99.2,17.8,95.7,14.3,92.1,10.6z"/>
			<path d="M31.5,133.1c4.1,0,7.9,0,11.8,0c0,1.6,0,3.2,0,4.9c-1.5,0-3,0-4.5,0c-3.9,0-7.8,0-11.7,0c-1.3,0-2.2-0.4-3-1.4
				c-2.9-3.7-6-7.4-8.9-11.2c-0.6-0.7-1-1.8-1-2.7c0-32.1,0-64.1,0-96.2c0-6.4,4.5-11.5,10.7-12.3c5.8-0.8,11.5,3,13.1,8.8
				c0.3,1.2,0.5,2.5,0.5,3.7c0,32,0,63.9,0,95.9c0,1-0.5,2.2-1.1,3C35.7,128.1,33.7,130.4,31.5,133.1z M33.5,120.8
				c0-25.1,0-50,0-74.9c-1.5,0-3,0-4.4,0c0,25,0,49.9,0,74.9C30.6,120.8,32,120.8,33.5,120.8z M33.7,31.1c0-1.8,0.1-3.7,0-5.5
				c-0.3-3.4-3.1-6.2-6.5-6.5c-3.3-0.3-6.8,1.8-7.5,5c-0.5,2.2-0.4,4.6-0.6,7C24.1,31.1,28.8,31.1,33.7,31.1z M33.6,36.1
				c-4.8,0-9.5,0-14.3,0c0,1.6,0,3,0,4.6c4.8,0,9.5,0,14.3,0C33.6,39.2,33.6,37.8,33.6,36.1z"/>
			<path d="M72.5,45.7c-7.3,0-14.6,0-21.9,0c-3.5,0-6.3-2.4-7-5.8c-0.7-3.1,0.9-6.6,3.9-8c1-0.5,2.2-0.8,3.3-0.8
				c14.5-0.1,29,0,43.6,0c4.2,0,7.4,3.2,7.3,7.3c0,4-3.2,7.2-7.4,7.3C87.1,45.7,79.8,45.7,72.5,45.7z M72.4,40.7
				c6.9,0,13.8,0,20.8,0c2.3,0,3.6-0.9,3.5-2.4c-0.1-1.5-1.3-2.3-3.5-2.3c-13.7,0-27.5,0-41.2,0c-0.5,0-0.9,0-1.4,0
				c-1.3,0.2-2.3,1.3-2.2,2.3c0.1,1.3,0.9,2,2.1,2.2c0.4,0.1,0.9,0,1.4,0C58.8,40.7,65.6,40.7,72.4,40.7z"/>
			<path d="M72.6,65.1c-7.3,0-14.6,0-21.9,0c-3.8,0-6.9-2.9-7.2-6.6c-0.3-3.7,2.1-7,5.8-7.8c0.5-0.1,1.1-0.2,1.7-0.2
				c14.5,0,28.9,0,43.4,0c3.9,0,7.1,2.9,7.4,6.6c0.3,3.7-2.2,7.1-6,7.8c-0.7,0.1-1.4,0.1-2.1,0.1C86.6,65.2,79.6,65.1,72.6,65.1
				C72.6,65.1,72.6,65.1,72.6,65.1z M72.6,60.2c6.9,0,13.7,0,20.6,0c2.3,0,3.5-0.8,3.5-2.3c0.1-1.5-1.2-2.4-3.5-2.4
				c-13.7,0-27.5,0-41.2,0c-0.4,0-0.8,0-1.2,0c-1.3,0.2-2.1,0.9-2.3,2.2c-0.1,1.1,1,2.2,2.3,2.4c0.4,0,0.8,0,1.2,0
				C58.9,60.2,65.7,60.2,72.6,60.2z"/>
			<path d="M62.9,26.3c-3.9,0-7.8,0-11.7,0c-4.4,0-7.7-3.1-7.7-7.2c0-4.2,3.3-7.3,7.8-7.3c7.8,0,15.6,0,23.4,0
				c4.4,0,7.7,3.1,7.7,7.2c0,4.2-3.3,7.3-7.8,7.3C70.7,26.3,66.8,26.3,62.9,26.3z M62.9,16.7c-3.9,0-7.8,0-11.7,0
				c-1.6,0-2.7,1-2.8,2.2c0,1.3,1.1,2.4,2.6,2.4c7.9,0,15.8,0,23.6,0c0.7,0,1.6-0.5,2-1c0.4-0.5,0.6-1.7,0.2-2.2
				c-0.5-0.7-1.6-1.3-2.4-1.4C70.7,16.6,66.8,16.7,62.9,16.7z"/>
			<path d="M53.1,133.2c0,1.6,0,3.1,0,4.7c-1.5,0-3.1,0-4.7,0c0-1.5,0-3.1,0-4.7C49.9,133.2,51.4,133.2,53.1,133.2z"/>
			<path d="M62.8,133.2c0,1.6,0,3.1,0,4.7c-1.6,0-3.1,0-4.7,0c0-1.5,0-3,0-4.7C59.6,133.2,61.2,133.2,62.8,133.2z"/>
			<path class="st1" d="M107.8,91.7c-1.7,1.7-3.4,3.4-5.1,5.1c-8-5.1-16.2-1.9-20.1,3.4c-4.3,5.8-3.7,13.9,1.4,19
				c5.1,5.1,13.2,5.7,19,1.4c5.1-3.8,8.5-12,3.4-20.1c1.7-1.7,3.4-3.4,5-5c5.5,5.7,7.5,18.6-0.7,27.9c-8,9-21.9,9.8-30.9,1.8
				c-9-7.9-9.8-21.8-1.9-30.8C86.2,85.1,99.8,84.9,107.8,91.7z"/>
			<path class="st2" d="M92.1,10.6c3.6,3.6,7.1,7.1,10.7,10.7c-2.9,0-5.8,0.1-8.7,0c-1.2,0-2-1-2-2.2C92,16.4,92.1,13.6,92.1,10.6z"
				/>
			<path class="st3" d="M33.5,120.8c-1.5,0-2.9,0-4.4,0c0-25,0-49.9,0-74.9c1.4,0,2.9,0,4.4,0C33.5,70.8,33.5,95.7,33.5,120.8z"/>
			<path class="st4" d="M33.7,31.1c-4.9,0-9.6,0-14.6,0c0.2-2.4,0-4.8,0.6-7c0.8-3.2,4.2-5.4,7.5-5c3.4,0.3,6.2,3.1,6.5,6.5
				C33.8,27.4,33.7,29.2,33.7,31.1z"/>
			<path class="st5" d="M33.6,36.1c0,1.6,0,3.1,0,4.6c-4.8,0-9.5,0-14.3,0c0-1.6,0-3,0-4.6C24.1,36.1,28.8,36.1,33.6,36.1z"/>
			<path class="st5" d="M72.4,40.7c-6.8,0-13.6,0-20.5,0c-0.5,0-0.9,0-1.4,0c-1.2-0.2-2-1-2.1-2.2c-0.1-1.1,0.9-2.2,2.2-2.3
				c0.4-0.1,0.9,0,1.4,0c13.7,0,27.5,0,41.2,0c2.3,0,3.5,0.8,3.5,2.3c0.1,1.5-1.2,2.4-3.5,2.4C86.3,40.7,79.4,40.7,72.4,40.7z"/>
			<path class="st5" d="M72.6,60.2c-6.9,0-13.7,0-20.6,0c-0.4,0-0.8,0-1.2,0c-1.3-0.2-2.4-1.2-2.3-2.4c0.1-1.3,1-2.1,2.3-2.2
				c0.4-0.1,0.8,0,1.2,0c13.7,0,27.5,0,41.2,0c2.3,0,3.6,0.9,3.5,2.4c-0.1,1.5-1.3,2.3-3.5,2.3C86.4,60.2,79.5,60.2,72.6,60.2z"/>
			<path class="st5" d="M62.9,16.7c3.9,0,7.8-0.1,11.7,0.1c0.9,0,1.9,0.7,2.4,1.4c0.3,0.4,0.2,1.6-0.2,2.2c-0.4,0.6-1.3,1-2,1
				c-7.9,0.1-15.8,0.1-23.6,0c-1.6,0-2.7-1.1-2.6-2.4c0-1.3,1.1-2.2,2.8-2.2C55.1,16.7,59,16.7,62.9,16.7z"/>
		</g>
	</g>
</g>
<g id="Layer_3">
</g>
<g id="Layer_2">
</g>
</svg>
