<?xml version="1.0" encoding="utf-8"?>
<!-- Generator: Adobe Illustrator 24.0.2, SVG Export Plug-In . SVG Version: 6.00 Build 0)  -->
<svg version="1.1" xmlns="http://www.w3.org/2000/svg" xmlns:xlink="http://www.w3.org/1999/xlink" x="0px" y="0px"
	 viewBox="0 0 150 150" style="enable-background:new 0 0 150 150;" xml:space="preserve">
<style type="text/css">
	.st0{fill:#867EE9;}
	.st1{fill:#91C6FF;}
	.st2{fill:#FFFFFF;}
	.st3{fill:#FF697C;}
	.st4{fill:#FFC9BB;}
	.st5{fill:#BAECD8;}
</style>
<g id="svg833" xmlns:cc="http://creativecommons.org/ns#" xmlns:dc="http://purl.org/dc/elements/1.1/" xmlns:inkscape="http://www.inkscape.org/namespaces/inkscape" xmlns:rdf="http://www.w3.org/1999/02/22-rdf-syntax-ns#" xmlns:sodipodi="http://sodipodi.sourceforge.net/DTD/sodipodi-0.dtd" xmlns:svg="http://www.w3.org/2000/svg">
	
		<sodipodi:namedview  bordercolor="#666666" borderopacity="1" gridtolerance="10" guidetolerance="10" id="namedview835" inkscape:current-layer="layer1" inkscape:cx="117.10526" inkscape:cy="138.68421" inkscape:document-rotation="0" inkscape:guide-bbox="true" inkscape:pageopacity="0" inkscape:pageshadow="2" inkscape:window-height="706" inkscape:window-maximized="0" inkscape:window-width="1279" inkscape:window-x="0" inkscape:window-y="23" inkscape:zoom="1.6326744" objecttolerance="10" pagecolor="#ffffff" showgrid="false" showguides="true">
		<sodipodi:guide  id="guide1003" orientation="0,-1" position="216.33554,137.88079"></sodipodi:guide>
	</sodipodi:namedview>
	<g id="XoLMp9.tif">
		<g>
			<path d="M22,148.8c-1.5-0.8-2-2.1-2.1-3.8c-0.8-14.6-1.7-29.2-2.6-43.8c0-0.6-0.1-1.1-0.2-1.9c-1.6,0-3.1,0-4.7,0
				c-2.5,0-3.5-1-3.5-3.5c0-13.5,0-27,0-40.5c0-5.1,3.7-9,8.8-9c11.4-0.1,22.8-0.1,34.1,0c4.9,0,8.7,3.9,8.8,8.8
				c0.1,13.7,0,27.4,0,41.1c0,2-1.2,3.1-3.2,3.1c-1.6,0-3.3,0-5,0c-0.1,1.9-0.3,3.7-0.4,5.4c-0.7,12-1.4,24-2.1,35.9
				c-0.1,1.6-0.2,3.3-0.3,4.9c0,1.5-0.9,2.4-2,3.1C39,148.8,30.5,148.8,22,148.8z M25.8,52.3c-0.2-0.1-0.3-0.1-0.4-0.1
				c-2.3,0-4.5,0-6.8,0c-2.8,0-3.9,1-3.9,3.8c0,11.7,0,23.3,0,35c0,2.5-0.5,2.3,2.4,2.4c1.4,0.1,1.9-0.3,1.9-1.8
				c-0.1-7.6,0-15.3,0-22.9c0-0.6,0-1.2,0.1-1.7c0.3-1.4,1.6-2.4,2.9-2.4c1.4,0,2.6,0.9,2.9,2.4c0.2,0.6,0.2,1.3,0.2,2
				c0,7.6,0,15.3,0,22.9c0,1.2,0.3,1.6,1.6,1.6c5.3-0.1,10.6-0.1,16,0c1.3,0,1.6-0.4,1.6-1.7c-0.1-7.7,0-15.4,0-23.1
				c0-0.4,0-0.9,0-1.3c0.2-1.6,1.5-2.8,3-2.9c1.5,0,2.7,1,3,2.6c0.1,0.7,0.1,1.3,0.1,2c0,7.2,0,14.3,0,21.5c0,3-0.5,2.7,2.8,2.8
				c1.2,0,1.5-0.4,1.5-1.6c-0.1-4.7,0-9.4,0-14.1c0-7.3,0-14.6,0-21.9c0-2.1-1-3.5-2.8-3.6c-2.7-0.1-5.5,0-8.2,0
				c-0.7,6.4-5.3,8.9-9.1,8.9C30.5,61,26.3,58.1,25.8,52.3z M43.8,142.9c0.9-14.5,1.7-28.9,2.6-43.4c-7.9,0-15.6,0-23.4,0
				c0.9,14.5,1.8,29,2.6,43.4C31.8,142.9,37.7,142.9,43.8,142.9z M31.9,52.2c0.2,1.9,1.2,2.9,2.8,2.9c1.6,0,2.6-1,2.8-2.9
				C35.7,52.2,33.8,52.2,31.9,52.2z"/>
			<path d="M98.9,148.8c-1.5-0.8-2.1-2-2.1-3.8c0.1-4,0-8,0-12c0-5,3.2-8.4,8.1-8.5c9-0.1,18.1-0.1,27.1,0c4.8,0.1,8,3.4,8.1,8.2
				c0.1,4.1,0,8.2,0,12.3c0,1.8-0.6,3-2.1,3.7C125.1,148.8,112,148.8,98.9,148.8z M118.5,142.9c4.8,0,9.6,0,14.4,0
				c1,0,1.5-0.2,1.4-1.4c-0.1-2.8,0-5.6,0-8.4c0-1.9-0.6-2.6-2.5-2.6c-8.8,0-17.6,0-26.4,0c-1.9,0-2.5,0.7-2.5,2.6
				c0,2.7,0.1,5.4,0,8.1c0,1.2,0.3,1.7,1.6,1.7C109.1,142.8,113.8,142.9,118.5,142.9z"/>
			<path d="M82.1,114c3.2,0,6.3,0,9.4,0c2.2,0,3.5,1.1,3.5,3c0,1.8-1.3,2.8-3.5,2.8c-3.7,0-7.4,0-11,0c-3.5,0-4.3-0.8-4.3-4.2
				c0-15.2,0-30.3,0-45.5c0-12.3,0-24.6,0-36.9c0-3.2,0.9-4,4.1-4c3.8,0,7.6,0,11.3,0c2.1,0,3.4,1.1,3.4,2.9c0,1.8-1.3,2.9-3.4,2.9
				c-3.1,0-6.3,0-9.5,0c0,12.2,0,24.3,0,36.6c2.7,0,5.4,0,8,0c2.1,0,4.2,0,6.2,0c1.9,0,3.2,1.2,3.2,2.8c0,1.7-1.3,2.9-3.3,2.9
				c-4.2,0-8.3,0-12.5,0c-0.5,0-1.1,0-1.7,0C82.1,89.5,82.1,101.7,82.1,114z"/>
			<path d="M13.7,21.1C13.5,9.9,23,0.2,34.3,0.1C46.1-0.1,55.5,9.1,55.7,21c0.2,11.4-9.3,21.1-20.9,21.2
				C23.2,42.3,13.8,32.9,13.7,21.1z M19.5,21.3c0.3,8.7,7.1,15.3,15.7,15c8.3-0.3,15-7.3,14.7-15.7c-0.3-8.4-7.3-15-15.7-14.7
				C26,6.2,19.3,13.3,19.5,21.3z"/>
			<path d="M118.5,64c-6,0-12,0-18,0c-2.7,0-3.6-1-3.6-3.7c0-4.2,0-8.3,0-12.5c0-4.4,3-7.9,7.5-8c5.4-0.2,10.8-0.1,16.3-0.1
				c4.1,0,8.2-0.1,12.3,0.1c3.9,0.2,7.1,3.3,7.2,7.2c0.2,4.7,0.1,9.5,0.1,14.2c0,1.7-1.3,2.7-3.2,2.7C130.8,64,124.7,64,118.5,64z
				 M134.4,58.1c0-3.2,0-6.2,0-9.2c0-2.8-0.5-3.3-3.3-3.3c-8.4,0-16.7,0-25.1,0c-0.5,0-1.1-0.1-1.4,0.1c-0.7,0.5-1.7,1.2-1.7,1.8
				c-0.2,3.5-0.1,7-0.1,10.6C113.3,58.1,123.7,58.1,134.4,58.1z"/>
			<path d="M100.2,103.1c0-10.1,8.2-18.2,18.3-18.2c10.1,0,18.3,8.2,18.3,18.4c0.1,10-8.4,18.3-18.5,18.2
				C108.3,121.4,100.2,113.2,100.2,103.1z M106.1,103.3c0.2,7.1,5.7,12.5,12.6,12.4c6.8-0.1,12.4-5.8,12.3-12.5
				c-0.2-7.2-5.8-12.6-12.9-12.4C111.4,90.9,106,96.6,106.1,103.3z"/>
			<path d="M100.2,18.4c-0.2-9.8,8.1-18.2,17.9-18.4c10.3-0.1,18.6,8,18.7,18.3c0.2,9.8-8.2,18.2-18.2,18.3
				C108.6,36.8,100.4,28.7,100.2,18.4z M118.7,5.9c-6.7-0.1-12.4,5.4-12.5,12.1c-0.1,7.2,5.3,12.8,12.3,12.9
				c6.8,0.1,12.6-5.6,12.6-12.4C131.1,11.6,125.5,6,118.7,5.9z"/>
			<path d="M128.7,77.4c-2.7,0-5.4,0-8.1,0c-2.2,0-3.4-1.1-3.4-2.9c0-1.8,1.2-2.9,3.4-2.9c5.5,0,10.9,0,16.4,0c2,0,3.3,1.1,3.3,2.9
				c0,1.8-1.2,2.9-3.4,2.9C134.2,77.4,131.5,77.4,128.7,77.4z"/>
			<path d="M111.8,74.4c0,1.6-1.3,3-2.9,2.9c-1.5,0-2.8-1.3-2.8-2.9c0-1.6,1.3-2.9,2.9-2.9C110.5,71.6,111.8,72.9,111.8,74.4z"/>
			<path class="st0" d="M25.8,52.3c0.4,5.8,4.7,8.7,8.8,8.8c3.8,0,8.4-2.4,9.1-8.9c2.7,0,5.5-0.1,8.2,0c1.8,0.1,2.8,1.5,2.8,3.6
				c0,7.3,0,14.6,0,21.9c0,4.7,0,9.4,0,14.1c0,1.2-0.3,1.6-1.5,1.6c-3.3-0.1-2.8,0.2-2.8-2.8c0-7.2,0-14.3,0-21.5c0-0.7,0-1.4-0.1-2
				c-0.3-1.6-1.5-2.6-3-2.6c-1.5,0-2.8,1.3-3,2.9c0,0.4,0,0.9,0,1.3c0,7.7,0,15.4,0,23.1c0,1.3-0.3,1.7-1.6,1.7
				c-5.3-0.1-10.6-0.1-16,0c-1.2,0-1.6-0.4-1.6-1.6c0-7.6,0-15.3,0-22.9c0-0.7,0-1.4-0.2-2c-0.3-1.4-1.5-2.4-2.9-2.4
				c-1.4,0-2.6,1-2.9,2.4C19,67.5,19,68.1,19,68.6c0,7.6-0.1,15.3,0,22.9c0,1.5-0.5,1.9-1.9,1.8c-2.9-0.1-2.4,0.1-2.4-2.4
				c0-11.7,0-23.3,0-35c0-2.8,1-3.8,3.9-3.8c2.3,0,4.5,0,6.8,0C25.5,52.2,25.6,52.2,25.8,52.3z"/>
			<path class="st1" d="M43.8,142.9c-6.1,0-12,0-18.2,0c-0.9-14.4-1.7-28.8-2.6-43.4c7.8,0,15.5,0,23.4,0
				C45.6,114,44.7,128.4,43.8,142.9z"/>
			<path class="st2" d="M31.9,52.2c1.9,0,3.8,0,5.6,0c-0.2,1.9-1.2,2.9-2.8,2.9C33.1,55.1,32.1,54.1,31.9,52.2z"/>
			<path class="st3" d="M118.5,142.9c-4.7,0-9.4,0-14.1,0c-1.3,0-1.6-0.4-1.6-1.7c0.1-2.7,0-5.4,0-8.1c0-1.9,0.7-2.6,2.5-2.6
				c8.8,0,17.6,0,26.4,0c1.9,0,2.5,0.7,2.5,2.6c0,2.8,0,5.6,0,8.4c0,1.1-0.4,1.4-1.4,1.4C128.1,142.9,123.3,142.9,118.5,142.9z"/>
			<path class="st4" d="M19.5,21.3c-0.3-8,6.4-15.1,14.6-15.4c8.4-0.3,15.4,6.3,15.7,14.7c0.3,8.4-6.3,15.5-14.7,15.7
				C26.7,36.6,19.8,30,19.5,21.3z"/>
			<path class="st5" d="M134.4,58.1c-10.7,0-21.1,0-31.7,0c0-3.6-0.1-7.1,0.1-10.6c0-0.6,1.1-1.3,1.7-1.8c0.3-0.2,0.9-0.1,1.4-0.1
				c8.4,0,16.7,0,25.1,0c2.8,0,3.3,0.5,3.3,3.3C134.4,51.9,134.4,55,134.4,58.1z"/>
			<path class="st4" d="M106.1,103.3c-0.2-6.7,5.3-12.4,12-12.6c7.1-0.2,12.7,5.2,12.9,12.4c0.2,6.7-5.4,12.4-12.3,12.5
				C111.8,115.8,106.3,110.4,106.1,103.3z"/>
			<path class="st4" d="M118.7,5.9c6.8,0.1,12.4,5.7,12.4,12.6c0,6.8-5.8,12.4-12.6,12.4c-7-0.1-12.4-5.7-12.3-12.9
				C106.2,11.3,111.9,5.9,118.7,5.9z"/>
		</g>
	</g>
</g>
<g id="Layer_3">
</g>
<g id="Layer_2">
</g>
</svg>
