<?xml version="1.0" encoding="utf-8"?>
<!-- Generator: Adobe Illustrator 24.0.2, SVG Export Plug-In . SVG Version: 6.00 Build 0)  -->
<svg version="1.1" xmlns="http://www.w3.org/2000/svg" xmlns:xlink="http://www.w3.org/1999/xlink" x="0px" y="0px"
	 viewBox="0 0 150 150" style="enable-background:new 0 0 150 150;" xml:space="preserve">
<style type="text/css">
	.st0{fill:#F2F9FF;}
	.st1{fill:#E2F4FF;}
	.st2{fill:#4A80AA;}
	.st3{fill:#E28086;}
	.st4{fill:#5B8EB7;}
	.st5{fill:#365E7D;}
	.st6{fill:#EAB14D;}
	.st7{fill:#FFB400;}
	.st8{fill:#E31624;}
	.st9{fill:#FF2934;}
</style>
<g id="svg833" xmlns:cc="http://creativecommons.org/ns#" xmlns:dc="http://purl.org/dc/elements/1.1/" xmlns:inkscape="http://www.inkscape.org/namespaces/inkscape" xmlns:rdf="http://www.w3.org/1999/02/22-rdf-syntax-ns#" xmlns:sodipodi="http://sodipodi.sourceforge.net/DTD/sodipodi-0.dtd" xmlns:svg="http://www.w3.org/2000/svg">
	
		<sodipodi:namedview  bordercolor="#666666" borderopacity="1" gridtolerance="10" guidetolerance="10" id="namedview835" inkscape:current-layer="layer1" inkscape:cx="117.10526" inkscape:cy="138.68421" inkscape:document-rotation="0" inkscape:guide-bbox="true" inkscape:pageopacity="0" inkscape:pageshadow="2" inkscape:window-height="706" inkscape:window-maximized="0" inkscape:window-width="1279" inkscape:window-x="0" inkscape:window-y="23" inkscape:zoom="1.6326744" objecttolerance="10" pagecolor="#ffffff" showgrid="false" showguides="true">
		<sodipodi:guide  id="guide1003" orientation="0,-1" position="216.33554,137.88079"></sodipodi:guide>
	</sodipodi:namedview>
	<g>
		<g>
			<g>
				<g>
					<g>
						<g>
							<g>
								<path class="st0" d="M139,134.6H17.6c-5.8,0-10.4-4.7-10.4-10.4V26.5H139c2.9,0,5.2,2.3,5.2,5.2v97.7
									C144.2,132.3,141.9,134.6,139,134.6L139,134.6z"/>
								<path class="st1" d="M139,26.5h-13.9v93.6c0,2.9-2.4,5.3-5.3,5.3H17.6c-5.8,0-10.4-4.7-10.4-10.4v9.2
									c0,5.8,4.7,10.4,10.4,10.4H139c2.9,0,5.2-2.3,5.2-5.2V31.7C144.2,28.8,141.9,26.5,139,26.5L139,26.5z"/>
								<g>
									<path class="st2" d="M7.2,26.5v97.7c0-5.7,4.7-10.4,10.4-10.4H26c2,0,3.6-1.6,3.6-3.6V19.7c0-2-1.6-3.6-3.6-3.6h-8.4
										C11.9,16.1,7.2,20.8,7.2,26.5z"/>
								</g>
							</g>
						</g>
					</g>
				</g>
				<g>
					<g>
						<path class="st3" d="M107,29v96.4c0,1.4,0.2,2.9,0.7,4.2l5.1,15.4c1.1,3.2,5.6,3.2,6.7,0l5.1-15.4c0.4-1.4,0.7-2.8,0.7-4.2V29
							L107,29z"/>
						<path class="st4" d="M125.2,24V12.3c0-5-4.1-9.1-9.1-9.1c-5,0-9.1,4.1-9.1,9.1V24L125.2,24L125.2,24z"/>
					</g>
					<g>
						<path class="st5" d="M107,125.4h18.1c0,1.4-0.2,2.9-0.7,4.2l-5.1,15.4c-1.1,3.2-5.6,3.2-6.7,0l-5.1-15.4
							C107.2,128.3,107,126.9,107,125.4z"/>
					</g>
					<path class="st6" d="M107,21.5h18.1v10H107V21.5z"/>
				</g>
			</g>
		</g>
		<g>
			<path d="M139,24.3h-11.7v-12c0-6.2-5-11.2-11.3-11.2c-6.2,0-11.3,5-11.3,11.2v12H31.8v-4.6c0-3.2-2.6-5.8-5.8-5.8h-8.4
				C10.7,13.9,5,19.6,5,26.5v97.7v0c0,0,0,0,0,0c0,6.9,5.7,12.6,12.6,12.6h90.1l2.9,8.9c0.8,2.4,2.9,3.9,5.4,3.9
				c2.5,0,4.6-1.5,5.4-3.9l2.9-8.9H139c4.1,0,7.4-3.3,7.4-7.4V31.7C146.4,27.6,143.1,24.3,139,24.3L139,24.3z M109.2,123.2V33.7h4.7
				v89.5L109.2,123.2L109.2,123.2z M109.2,29.3v-5.7H123v5.7H109.2z M116.1,5.4c3.8,0,6.9,3.1,6.9,6.9v7h-13.8v-7
				C109.2,8.5,112.3,5.4,116.1,5.4L116.1,5.4z M9.4,26.5c0-4.5,3.7-8.2,8.2-8.2H26c0.8,0,1.4,0.6,1.4,1.4v90.5
				c0,0.8-0.6,1.4-1.4,1.4h-8.4c-3.1,0-6,1.2-8.2,3.1V26.5z M17.6,132.4c-4.5,0-8.2-3.7-8.2-8.2v0c0-4.5,3.7-8.2,8.2-8.2H26
				c3.2,0,5.8-2.6,5.8-5.8V28.7h73.1v96.7c0,1.7,0.3,3.3,0.8,4.9l0.7,2.1L17.6,132.4z M117.4,144.4c-0.3,0.8-1,0.9-1.3,0.9
				c-0.3,0-1-0.1-1.3-0.9c-0.3-0.8-5.2-15.8-5.4-16.8h13.4C122.6,128.6,117.6,143.6,117.4,144.4L117.4,144.4z M142.1,129.4
				c0,1.7-1.4,3-3,3h-13.2l0.7-2.1c0.5-1.6,0.8-3.2,0.8-4.9V52.9c0-1.2-1-2.2-2.2-2.2s-2.2,1-2.2,2.2v70.3h-4.7V33.7h4.7v9.1
				c0,1.2,1,2.2,2.2,2.2s2.2-1,2.2-2.2V28.7H139c1.7,0,3,1.4,3,3L142.1,129.4z"/>
		</g>
	</g>
	<g id="qTQLTr.tif">
		<g>
			<path d="M40.8,74.2c0.3-0.8,0.9-1.2,1.6-1.5c4.3-2.1,8.7-4.2,13-6.3c1.2-0.6,1.8-0.5,2.7,0.5c0.5,0.6,1.1,1.1,1.6,1.7
				c0.1-0.2,0.2-0.2,0.3-0.3c4.1-7.1,10.1-11.8,17.6-14.8c4.3-1.7,8.7-2.8,13.2-3.2c2.8-0.3,5.6-0.4,8.4-0.5c1.2,0,2,0.7,2,2
				c0.1,8.6-1.3,17-4.8,24.8c-2.8,6.3-7.1,11.3-12.9,14.8c-0.2,0.1-0.4,0.3-0.7,0.5c0.6,0.6,1.2,1.1,1.7,1.7c0.9,1,1,1.6,0.5,2.8
				c-2.1,4.4-4.1,8.8-6.1,13.2c-0.3,0.7-0.7,1.3-1.5,1.6c-0.7,0-1.4,0-2.1,0c-0.3,0-0.5-0.1-0.8-0.1c-5.2-0.2-10.4-0.3-15.6-0.5
				c-1.2,0-2.4,0-3.6-0.2c-1.3-0.2-1.8-1.7-1.1-2.8c0.2-0.2,0.3-0.4,0.5-0.6c3.7-3.8,7.4-7.6,11.1-11.3c0.2-0.2,0.4-0.2,0.5-0.3
				c-1.3-1.3-2.5-2.5-3.8-3.9c-0.1,0.2-0.2,0.4-0.4,0.6c-3.7,3.8-7.4,7.5-11.1,11.3c-0.2,0.2-0.4,0.4-0.6,0.5c-1,0.8-2.4,0.3-2.8-1
				c-0.2-0.8,0.1-1.4,0.7-2c3.7-3.8,7.5-7.6,11.2-11.4c0.2-0.2,0.4-0.3,0.5-0.4c-1.3-1.3-2.5-2.5-3.7-3.9c-0.1,0.2-0.2,0.4-0.4,0.5
				c-3.7,3.8-7.4,7.6-11.1,11.3c-0.2,0.2-0.4,0.4-0.6,0.5c-1,0.8-2.5,0.2-2.7-1c-0.1-0.3-0.1-0.6-0.1-1c-0.2-5.2-0.3-10.3-0.5-15.5
				c0-1.3-0.1-2.5-0.2-3.8C40.8,75.7,40.8,74.9,40.8,74.2z M97.9,53.4c-0.4,0-0.6,0-0.8,0c-2.4,0.2-4.7,0.3-7,0.6
				c-5.7,0.8-11.2,2.4-16.2,5.3c-3.9,2.3-7.2,5.3-9.7,9.2c-2.5,3.8-4.1,8-5.3,12.4c-0.3,1-0.2,1.6,0.6,2.3c1.1,1,2.2,2.1,3.3,3.4
				c0.2-0.2,0.3-0.4,0.4-0.6c1.8-1.8,3.5-3.6,5.3-5.4c0.2-0.2,0.3-0.3,0.5-0.5c0.6-0.4,1.3-0.5,1.9-0.1c0.6,0.4,1,1,0.9,1.7
				c-0.1,0.5-0.3,1-0.7,1.3c-1.8,1.9-3.6,3.7-5.4,5.5c-0.1,0.2-0.3,0.3-0.5,0.5c1.4,1.4,2.7,2.7,4,4.1c0.1,0.1,0.4,0.1,0.5,0
				c2.9-0.7,5.7-1.6,8.4-2.9c7.5-3.5,12.7-9.2,15.8-16.9c1.4-3.6,2.5-7.3,3-11.1C97.4,59.3,97.6,56.4,97.9,53.4z M45,91.9
				c0.1,0,0.1,0.1,0.2,0.1c0.1-0.2,0.2-0.3,0.4-0.5c3-3,6-6.1,9-9.1c0.3-0.3,0.5-0.7,0.6-1.2c0.8-2.4,1.5-4.8,2.2-7.2
				c0.2-0.7,0.8-1.4,0.7-2c-0.1-0.6-0.9-1.1-1.4-1.6c-0.3-0.3-0.5-0.3-0.8-0.2c-3.6,1.8-7.3,3.5-10.9,5.3c-0.3,0.2-0.4,0.4-0.4,0.7
				c0.1,3.1,0.2,6.2,0.3,9.4C44.8,87.7,44.9,89.8,45,91.9z M59.8,107c0.1,0,0.2,0.1,0.2,0.1c5.2,0.2,10.3,0.4,15.5,0.5
				c0.2,0,0.5-0.2,0.6-0.4c1.8-3.7,3.5-7.5,5.2-11.2c0.1-0.3,0.1-0.5-0.1-0.7c-0.4-0.4-0.9-0.8-1.3-1.3c-0.3-0.3-0.5-0.3-0.9-0.2
				c-2.8,1.3-5.7,2.2-8.7,2.9c-0.3,0.1-0.7,0.3-0.9,0.6c-3,3.1-6,6.1-9.1,9.2C60.1,106.7,60,106.8,59.8,107z"/>
			<path class="st7" d="M97.9,53.4c-0.3,3-0.5,5.9-0.9,8.8c-0.5,3.8-1.6,7.5-3,11.1c-3.1,7.7-8.3,13.4-15.8,16.9
				c-2.7,1.3-5.5,2.2-8.4,2.9c-0.2,0-0.4,0.1-0.5,0c-1.3-1.3-2.7-2.7-4-4.1c0.2-0.2,0.3-0.3,0.5-0.5c1.8-1.8,3.6-3.7,5.4-5.5
				c0.3-0.3,0.6-0.9,0.7-1.3c0.1-0.7-0.2-1.3-0.9-1.7c-0.6-0.3-1.3-0.3-1.9,0.1c-0.2,0.1-0.4,0.3-0.5,0.5c-1.8,1.8-3.5,3.6-5.3,5.4
				c-0.1,0.2-0.2,0.4-0.4,0.6c-1.2-1.2-2.2-2.4-3.3-3.4c-0.8-0.7-0.9-1.3-0.6-2.3c1.1-4.4,2.8-8.6,5.3-12.4c2.5-3.9,5.8-6.9,9.7-9.2
				c5-2.9,10.5-4.5,16.2-5.3c2.3-0.3,4.7-0.4,7-0.6C97.3,53.4,97.5,53.4,97.9,53.4z M82.6,61.8c-3.9,0-7,3.2-7,7.1
				c0,3.9,3.2,7.1,7,7.1c3.8,0,6.9-3.1,6.9-7.1C89.5,65,86.4,61.8,82.6,61.8z"/>
			<path class="st8" d="M45,91.9c-0.1-2.1-0.2-4.2-0.2-6.3c-0.1-3.1-0.2-6.2-0.3-9.4c0-0.4,0.1-0.6,0.4-0.7
				c3.6-1.7,7.3-3.5,10.9-5.3c0.3-0.2,0.6-0.1,0.8,0.2c0.5,0.5,1.3,1,1.4,1.6c0.1,0.6-0.5,1.3-0.7,2c-0.7,2.4-1.4,4.8-2.2,7.2
				c-0.1,0.4-0.3,0.9-0.6,1.2c-3,3.1-6,6.1-9,9.1c-0.1,0.1-0.2,0.3-0.4,0.5C45.1,92,45,92,45,91.9z"/>
			<path class="st9" d="M59.8,107c0.2-0.2,0.3-0.3,0.4-0.5c3-3.1,6-6.1,9.1-9.2c0.2-0.3,0.6-0.5,0.9-0.6c3-0.7,5.9-1.6,8.7-2.9
				c0.4-0.2,0.6-0.2,0.9,0.2c0.4,0.5,0.8,0.9,1.3,1.3c0.2,0.2,0.3,0.4,0.1,0.7c-1.8,3.7-3.5,7.5-5.2,11.2c-0.1,0.2-0.4,0.4-0.6,0.4
				c-5.2-0.2-10.3-0.3-15.5-0.5C59.9,107.1,59.9,107,59.8,107z"/>
			<path d="M82.6,61.8c3.9,0,7,3.2,6.9,7.1c0,3.9-3.1,7-6.9,7.1c-3.8,0-7-3.2-7-7.1C75.6,64.9,78.7,61.8,82.6,61.8z M86,68.8
				c-0.1-1.9-1.6-3.4-3.5-3.4c-1.9,0.1-3.4,1.7-3.3,3.5c0.1,1.9,1.6,3.5,3.5,3.4C84.5,72.3,86,70.7,86,68.8z"/>
			<path class="st7" d="M86,68.8c0.1,1.9-1.4,3.5-3.4,3.6c-1.8,0-3.4-1.5-3.5-3.4c-0.1-1.9,1.5-3.5,3.3-3.5
				C84.4,65.3,85.9,66.8,86,68.8z"/>
		</g>
	</g>
</g>
<g id="Layer_3">
</g>
<g id="Layer_2">
</g>
</svg>
