<?xml version="1.0" encoding="utf-8"?>
<!-- Generator: Adobe Illustrator 24.0.2, SVG Export Plug-In . SVG Version: 6.00 Build 0)  -->
<svg version="1.1" id="b8669117-6177-4f3a-a75c-05852d999d53"
	 xmlns="http://www.w3.org/2000/svg" xmlns:xlink="http://www.w3.org/1999/xlink" x="0px" y="0px" viewBox="0 0 802 537"
	 style="enable-background:new 0 0 802 537;" xml:space="preserve">
<style type="text/css">
	.st0{fill:#F2F2F2;}
	.st1{fill:#FFFFFF;}
	.st2{fill:#3F3D56;}
	.st3{fill:#E6E6E6;}
	.st4{fill:#F9A826;}
	.st5{fill:#A0616A;}
	.st6{fill:#2F2E41;}
	.st7{fill:#CCCCCC;}
</style>
<path class="st0" d="M623.8,387.8H63.7c-8,0-14.4-6.5-14.4-14.4V28c0-5.8,4.7-10.6,10.6-10.6h567.7c5.9,0,10.7,4.8,10.7,10.7v345.2
	C638.2,381.4,631.8,387.8,623.8,387.8z"/>
<path class="st1" d="M605.7,369.6h-522c-7.7,0-13.9-5.8-13.9-13V55.8c0-5.3,4.6-9.6,10.3-9.6h529c5.8,0,10.5,4.4,10.5,9.8v300.6
	C619.6,363.8,613.4,369.6,605.7,369.6z"/>
<path class="st2" d="M638.1,29.8h-589v-7.3c0-8,6.5-14.5,14.5-14.5h560c8,0,14.5,6.5,14.5,14.5V29.8z"/>
<circle class="st1" cx="75.4" cy="18.9" r="3.7"/>
<circle class="st1" cx="89.6" cy="18.9" r="3.7"/>
<circle class="st1" cx="103.8" cy="18.9" r="3.7"/>
<path class="st3" d="M244.6,128.2h247.3c9.9,0,17.9,8,17.9,17.9v0c0,9.9-8,17.9-17.9,17.9H244.6c-9.9,0-17.9-8-17.9-17.9v0
	C226.7,136.2,234.7,128.2,244.6,128.2z"/>
<path class="st3" d="M244.6,187.5h247.3c9.9,0,17.9,8,17.9,17.9v0c0,9.9-8,17.9-17.9,17.9H244.6c-9.9,0-17.9-8-17.9-17.9v0
	C226.7,195.6,234.7,187.5,244.6,187.5z"/>
<path class="st3" d="M244.6,245.9h247.3c9.9,0,17.9,8,17.9,17.9v0c0,9.9-8,17.9-17.9,17.9H244.6c-9.9,0-17.9-8-17.9-17.9v0
	C226.7,253.9,234.7,245.9,244.6,245.9z"/>
<circle class="st3" cx="195.2" cy="204.5" r="18.4"/>
<path class="st1" d="M201.8,203.2l-5.6-6c-0.5-0.5-1.3-0.6-1.9-0.1c0,0,0,0-0.1,0.1l-5.6,6c-0.3,0.4-0.3,0.9,0,1.2
	c0.4,0.3,0.9,0.3,1.2,0c0,0,0,0,0,0l4.4-4.7v11.6c0,0.5,0.4,0.9,0.9,0.9c0.5,0,0.9-0.4,0.9-0.9v-11.6l4.4,4.7c0.3,0.4,0.9,0.4,1.2,0
	C202.1,204.1,202.1,203.6,201.8,203.2z"/>
<circle class="st3" cx="195.2" cy="263.8" r="18.4"/>
<path class="st1" d="M201.8,262.5l-5.6-6c-0.5-0.5-1.3-0.6-1.9-0.1c0,0,0,0-0.1,0.1l-5.6,6c-0.3,0.4-0.3,0.9,0,1.2
	c0.4,0.3,0.9,0.3,1.2,0c0,0,0,0,0,0l4.4-4.7v11.6c0,0.5,0.4,0.9,0.9,0.9c0.5,0,0.9-0.4,0.9-0.9V259l4.4,4.7c0.3,0.4,0.9,0.4,1.2,0
	C202.1,263.5,202.1,262.9,201.8,262.5z"/>
<circle class="st4" cx="195.2" cy="145.1" r="18.4"/>
<path class="st1" d="M201.8,143.9l-5.6-6c-0.5-0.5-1.3-0.6-1.9-0.1c0,0,0,0-0.1,0.1l-5.6,6c-0.3,0.4-0.3,0.9,0,1.2
	c0.4,0.3,0.9,0.3,1.2,0c0,0,0,0,0,0l4.4-4.7v11.6c0,0.5,0.4,0.9,0.9,0.9c0.5,0,0.9-0.4,0.9-0.9v-11.6l4.4,4.7c0.3,0.4,0.9,0.4,1.2,0
	C202.1,144.8,202.1,144.2,201.8,143.9z"/>
<path class="st5" d="M178,144.6c-4.8-0.5-9.1,3.1-9.6,7.9c0,0.5-0.1,1,0,1.5l-28.6,12.6l13.6,8.8l25.1-13.3c4.8-0.7,8.2-5.2,7.4-10
	C185.3,148.1,182.1,145,178,144.6z"/>
<circle class="st5" cx="62.7" cy="107.5" r="21.5"/>
<polygon class="st5" points="101.5,413.6 112.2,413.6 117.3,372.3 101.5,372.3 "/>
<path class="st6" d="M98.8,410.1l21.1,0h0c7.4,0,13.4,6,13.4,13.4c0,0,0,0,0,0v0.4l-34.6,0L98.8,410.1z"/>
<polygon class="st5" points="57,413.6 67.7,413.6 72.8,372.3 57,372.3 "/>
<path class="st6" d="M54.2,410.1l21.1,0h0c7.4,0,13.4,6,13.4,13.4c0,0,0,0,0,0v0.4l-34.6,0L54.2,410.1z"/>
<path class="st6" d="M54.9,403.8c-0.8-0.7-1.3-1.8-1.3-2.9L53,246l56-2.2l0.4,0l9.2,92.9l1.2,59.2c0,2-1.5,3.8-3.5,4l-13.6,1.6
	c-2.2,0.3-4.1-1.3-4.4-3.4c0-0.1,0-0.2,0-0.3l-2.4-62.9l-11.7-39.1c-0.3-0.7-1.1-0.9-1.7-0.6c-0.4,0.2-0.7,0.6-0.8,1.1l-4.6,102.9
	c-0.1,1.9-1.6,3.5-3.4,3.7l-15.7,1.9C56.8,404.9,55.7,404.5,54.9,403.8L54.9,403.8z"/>
<path class="st4" d="M51.3,251.5l-16.6-67.3c-5.2-21,6.6-42.1,26.3-47.1c9.3-2.4,19.3-0.6,27.2,4.8c9,6.2,15,16,16.3,26.9l10.8,79.7
	c0.3,2.2-1.2,4.1-3.4,4.4c-0.1,0-0.3,0-0.4,0l-56.4,1.5c0,0-0.1,0-0.1,0C53.3,254.5,51.8,253.2,51.3,251.5z"/>
<path class="st4" d="M120.8,189.3l-42-20.4c-7-3.4-9.9-11.9-6.5-18.9c3.4-7,11.9-9.9,18.9-6.5c0.7,0.3,1.4,0.8,2,1.2l34,24.3
	l36.7-14.6c1.5-0.6,3.2-0.2,4.3,1l5,5.2c1.5,1.6,1.4,4.1-0.2,5.6c-0.2,0.2-0.4,0.3-0.5,0.4l-32.9,21.6
	C133.9,191.7,126.8,192.2,120.8,189.3L120.8,189.3z"/>
<path class="st6" d="M54.4,127.6c-1.7,0-3.4-0.3-4.9-1c-0.7-0.3-1.4-0.5-2.1-0.9c-6-2.7-10-10-10.2-17.4c0-7.3,2.9-14.2,8.2-19.3
	c4.9-4.5,11.2-7.2,17.9-7.7c6.9-0.6,14.8,1.4,18.7,8c1.2,1.8,1.6,3.9,1.1,6c-0.2,0.6-0.5,1.2-1,1.7c-1.7,1.8-3.5,0.4-5.2,0.3
	c-2.4-0.2-4.6,2.1-5.4,4.7s-0.4,5.5,0.2,8.2l0,0c0.6,2.4-1,4.8-3.4,5.4c-0.2,0-0.4,0.1-0.6,0.1c-2.7,0.2-5.6,0.4-6.4,0
	c-1.6-0.8-3.8-0.6-4.8,1.1c-0.3,0.6-0.5,1.3-0.6,2C55,123.4,55.2,123.1,54.4,127.6L54.4,127.6z"/>
<path class="st5" d="M48.3,287.2c2.9-3.9,2.1-9.4-1.8-12.3c-0.4-0.3-0.9-0.6-1.3-0.8l4-31l-14.6,7.1L33,278.6
	c-1.9,4.5,0.2,9.7,4.7,11.6C41.5,291.7,45.9,290.5,48.3,287.2L48.3,287.2z"/>
<path class="st4" d="M50,268.3c-0.3,0.1-0.5,0.2-0.8,0.2l-14.7,1.9c-2.2,0.3-4.1-1.3-4.4-3.4c0-0.2,0-0.3,0-0.5l0.1-102.8
	c0-6.1,4.5-11.4,10.6-12.3l0,0c6.8-1,13.1,3.7,14,10.5c0.1,1,0.2,2,0.1,3l-4.3,44.3l2,55.3C52.7,266.2,51.6,267.8,50,268.3z"/>
<path class="st7" d="M185.7,424.6H5.7c-0.5,0-0.9-0.4-0.9-0.9s0.4-0.9,0.9-0.9h180.1c0.5,0,0.9,0.4,0.9,0.9S186.2,424.6,185.7,424.6
	z"/>
<path class="st4" d="M294.9,158.7c-0.5,0-1.1-0.2-1.5-0.5l-3.7-2.7c-0.6-0.5-1.5-0.5-2.1,0l-3.7,2.7c-1.2,0.8-2.8,0.6-3.6-0.6
	c-0.5-0.7-0.6-1.5-0.4-2.3l1.4-4.3c0.2-0.7,0-1.5-0.6-2l-3.7-2.7c-1.2-0.8-1.4-2.5-0.6-3.6c0.5-0.7,1.3-1.1,2.1-1.1h4.5
	c0.8,0,1.5-0.5,1.7-1.2l1.4-4.3c0.4-1.4,1.9-2.1,3.3-1.7c0.8,0.3,1.4,0.9,1.7,1.7l1.4,4.3c0.2,0.7,0.9,1.2,1.7,1.2h4.5
	c1.4,0,2.6,1.2,2.6,2.6c0,0.8-0.4,1.6-1.1,2.1l-3.7,2.7c-0.6,0.5-0.9,1.3-0.6,2l1.4,4.3c0.4,1.1,0,2.2-0.9,2.9
	C296,158.5,295.5,158.7,294.9,158.7z"/>
<path class="st4" d="M332.1,158.7c-0.5,0-1.1-0.2-1.5-0.5l-3.7-2.7c-0.6-0.5-1.5-0.5-2.1,0l-3.7,2.7c-1.2,0.8-2.8,0.6-3.6-0.6
	c-0.5-0.7-0.6-1.5-0.4-2.3l1.4-4.3c0.2-0.7,0-1.5-0.6-2l-3.7-2.7c-1.2-0.8-1.4-2.5-0.6-3.6c0.5-0.7,1.3-1.1,2.1-1.1h4.5
	c0.8,0,1.5-0.5,1.7-1.2l1.4-4.3c0.4-1.4,1.9-2.1,3.3-1.7c0.8,0.3,1.4,0.9,1.7,1.7l1.4,4.3c0.2,0.7,0.9,1.2,1.7,1.2h4.5
	c1.4,0,2.6,1.2,2.6,2.6c0,0.8-0.4,1.6-1.1,2.1l-3.7,2.7c-0.6,0.5-0.9,1.3-0.6,2l1.4,4.3c0.4,1.1,0,2.2-0.9,2.9
	C333.2,158.5,332.7,158.7,332.1,158.7z"/>
<path class="st4" d="M369.3,158.7c-0.5,0-1.1-0.2-1.5-0.5l-3.7-2.7c-0.6-0.5-1.5-0.5-2.1,0l-3.7,2.7c-1.2,0.8-2.8,0.6-3.6-0.6
	c-0.5-0.7-0.6-1.5-0.4-2.3l1.4-4.3c0.2-0.7,0-1.5-0.6-2l-3.7-2.7c-1.2-0.8-1.4-2.5-0.6-3.6c0.5-0.7,1.3-1.1,2.1-1.1h4.5
	c0.8,0,1.5-0.5,1.7-1.2l1.4-4.3c0.4-1.4,1.9-2.1,3.3-1.7c0.8,0.3,1.4,0.9,1.7,1.7l1.4,4.3c0.2,0.7,0.9,1.2,1.7,1.2h4.5
	c1.4,0,2.6,1.2,2.6,2.6c0,0.8-0.4,1.6-1.1,2.1l-3.7,2.7c-0.6,0.5-0.9,1.3-0.6,2l1.4,4.3c0.4,1.1,0,2.2-0.9,2.9
	C370.4,158.5,369.9,158.7,369.3,158.7z"/>
<path class="st2" d="M431.3,159c-0.6,0-1.2-0.2-1.7-0.6c-1-0.7-1.4-2-1-3.2l1.4-4.3c0.2-0.6,0-1.3-0.6-1.7l-3.7-2.7
	c-1.3-0.9-1.6-2.7-0.6-4c0.5-0.7,1.4-1.2,2.3-1.2h4.5c0.7,0,1.3-0.4,1.5-1.1l1.4-4.3c0.5-1.5,2.1-2.3,3.6-1.8c0.9,0.3,1.5,1,1.8,1.8
	l1.4,4.3c0.2,0.6,0.8,1.1,1.5,1.1h4.5c1.6,0,2.8,1.3,2.8,2.8c0,0.9-0.4,1.8-1.2,2.3l-3.7,2.7c-0.5,0.4-0.8,1.1-0.6,1.7l1.4,4.3
	c0.5,1.5-0.3,3.1-1.8,3.6c-0.9,0.3-1.8,0.1-2.6-0.4l-3.7-2.7c-0.5-0.4-1.3-0.4-1.8,0l-3.7,2.7C432.4,158.8,431.9,159,431.3,159z
	 M437.5,154.1c0.6,0,1.2,0.2,1.7,0.5l3.7,2.7c0.7,0.5,1.6,0.3,2.1-0.3c0.3-0.4,0.4-0.9,0.2-1.4l-1.4-4.3c-0.4-1.2,0-2.5,1-3.2
	l3.7-2.7c0.7-0.5,0.8-1.5,0.3-2.1c-0.3-0.4-0.7-0.6-1.2-0.6h-4.5c-1.2,0-2.3-0.8-2.7-2l-1.4-4.3c-0.3-0.8-1.1-1.2-1.9-1
	c-0.5,0.2-0.8,0.5-1,1l-1.4,4.3c-0.4,1.2-1.5,2-2.7,2h-4.5c-0.8,0-1.5,0.7-1.5,1.5c0,0.5,0.2,0.9,0.6,1.2l3.7,2.7c1,0.7,1.4,2,1,3.2
	l-1.4,4.3c-0.3,0.8,0.2,1.7,1,1.9c0.5,0.2,1,0.1,1.4-0.2l3.7-2.7C436.3,154.3,436.9,154.1,437.5,154.1z"/>
<path class="st2" d="M393.7,158.9c-0.6,0-1.2-0.2-1.7-0.6c-1-0.7-1.4-2-1-3.2l1.4-4.3c0.2-0.6,0-1.3-0.6-1.7l-3.7-2.7
	c-1.3-0.9-1.6-2.7-0.6-4c0.5-0.7,1.4-1.2,2.3-1.2h4.5c0.7,0,1.3-0.4,1.5-1.1l1.4-4.3c0.5-1.5,2.1-2.3,3.6-1.8c0.9,0.3,1.5,1,1.8,1.8
	l1.4,4.3c0.2,0.6,0.8,1.1,1.5,1.1h4.5c1.6,0,2.8,1.3,2.8,2.8c0,0.9-0.4,1.8-1.2,2.3l-3.7,2.7c-0.5,0.4-0.8,1.1-0.6,1.7l1.4,4.3
	c0.5,1.5-0.3,3.1-1.8,3.6c-0.9,0.3-1.8,0.1-2.6-0.4l-3.7-2.7c-0.5-0.4-1.3-0.4-1.8,0l-3.7,2.7C394.9,158.7,394.3,158.9,393.7,158.9z
	 M400,154c0.6,0,1.2,0.2,1.7,0.5l3.7,2.7c0.7,0.5,1.6,0.3,2.1-0.3c0.3-0.4,0.4-0.9,0.2-1.4l-1.4-4.3c-0.4-1.2,0-2.5,1-3.2l3.7-2.7
	c0.7-0.5,0.8-1.5,0.3-2.1c-0.3-0.4-0.7-0.6-1.2-0.6h-4.5c-1.2,0-2.3-0.8-2.7-2l-1.4-4.3c-0.3-0.8-1.1-1.2-1.9-1
	c-0.5,0.2-0.8,0.5-1,1l-1.4,4.3c-0.4,1.2-1.5,2-2.7,2h-4.5c-0.8,0-1.5,0.7-1.5,1.5c0,0.5,0.2,0.9,0.6,1.2l3.7,2.7c1,0.7,1.4,2,1,3.2
	l-1.4,4.3c-0.3,0.8,0.2,1.7,1,1.9c0.5,0.2,1,0.1,1.4-0.2l3.7-2.7C398.8,154.2,399.4,154,400,154z"/>
<path class="st5" d="M635.7,284.5c0.6-0.2,1.2-0.3,1.8-0.4l24.8-50.5l-7.6-11.4l15.7-13.7l19.7,24.1L650,291c2.7,6,0,13-6,15.7
	c-6,2.7-13,0-15.7-6c-2.7-6,0-13,6-15.7C634.7,284.8,635.2,284.6,635.7,284.5L635.7,284.5z"/>
<path class="st7" d="M678.1,215.5c-0.3,0.4-0.7,0.7-1.2,0.9l-25.4,14.7c-2.4,1.4-5.6,0.6-7-1.9c-0.1-0.1-0.1-0.2-0.2-0.4L632,202.8
	c-1.1-2.3-0.3-5,1.7-6.4l15.8-10.7c2-1.4,4.8-1.1,6.5,0.6l22,22.1C679.9,210.4,680,213.5,678.1,215.5L678.1,215.5z"/>
<polygon class="st5" points="713.8,504.8 700.4,508.5 679.9,458.4 699.7,453 "/>
<path class="st6" d="M689.7,507.2l25.9-7l0,0l4.4,16.3l0,0L677.9,528l0,0l0,0C675.4,519,680.7,509.7,689.7,507.2z"/>
<polygon class="st5" points="599,515.1 585.1,515.1 578.5,461.4 599,461.4 "/>
<path class="st6" d="M575.2,511.1H602l0,0V528l0,0h-43.7l0,0l0,0C558.3,518.6,565.9,511.1,575.2,511.1z"/>
<circle class="st5" cx="613.7" cy="140" r="27.9"/>
<path class="st6" d="M598.2,476.8h-19c-2.7,0-4.9-2.1-5.1-4.8c-5.7-90-2.4-154.6,10.4-203.3c0.1-0.2,0.1-0.4,0.2-0.6l1-2.5
	c0.8-1.9,2.7-3.2,4.7-3.2h39.1c1.5,0,2.9,0.7,3.9,1.8l5.3,6.2c0.1,0.1,0.2,0.2,0.3,0.4c23.9,33.4,45.4,98.7,70.2,186.4
	c0.8,2.7-0.7,5.4-3.4,6.3l-20.4,6.5c-2.4,0.8-5-0.4-6.2-2.6l-53-110c-1-2-3.3-2.8-5.3-1.9c-1.2,0.6-2,1.7-2.2,3l-15.6,113.9
	C602.9,474.9,600.7,476.8,598.2,476.8z"/>
<path class="st7" d="M636.6,270.8c-0.1,0-0.1,0-0.2,0l-47.5-1.5c-2.5-0.1-4.6-2-4.9-4.5c-6-48.7,10.5-61.8,17.9-65.1
	c1.3-0.6,2.1-1.7,2.3-3.1l0.6-5.1c0.1-0.9,0.5-1.8,1-2.5c11.6-15,27.4-19.8,35.7-21.3c2.8-0.5,5.4,1.3,5.9,4.1c0,0.1,0,0.2,0,0.3
	l1,7.3c0.1,0.7,0.4,1.4,0.8,1.9c24.1,31.5-2.8,78.1-8.4,87.1l0,0C640,269.9,638.4,270.8,636.6,270.8z"/>
<path class="st6" d="M669.9,143.1c-6.2-8.8-13.7-16.6-22.1-23.2c-7-5.5-14.9-10.2-23.5-12.4c-8.6-2.2-18.2-1.9-26.1,2.3
	c-7.9,4.2-16,12.5-16.1,21.4c0,2.9,0.7,6.7,3.5,6.2l0.8,0.1c6.8-1.4,13.6-2.8,20.4-4.1c2.9,10.1,5.8,20.1,8.7,30.2
	c0.6,2.1,1.4,4.5,3.4,5.4c1.9,0.9,4.1,0,6-0.8c0.3-0.1,3-6.2,3-6.2c0.2-0.6,0.9-0.9,1.5-0.7c0.2,0.1,0.4,0.2,0.5,0.4l1.6,2
	c0.6,0.8,1.7,1.1,2.6,0.7c11.1-4.6,22.2-9.3,33.3-13.9c1.5-0.6,3.3-1.5,3.7-3.1C671.8,146,670.8,144.4,669.9,143.1z"/>
<path class="st2" d="M797.6,529H456.1c-0.6,0-1.1-0.5-1.1-1.1c0-0.6,0.5-1.1,1.1-1.1h341.5c0.6,0,1.1,0.5,1.1,1.1
	C798.7,528.5,798.2,529,797.6,529z"/>
<path class="st5" d="M632.2,340c5.5-3.9,6.8-11.5,3-17c-0.4-0.6-0.9-1.1-1.4-1.6l8.8-106.5l-26.3,3.6L615.8,322
	c-4.4,5.1-3.9,12.8,1.2,17.3C621.3,343,627.6,343.3,632.2,340z"/>
<path class="st7" d="M644.3,230.2c-0.5,0-1-0.1-1.5-0.2l-28.2-8.3c-2.7-0.8-4.3-3.6-3.5-6.3c0-0.1,0.1-0.3,0.1-0.4l10.4-27
	c0.9-2.4,3.4-3.7,5.8-3.1l18.6,4c2.4,0.5,4.1,2.7,4,5.1l-0.9,31.2C649.3,228,647.1,230.2,644.3,230.2L644.3,230.2z"/>
<path class="st4" d="M294.8,217.8c-0.5,0-1.1-0.2-1.5-0.5l-3.7-2.7c-0.6-0.5-1.5-0.5-2.1,0l-3.7,2.7c-1.2,0.8-2.8,0.6-3.6-0.6
	c-0.5-0.7-0.6-1.5-0.4-2.3l1.4-4.3c0.2-0.7,0-1.5-0.6-2l-3.7-2.7c-1.2-0.8-1.4-2.5-0.6-3.6c0.5-0.7,1.3-1.1,2.1-1.1h4.5
	c0.8,0,1.5-0.5,1.7-1.2l1.4-4.3c0.4-1.4,1.9-2.1,3.3-1.7c0.8,0.3,1.4,0.9,1.7,1.7l1.4,4.3c0.2,0.7,0.9,1.2,1.7,1.2h4.5
	c1.4,0,2.6,1.2,2.6,2.6c0,0.8-0.4,1.6-1.1,2.1l-3.7,2.7c-0.6,0.5-0.9,1.3-0.6,2l1.4,4.3c0.4,1.1,0,2.2-0.9,2.9
	C295.9,217.6,295.4,217.8,294.8,217.8z"/>
<path class="st4" d="M332,217.8c-0.5,0-1.1-0.2-1.5-0.5l-3.7-2.7c-0.6-0.5-1.5-0.5-2.1,0l-3.7,2.7c-1.2,0.8-2.8,0.6-3.6-0.6
	c-0.5-0.7-0.6-1.5-0.4-2.3l1.4-4.3c0.2-0.7,0-1.5-0.6-2l-3.7-2.7c-1.2-0.8-1.4-2.5-0.6-3.6c0.5-0.7,1.3-1.1,2.1-1.1h4.5
	c0.8,0,1.5-0.5,1.7-1.2l1.4-4.3c0.4-1.4,1.9-2.1,3.3-1.7c0.8,0.3,1.4,0.9,1.7,1.7l1.4,4.3c0.2,0.7,0.9,1.2,1.7,1.2h4.5
	c1.4,0,2.6,1.2,2.6,2.6c0,0.8-0.4,1.6-1.1,2.1l-3.7,2.7c-0.6,0.5-0.9,1.3-0.6,2l1.4,4.3c0.4,1.1,0,2.2-0.9,2.9
	C333.1,217.6,332.6,217.8,332,217.8z"/>
<path class="st4" d="M369.2,217.8c-0.5,0-1.1-0.2-1.5-0.5l-3.7-2.7c-0.6-0.5-1.5-0.5-2.1,0l-3.7,2.7c-1.2,0.8-2.8,0.6-3.6-0.6
	c-0.5-0.7-0.6-1.5-0.4-2.3l1.4-4.3c0.2-0.7,0-1.5-0.6-2l-3.7-2.7c-1.2-0.8-1.4-2.5-0.6-3.6c0.5-0.7,1.3-1.1,2.1-1.1h4.5
	c0.8,0,1.5-0.5,1.7-1.2l1.4-4.3c0.4-1.4,1.9-2.1,3.3-1.7c0.8,0.3,1.4,0.9,1.7,1.7l1.4,4.3c0.2,0.7,0.9,1.2,1.7,1.2h4.5
	c1.4,0,2.6,1.2,2.6,2.6c0,0.8-0.4,1.6-1.1,2.1l-3.7,2.7c-0.6,0.5-0.9,1.3-0.6,2l1.4,4.3c0.4,1.1,0,2.2-0.9,2.9
	C370.3,217.6,369.8,217.8,369.2,217.8z"/>
<path class="st2" d="M431.1,218c-0.6,0-1.2-0.2-1.7-0.6c-1-0.7-1.4-2-1-3.2l1.4-4.3c0.2-0.6,0-1.3-0.6-1.7l-3.7-2.7
	c-1.3-0.9-1.6-2.7-0.6-4c0.5-0.7,1.4-1.2,2.3-1.2h4.5c0.7,0,1.3-0.4,1.5-1.1l1.4-4.3c0.5-1.5,2.1-2.3,3.6-1.8c0.9,0.3,1.5,1,1.8,1.8
	l1.4,4.3c0.2,0.6,0.8,1.1,1.5,1.1h4.5c1.6,0,2.8,1.3,2.8,2.8c0,0.9-0.4,1.8-1.2,2.3l-3.7,2.7c-0.5,0.4-0.8,1.1-0.6,1.7l1.4,4.3
	c0.5,1.5-0.3,3.1-1.8,3.6c-0.9,0.3-1.8,0.1-2.6-0.4l-3.7-2.7c-0.5-0.4-1.3-0.4-1.8,0l-3.7,2.7C432.3,217.8,431.7,218,431.1,218z
	 M437.4,213.2c0.6,0,1.2,0.2,1.7,0.5l3.7,2.7c0.7,0.5,1.6,0.3,2.1-0.3c0.3-0.4,0.4-0.9,0.2-1.4l-1.4-4.3c-0.4-1.2,0-2.5,1-3.2
	l3.7-2.7c0.7-0.5,0.8-1.5,0.3-2.1c-0.3-0.4-0.7-0.6-1.2-0.6h-4.5c-1.2,0-2.3-0.8-2.7-2l-1.4-4.3c-0.3-0.8-1.1-1.2-1.9-1
	c-0.5,0.2-0.8,0.5-1,1l-1.4,4.3c-0.4,1.2-1.5,2-2.7,2h-4.5c-0.8,0-1.5,0.7-1.5,1.5c0,0.5,0.2,0.9,0.6,1.2l3.7,2.7c1,0.7,1.4,2,1,3.2
	l-1.4,4.3c-0.3,0.8,0.2,1.7,1,1.9c0.5,0.2,1,0.1,1.4-0.2l3.7-2.7C436.2,213.4,436.8,213.2,437.4,213.2z"/>
<path class="st4" d="M406.2,217.7c-0.5,0-1.1-0.2-1.5-0.5l-3.7-2.7c-0.6-0.5-1.5-0.5-2.1,0l-3.7,2.7c-1.2,0.8-2.8,0.6-3.6-0.6
	c-0.5-0.7-0.6-1.5-0.4-2.3l1.4-4.3c0.2-0.7,0-1.5-0.6-2l-3.7-2.7c-1.2-0.8-1.4-2.5-0.6-3.6c0.5-0.7,1.3-1.1,2.1-1.1h4.5
	c0.8,0,1.5-0.5,1.7-1.2l1.4-4.3c0.4-1.4,1.9-2.1,3.3-1.7c0.8,0.3,1.4,0.9,1.7,1.7l1.4,4.3c0.2,0.7,0.9,1.2,1.7,1.2h4.5
	c1.4,0,2.6,1.2,2.6,2.6c0,0.8-0.4,1.6-1.1,2.1l-3.7,2.7c-0.6,0.5-0.9,1.3-0.6,2l1.4,4.3c0.4,1.1,0,2.2-0.9,2.9
	C407.3,217.5,406.8,217.7,406.2,217.7z"/>
</svg>
