<?xml version="1.0" encoding="utf-8"?>
<!-- Generator: Adobe Illustrator 24.0.2, SVG Export Plug-In . SVG Version: 6.00 Build 0)  -->
<svg version="1.1" xmlns="http://www.w3.org/2000/svg" xmlns:xlink="http://www.w3.org/1999/xlink" x="0px" y="0px"
	 viewBox="0 0 150 150" style="enable-background:new 0 0 150 150;" xml:space="preserve">
<style type="text/css">
	.st0{fill:#FFFFFF;}
	.st1{fill:#FFC9BB;}
	.st2{fill:#867EE9;}
	.st3{fill:#91C6FF;}
	.st4{fill:#BAECD8;}
</style>
<g id="svg833" xmlns:cc="http://creativecommons.org/ns#" xmlns:dc="http://purl.org/dc/elements/1.1/" xmlns:inkscape="http://www.inkscape.org/namespaces/inkscape" xmlns:rdf="http://www.w3.org/1999/02/22-rdf-syntax-ns#" xmlns:sodipodi="http://sodipodi.sourceforge.net/DTD/sodipodi-0.dtd" xmlns:svg="http://www.w3.org/2000/svg">
	
		<sodipodi:namedview  bordercolor="#666666" borderopacity="1" gridtolerance="10" guidetolerance="10" id="namedview835" inkscape:current-layer="layer1" inkscape:cx="117.10526" inkscape:cy="138.68421" inkscape:document-rotation="0" inkscape:guide-bbox="true" inkscape:pageopacity="0" inkscape:pageshadow="2" inkscape:window-height="706" inkscape:window-maximized="0" inkscape:window-width="1279" inkscape:window-x="0" inkscape:window-y="23" inkscape:zoom="1.6326744" objecttolerance="10" pagecolor="#ffffff" showgrid="false" showguides="true">
		<sodipodi:guide  id="guide1003" orientation="0,-1" position="216.33554,137.88079"></sodipodi:guide>
	</sodipodi:namedview>
	<g id="sAArsl.tif">
		<g>
			<path d="M8,70.4c0.6-1.5,1.8-1.9,3.3-1.9c2.9,0.1,5.8,0,8.7,0c2.1,0,2.7,0.5,3.4,2.6c1.1-0.4,2.3-0.7,3.4-1.2
				c2.1-1,3.1-2.8,3.3-5.2c0.1-1.4,0-2.8,0.3-4.1c0.9-3.7,4.5-6.1,8.1-5.7c3.9,0.5,6.8,3.5,6.9,7.5c0.1,2,0,4,0,6.1
				c0.7,0,1.4,0,2.1,0c5.7,0,9.8,4,9.8,9.8c0,4.2-0.1,8.4,0,12.6c0.1,5.2-3.5,9-7.9,9.7c-0.1,0-0.2,0.1-0.2,0.1
				c-6.6,0-13.1,0-19.7,0c-2.1-0.5-4.2-0.9-6.1-2.3c-0.2,1.2-1,1.8-1.9,2.3c-3.9,0-7.7,0-11.6,0c-0.8-0.4-1.5-1-1.9-1.9
				C8,89.4,8,79.9,8,70.4z M23.4,76.3c0,0.1-0.1,0.2-0.1,0.2c0,4.9,0,9.7,0,14.6c0,0.3,0.1,0.6,0.3,0.8c1.7,2.3,4.1,3.7,6.9,3.7
				c5.8,0.1,11.6,0.1,17.4,0c2.4,0,4.2-1.8,4.3-4.3c0-4.5,0-8.9,0-13.4c0-2.6-1.8-4.3-4.4-4.4c-1.4,0-2.9,0-4.3,0
				c-2.2,0-3.1-0.9-3.1-3.1c0-2.6,0-5.3,0-7.9c0-1.5-1.2-2.6-2.6-2.6c-1.4,0-2.4,1.1-2.5,2.6c0,0.5,0,1,0,1.5
				c0,5.5-3.1,9.7-8.4,11.2C25.6,75.7,24.5,76,23.4,76.3z M18.2,95.6c0-7.4,0-14.7,0-22c-1.7,0-3.4,0-5,0c0,7.4,0,14.6,0,22
				C14.8,95.6,16.5,95.6,18.2,95.6z"/>
			<path class="st0" d="M-28.6,165.2"/>
			<path class="st0" d="M-30.5,163.3"/>
			<path d="M89.3,36.8c-1.4-0.1-2.8,0-4.1-0.2c-4.3-0.6-7.7-4.4-7.8-8.8c-0.1-4.9-0.1-9.8,0-14.7c0.1-4.5,4.2-8.6,8.8-8.6
				c6-0.1,12.1,0,18.1,0c2.2,0,4.1,0.6,7,2.2c0.5-1.8,1.8-2.2,3.5-2.2c3,0.1,5.9,0,8.9,0c1.9,0,2.9,1,2.9,2.9c0,8.9,0,17.7,0,26.6
				c0,1.8-1,2.8-2.9,2.8c-3,0-6.1,0-9.1,0c-2.2,0-2.8-0.4-3.4-2.5c-1.8,0.5-3.7,0.7-5,2.2c-1.1,1.2-1.7,2.5-1.7,4.1
				c0,1.6,0.1,3.2-0.5,4.7c-1.2,3.3-4.8,5.5-8.1,5c-3.8-0.6-6.6-3.5-6.7-7.2C89.2,41,89.3,38.9,89.3,36.8z M111.3,28.9
				c0-5,0-9.9,0-14.8c0-0.3-0.1-0.6-0.3-0.8c-1.5-1.9-3.4-3.3-5.8-3.6c-2.2-0.2-4.4-0.2-6.6-0.2c-3.9,0-7.8,0-11.6,0
				c-2.8,0-4.5,1.8-4.5,4.5c0,4.4,0,8.7,0,13.1c0,2.7,1.8,4.5,4.5,4.5c1.5,0,2.9,0,4.4,0c2,0,3,1,3,3c0,2.6,0,5.2,0,7.7
				c0,1.7,1,2.8,2.5,2.8c1.5,0,2.6-1.2,2.6-2.9c0-0.5,0-1,0-1.4c0-5.3,3.1-9.5,8.3-11C108.9,29.6,110.1,29.2,111.3,28.9z M116.5,9.6
				c0,7.4,0,14.7,0,22c1.7,0,3.4,0,5,0c0-7.4,0-14.6,0-22C119.8,9.6,118.2,9.6,116.5,9.6z"/>
			<path class="st1" d="M23.4,76.3c1.1-0.3,2.2-0.6,3.4-1c5.3-1.6,8.4-5.7,8.4-11.2c0-0.5,0-1,0-1.5c0-1.5,1.1-2.6,2.5-2.6
				c1.4,0,2.6,1.1,2.6,2.6c0,2.6,0,5.3,0,7.9c0,2.2,0.9,3.1,3.1,3.1c1.4,0,2.9,0,4.3,0c2.6,0,4.4,1.8,4.4,4.4c0,4.5,0,8.9,0,13.4
				c0,2.4-1.8,4.3-4.3,4.3c-5.8,0-11.6,0.1-17.4,0c-2.9-0.1-5.2-1.4-6.9-3.7c-0.2-0.2-0.3-0.5-0.3-0.8c0-4.9,0-9.7,0-14.6
				C23.3,76.5,23.4,76.5,23.4,76.3z"/>
			<path class="st2" d="M18.2,95.6c-1.7,0-3.3,0-5,0c0-7.3,0-14.6,0-22c1.6,0,3.3,0,5,0C18.2,80.9,18.2,88.3,18.2,95.6z"/>
			<path class="st1" d="M111.3,28.9c-1.2,0.4-2.4,0.7-3.6,1c-5.1,1.5-8.3,5.7-8.3,11c0,0.5,0,1,0,1.4c0,1.7-1.1,2.9-2.6,2.9
				c-1.5,0-2.5-1.2-2.5-2.8c0-2.6,0-5.2,0-7.7c0-2.1-1-3-3-3c-1.5,0-2.9,0-4.4,0c-2.7,0-4.5-1.8-4.5-4.5c0-4.4,0-8.7,0-13.1
				c0-2.7,1.7-4.5,4.5-4.5c3.9,0,7.8,0,11.6,0c2.2,0,4.4,0,6.6,0.2c2.5,0.3,4.4,1.6,5.8,3.6c0.2,0.2,0.3,0.5,0.3,0.8
				C111.3,19,111.3,23.9,111.3,28.9z"/>
			<path class="st3" d="M116.5,9.6c1.7,0,3.3,0,5,0c0,7.3,0,14.6,0,22c-1.6,0-3.3,0-5,0C116.5,24.3,116.5,17,116.5,9.6z"/>
		</g>
	</g>
	<g id="yCnAXm.tif">
		<g>
			<path d="M147.3,100.8c-0.3,1.5-0.4,3.1-0.9,4.5c-3,9.6-9.5,15.5-19.4,17.1c-13.4,2.1-25-7.3-27-19.6c-0.5-3.2-0.6-6.6,0.8-11.3
				c-6.9-3-13.7-5.9-20.6-8.9c-2.5,3-5.6,4.6-9.6,4.4c-2.8-0.1-5.3-1.2-7.2-3.3c-4.3-4.5-4.2-11.4,0.2-15.6c4-3.9,11.5-4.8,16.6,1.3
				c2.6-1.1,5.3-2.3,7.9-3.4c4.2-1.8,8.4-3.6,12.6-5.4c0.4-0.2,0.7-0.3,0.7-0.9c-0.4-5,3.3-9.2,7.9-9.9c0.1,0,0.2-0.1,0.2-0.1
				c0.8,0,1.6,0,2.4,0c0.2,0.1,0.3,0.1,0.5,0.1c4.4,0.8,7.6,4.6,7.7,9.1c0.1,3.7-2.3,7.3-5.8,8.7c-3.5,1.5-7.7,0.6-10.3-2.2
				c-0.4-0.4-0.7-0.5-1.2-0.2c-6.6,2.9-13.3,5.7-19.9,8.6c-0.5,0.2-0.7,0.4-0.6,1c0.1,0.8,0.1,1.6,0,2.4c-0.1,0.6,0,0.8,0.6,1.1
				c4.2,1.8,8.3,3.6,12.5,5.4c2.5,1.1,5.1,2.2,7.6,3.3c0.2-0.3,0.3-0.5,0.5-0.7c5.7-8.3,13.5-12,23.5-10.8
				c10,1.3,18.1,9.2,19.9,19.1c0.2,1,0.3,2.1,0.5,3.1C147.3,98.7,147.3,99.8,147.3,100.8z M116.4,102.6c-3.6-4.6-2.5-10.2,1.1-13.3
				c3.3-2.9,8.6-2.9,12-0.1c3.3,2.8,5,8.3,1.2,13.3c3.4,2,5.6,4.9,6.8,8.7c6.7-7.4,6.3-19.2-1.5-26.2c-8.3-7.4-20.7-6.2-27.4,2.5
				c-6.6,8.6-3.6,19.3,0.9,23.6C110.8,107.5,113,104.6,116.4,102.6z M123.6,117.7c3,0,5.9-0.7,8.6-2.1c0.6-0.3,0.7-0.6,0.6-1.2
				c-0.4-3.5-2.2-6.1-5.4-7.7c-5.7-2.8-12.9,1.4-13.3,7.7c0,0.6,0.1,0.9,0.7,1.2C117.6,116.9,120.5,117.6,123.6,117.7z M71.4,70.1
				c-3.2,0-5.9,2.6-5.9,5.8c0,3.4,2.6,6.1,5.9,6.1c3.2,0,5.9-2.7,6-5.8C77.3,72.8,74.7,70.1,71.4,70.1z M106.5,59
				c0,2.4,1.9,4.4,4.2,4.3c2.3,0,4.2-1.9,4.2-4.2c0-2.4-1.9-4.3-4.2-4.3C108.5,54.8,106.6,56.7,106.5,59z M119.3,96.4
				c0,2.4,1.9,4.3,4.2,4.3c2.3,0,4.3-1.9,4.3-4.2c0-2.4-1.9-4.3-4.3-4.2C121.2,92.2,119.3,94.1,119.3,96.4z"/>
			<path class="st4" d="M116.4,102.6c-3.4,2-5.7,4.9-6.8,8.6c-4.5-4.3-7.5-15-0.9-23.6c6.7-8.7,19.1-9.9,27.4-2.5
				c7.8,7,8.2,18.8,1.5,26.2c-1.2-3.8-3.4-6.7-6.8-8.7c3.8-5,2.1-10.5-1.2-13.3c-3.4-2.9-8.7-2.8-12,0.1
				C113.9,92.4,112.8,97.9,116.4,102.6z"/>
			<path class="st0" d="M123.6,117.7c-3.1,0-6-0.7-8.7-2.1c-0.6-0.3-0.7-0.6-0.7-1.2c0.4-6.3,7.6-10.5,13.3-7.7
				c3.2,1.6,5,4.2,5.4,7.7c0.1,0.6-0.1,0.9-0.6,1.2C129.5,116.9,126.6,117.6,123.6,117.7z"/>
			<path class="st3" d="M71.4,70.1c3.3,0,6,2.7,5.9,6c0,3.2-2.7,5.8-6,5.8c-3.3,0-5.9-2.7-5.9-6.1C65.4,72.7,68.2,70.1,71.4,70.1z"
				/>
			<path class="st2" d="M106.5,59c0-2.3,1.9-4.2,4.3-4.1c2.3,0,4.2,1.9,4.2,4.3c0,2.3-1.9,4.2-4.2,4.2
				C108.4,63.3,106.5,61.4,106.5,59z"/>
			<path class="st0" d="M119.3,96.4c0-2.3,1.9-4.2,4.2-4.2c2.3,0,4.2,1.9,4.3,4.2c0,2.3-1.9,4.2-4.3,4.2
				C121.1,100.7,119.3,98.8,119.3,96.4z"/>
		</g>
	</g>
</g>
<g id="Layer_3">
</g>
<g id="Layer_2">
</g>
</svg>
