<?xml version="1.0" encoding="utf-8"?>
<!-- Generator: Adobe Illustrator 24.0.2, SVG Export Plug-In . SVG Version: 6.00 Build 0)  -->
<svg version="1.1" xmlns="http://www.w3.org/2000/svg" xmlns:xlink="http://www.w3.org/1999/xlink" x="0px" y="0px"
	 viewBox="0 0 150 150" style="enable-background:new 0 0 150 150;" xml:space="preserve">
<style type="text/css">
	.st0{fill:#FF7966;}
	.st1{fill:#FFC600;}
	.st2{fill:#00BDFF;}
	.st3{fill:#FFFFFF;}
</style>
<g id="svg833" xmlns:cc="http://creativecommons.org/ns#" xmlns:dc="http://purl.org/dc/elements/1.1/" xmlns:inkscape="http://www.inkscape.org/namespaces/inkscape" xmlns:rdf="http://www.w3.org/1999/02/22-rdf-syntax-ns#" xmlns:sodipodi="http://sodipodi.sourceforge.net/DTD/sodipodi-0.dtd" xmlns:svg="http://www.w3.org/2000/svg">
	
		<sodipodi:namedview  bordercolor="#666666" borderopacity="1" gridtolerance="10" guidetolerance="10" id="namedview835" inkscape:current-layer="layer1" inkscape:cx="117.10526" inkscape:cy="138.68421" inkscape:document-rotation="0" inkscape:guide-bbox="true" inkscape:pageopacity="0" inkscape:pageshadow="2" inkscape:window-height="706" inkscape:window-maximized="0" inkscape:window-width="1279" inkscape:window-x="0" inkscape:window-y="23" inkscape:zoom="1.6326744" objecttolerance="10" pagecolor="#ffffff" showgrid="false" showguides="true">
		<sodipodi:guide  id="guide1003" orientation="0,-1" position="216.33554,137.88079"></sodipodi:guide>
	</sodipodi:namedview>
	<g id="X34R1c.tif">
		<g>
			<path d="M18.7,43.8c-1.3-2.1-2.5-4.2-3.7-6.2 M15,37.7c4.2-4.2,8.4-8.4,12.7-12.7c1.9,1.1,4,2.3,6.1,3.6c0.8,0.5,1.4,0.4,2.3,0.1
				c3.8-1.7,7.7-3.2,11.5-4.8c0.5-0.2,1-0.7,1.2-1.2c0.7-2.4,1.3-4.9,2-7.4c5.9,0,11.8,0,17.7,0c0.6,2.5,1.2,4.9,2,7.4
				c0.1,0.5,0.7,1,1.2,1.2c3.8,1.6,7.6,3.1,11.4,4.8c1,0.4,1.6,0.5,2.5-0.1c2-1.3,4-2.4,5.9-3.5c4.2,4.2,8.4,8.4,12.7,12.7
				c-1.1,1.9-2.3,4-3.6,6.1c-0.5,0.8-0.5,1.4-0.1,2.3c1.6,3.7,3.2,7.4,4.6,11.1c0.4,1,0.8,1.5,1.8,1.7c2,0.4,4,1,6,1.5
				c0.4,0.1,0.9,0.7,1,1.1c0.1,5.6,0,11.2,0,16.9c-2.5,0.6-5,1.2-7.4,2c-0.5,0.1-1,0.6-1.2,1c-1.6,5.7-4,10.9-7.5,15.7
				c-0.1,0.1-0.2,0.3-0.3,0.6c7.1,0,14,0,21.1,0c0-4.7,0-9.3,0-14.3c10,8,19.8,15.8,29.7,23.8c-9.9,7.9-19.7,15.7-29.7,23.8
				c0-4.9,0-9.5,0-14.3c-39.4,0-78.7,0-118,0c0-6.3,0-12.5,0-18.8c6.9,0,13.9,0,21.1,0c-0.3-0.6-0.5-0.9-0.8-1.3
				c-3.2-4.5-5.6-9.4-6.9-14.7c-0.3-1-0.8-1.5-1.8-1.8c-2.3-0.5-4.6-1.1-6.9-1.7c0-0.3-0.1-0.6-0.1-0.9c0-5.3,0-10.5,0-15.8
				c0-0.9,0.2-1.3,1.1-1.5c2.1-0.5,4.2-1,6.3-1.6c0.5-0.1,1.1-0.7,1.2-1.2c1.2-4.1,2.7-8,4.9-11.6c0.5-0.7,0.4-1.3,0-2 M10.1,74.7
				c1.4,0.4,2.7,0.9,4.1,1c2.6,0.3,3.7,1.6,4.3,4.3c4.8,19,21.7,31.9,41.6,31.9c20.4,0,40.8,0,61.2,0c0.6,0,1.2,0,2,0
				c0,3.1,0,5.9,0,9.1c5.9-4.7,11.5-9.2,17.3-13.8c-5.8-4.7-11.5-9.1-17.3-13.8c0,3.3,0,6.1,0,9.2c-0.6,0-1.1,0-1.6,0
				c-20.7,0-41.3,0-62,0c-1.9,0-3.7-0.1-5.6-0.4c-17.9-3-29.9-19.4-27.5-37.4c2.4-18,20.1-31.1,38.1-28c13.7,2.3,24.1,12.4,27.1,26
				c2.8,13.1-2.7,26.6-14.1,34.2c-0.2,0.2-0.5,0.4-0.9,0.7c4.6,0,8.9,0,13.2,0c0.5,0,1.2-0.4,1.6-0.8c4.8-5.5,7.9-11.8,9.3-18.9
				c0.2-1,0.6-1.5,1.6-1.7c2.1-0.5,4.2-1.1,6.3-1.6c0-3.5,0-6.9,0-10.4c-2.2-0.5-4.4-1-6.5-1.7c-0.5-0.2-1.2-0.8-1.3-1.3
				c-1.2-5.6-3.3-10.8-6.4-15.5c-0.3-0.4-0.3-1.3,0-1.8c1.1-2,2.3-3.9,3.2-5.5c-2.5-2.6-4.9-5-7.4-7.5c-1.7,1-3.6,2-5.3,3.2
				c-0.9,0.6-1.5,0.5-2.4,0c-4.6-3-9.6-5.2-15-6.2c-1-0.2-1.4-0.6-1.6-1.6c-0.5-2.1-1.1-4.2-1.6-6.3c-3.6,0-6.9,0-10.4,0
				c-0.5,2.2-1,4.3-1.7,6.4c-0.2,0.5-0.7,1.2-1.2,1.3c-5.6,1.1-10.8,3.3-15.5,6.4c-0.4,0.3-1.3,0.3-1.8,0c-2-1.1-3.9-2.3-5.7-3.3
				c-2.5,2.5-4.9,4.9-7.4,7.4c1,1.6,1.9,3.4,3,5c0.7,1,0.7,1.8,0,2.9c-3,4.5-5.1,9.5-6.1,14.9c-0.2,0.9-0.6,1.3-1.5,1.5
				c-2.1,0.5-4.3,1-6.4,1.6C10.1,67.8,10.1,71.2,10.1,74.7z M59.7,41.2c-15.5-0.1-28,12.2-28.5,26.9c-0.6,17.1,12.9,29.6,28.1,29.7
				c15.3,0.1,28.3-12.5,28.5-27.7C88,54.3,75.5,41.4,59.7,41.2z M5.4,102.6c0,3.1,0,6.1,0,9.3c11,0,21.9,0,32.8,0
				c0-0.3-0.1-0.3-0.2-0.4c-4.3-2.2-8.1-5-11.5-8.3c-0.3-0.3-0.8-0.5-1.3-0.5C18.6,102.6,12.1,102.6,5.4,102.6z"/>
			<path class="st0" d="M10.1,74.7c0-3.5,0-6.8,0-10.3c2.1-0.5,4.3-1.1,6.4-1.6c0.9-0.2,1.3-0.6,1.5-1.5c1-5.4,3.1-10.3,6.1-14.9
				c0.7-1.1,0.7-1.8,0-2.9c-1.1-1.7-2.1-3.4-3-5c2.5-2.5,4.9-4.9,7.4-7.4c1.8,1.1,3.7,2.3,5.7,3.3c0.5,0.3,1.4,0.2,1.8,0
				c4.8-3.1,9.9-5.3,15.5-6.4c0.5-0.1,1.1-0.8,1.2-1.3c0.6-2.1,1.1-4.3,1.7-6.4c3.4,0,6.8,0,10.4,0c0.5,2.1,1.1,4.2,1.6,6.3
				c0.2,0.9,0.6,1.4,1.6,1.6c5.4,1,10.4,3.2,15,6.2c0.9,0.6,1.5,0.6,2.4,0c1.8-1.1,3.6-2.2,5.3-3.2c2.4,2.5,4.8,4.9,7.4,7.5
				C97,40.1,95.8,42,94.7,44c-0.3,0.5-0.3,1.4,0,1.8c3.1,4.8,5.3,9.9,6.4,15.5c0.1,0.5,0.8,1.1,1.3,1.3c2.1,0.6,4.3,1.1,6.5,1.7
				c0,3.4,0,6.9,0,10.4c-2.1,0.5-4.2,1.1-6.3,1.6c-1,0.2-1.4,0.7-1.6,1.7c-1.5,7.1-4.5,13.5-9.3,18.9c-0.4,0.4-1,0.8-1.6,0.8
				c-4.3,0.1-8.7,0-13.2,0c0.4-0.3,0.6-0.5,0.9-0.7c11.4-7.7,16.9-21.2,14.1-34.2c-3-13.6-13.4-23.7-27.1-26
				c-18-3.1-35.7,9.9-38.1,28c-2.4,18.1,9.6,34.4,27.5,37.4c1.8,0.3,3.7,0.4,5.6,0.4c20.7,0,41.3,0,62,0c0.5,0,1,0,1.6,0
				c0-3,0-5.9,0-9.2c5.9,4.7,11.5,9.2,17.3,13.8c-5.8,4.6-11.4,9.1-17.3,13.8c0-3.2,0-6,0-9.1c-0.7,0-1.4,0-2,0
				c-20.4,0-40.8,0-61.2,0C40.2,111.9,23.3,99,18.5,80c-0.7-2.6-1.7-4-4.3-4.3C12.8,75.5,11.5,75,10.1,74.7z"/>
			<path class="st1" d="M59.7,41.2C75.5,41.4,88,54.3,87.8,70.1c-0.2,15.2-13.2,27.8-28.5,27.7c-15.2-0.1-28.7-12.6-28.1-29.7
				C31.8,53.4,44.2,41.1,59.7,41.2z M57.2,45.9c0,5.3,0,10.5,0,15.6c0,0.9-0.2,1.4-1.1,1.8c-3.3,1.8-4.5,5.5-3.1,8.8
				c1.4,3.3,4.9,5.1,8.5,4c0.9-0.3,1.4-0.1,2,0.5c2,2.1,4.1,4.1,6.1,6c1.1-1,2.3-2,3.5-3.1c-2.2-2.2-4.3-4.2-6.3-6.4
				c-0.3-0.4-0.6-1.1-0.4-1.6c0.9-3.5-0.3-6.6-3.5-8.4c-0.7-0.4-0.9-0.8-0.9-1.6c0-4.7,0-9.4,0-14.1c0-0.5,0-1,0-1.6
				C60.3,45.9,58.8,45.9,57.2,45.9z M41.3,74.8c-0.3-1.5-0.5-2.8-0.7-4.2c-1.6,0.1-3.1,0.3-4.7,0.4c0.3,1.8,0.6,3.4,0.9,5.1
				C38.4,75.7,39.8,75.3,41.3,74.8z M36.1,65.8c1.7,0.3,3.2,0.5,4.7,0.7c0.4-1.4,0.7-2.7,1.1-4.1c-1.5-0.6-2.9-1.1-4.4-1.7
				C37,62.5,36.6,64,36.1,65.8z M45.4,82.1c-0.9-1.2-1.7-2.3-2.5-3.4c-1.4,0.8-2.7,1.5-4.1,2.3c1.1,1.5,2.1,2.8,3.1,4.3
				C43.2,84.1,44.2,83.2,45.4,82.1z"/>
			<path class="st2" d="M5.4,102.6c6.7,0,13.2,0,19.7,0c0.4,0,1,0.2,1.3,0.5c3.4,3.4,7.3,6.1,11.5,8.3c0.1,0.1,0.3,0.1,0.2,0.4
				c-10.9,0-21.8,0-32.8,0C5.4,108.7,5.4,105.7,5.4,102.6z"/>
			<path d="M57.2,45.9c1.6,0,3.1,0,4.7,0c0,0.6,0,1.1,0,1.6c0,4.7,0,9.4,0,14.1c0,0.8,0.2,1.2,0.9,1.6c3.2,1.8,4.4,4.8,3.5,8.4
				c-0.1,0.5,0.1,1.2,0.4,1.6c2,2.1,4.1,4.2,6.3,6.4c-1.2,1.1-2.4,2.1-3.5,3.1c-2-1.9-4.1-3.9-6.1-6c-0.6-0.7-1.2-0.8-2-0.5
				c-3.5,1-7.1-0.7-8.5-4c-1.4-3.4-0.1-7,3.1-8.8c0.8-0.4,1.1-0.9,1.1-1.8C57.1,56.4,57.2,51.3,57.2,45.9z M59.3,71.7
				c1.1,0.1,2.2-0.8,2.4-1.9c0.1-1.1-0.8-2.2-1.9-2.4c-1.1-0.2-2.4,0.8-2.5,2C57.2,70.4,58.2,71.5,59.3,71.7z"/>
			<path d="M41.3,74.8c-1.6,0.4-2.9,0.8-4.5,1.3c-0.3-1.7-0.6-3.4-0.9-5.1c1.7-0.1,3.1-0.3,4.7-0.4C40.8,72,41.1,73.4,41.3,74.8z"/>
			<path d="M36.1,65.8c0.5-1.8,0.9-3.3,1.4-5.1c1.5,0.6,2.9,1.1,4.4,1.7c-0.4,1.4-0.7,2.7-1.1,4.1C39.3,66.3,37.8,66,36.1,65.8z"/>
			<path d="M45.4,82.1c-1.2,1.1-2.3,2-3.5,3.2c-1-1.4-2-2.8-3.1-4.3c1.5-0.8,2.8-1.6,4.1-2.3C43.7,79.8,44.5,80.9,45.4,82.1z"/>
			<path class="st3" d="M59.3,71.7c-1.1-0.1-2.1-1.3-2-2.3c0.1-1.2,1.3-2.2,2.5-2c1.1,0.2,2.1,1.3,1.9,2.4
				C61.6,70.8,60.4,71.8,59.3,71.7z"/>
		</g>
	</g>
</g>
<g id="Layer_3">
</g>
<g id="Layer_2">
</g>
</svg>
